STARTFONT 2.1
FONT -DEC-VT220-medium-r-normal-136col4x7y-70-700-75-75-m-360-iso10646-1
SIZE 70 75 75
FONTBOUNDINGBOX 36 70 0 -14
STARTPROPERTIES 2
FONT_ASCENT 56
FONT_DESCENT 14
AVERAGE_WIDTH 360
ENDPROPERTIES
CHARS 288
STARTCHAR U+00FD
ENCODING 253
SWIDTH 1000 0
BBX 36 70 0 -14
DWIDTH 36 0
BITMAP
0000000000
0000000000
0000000000
0000000000
0000000000
0000000000
0000000000
FF00FF0000
FF00FF0000
FF00FF0000
FF00FF0000
FF00FF0000
FF00FF0000
FF00FF0000
FFF0FF0000
FFF0FF0000
FFF0FF0000
FFF0FF0000
FFF0FF0000
FFF0FF0000
FFF0FF0000
FFFFFF0000
FFFFFF0000
FFFFFF0000
FFFFFF0000
FFFFFF0000
FFFFFF0000
FFFFFF0000
FF0FFF0000
FF0FFF0000
FF0FFF0000
FF0FFF0000
FF0FFF0000
FF0FFF0000
FF0FFF0000
FF0FFFFF00
FF0FFFFF00
FF0FFFFF00
FF0FFFFF00
FF0FFFFF00
FF0FFFFF00
FF0FFFFF00
000FF0FF00
000FF0FF00
000FF0FF00
000FF0FF00
000FF0FF00
000FF0FF00
000FF0FF00
000FF0FF00
000FF0FF00
000FF0FF00
000FF0FF00
000FF0FF00
000FF0FF00
000FF0FF00
000FF0FF00
000FF0FF00
000FF0FF00
000FF0FF00
000FF0FF00
000FF0FF00
000FF0FF00
0000FFF000
0000FFF000
0000FFF000
0000FFF000
0000FFF000
0000FFF000
0000FFF000
ENDCHAR
STARTCHAR U+25A1
ENCODING 9633
SWIDTH 1000 0
BBX 36 70 0 -14
DWIDTH 36 0
BITMAP
0000000000
0000000000
0000000000
0000000000
0000000000
0000000000
0000000000
FFFFFFFF00
FFFFFFFF00
FFFFFFFF00
FFFFFFFF00
FFFFFFFF00
FFFFFFFF00
FFFFFFFF00
FF0000FF00
FF0000FF00
FF0000FF00
FF0000FF00
FF0000FF00
FF0000FF00
FF0000FF00
FF0000FF00
FF0000FF00
FF0000FF00
FF0000FF00
FF0000FF00
FF0000FF00
FF0000FF00
FF0000FF00
FF0000FF00
FF0000FF00
FF0000FF00
FF0000FF00
FF0000FF00
FF0000FF00
FF0000FF00
FF0000FF00
FF0000FF00
FF0000FF00
FF0000FF00
FF0000FF00
FF0000FF00
FF0000FF00
FF0000FF00
FF0000FF00
FF0000FF00
FF0000FF00
FF0000FF00
FF0000FF00
FFFFFFFF00
FFFFFFFF00
FFFFFFFF00
FFFFFFFF00
FFFFFFFF00
FFFFFFFF00
FFFFFFFF00
0000000000
0000000000
0000000000
0000000000
0000000000
0000000000
0000000000
0000000000
0000000000
0000000000
0000000000
0000000000
0000000000
0000000000
ENDCHAR
STARTCHAR U+00FE
ENCODING 254
SWIDTH 1000 0
BBX 36 70 0 -14
DWIDTH 36 0
BITMAP
0000000000
0000000000
0000000000
0000000000
0000000000
0000000000
0000000000
FFFFF00000
FFFFF00000
FFFFF00000
FFFFF00000
FFFFF00000
FFFFF00000
FFFFF00000
FF00000000
FF00000000
FF00000000
FF00000000
FF00000000
FF00000000
FF00000000
FFFF000000
FFFF000000
FFFF000000
FFFF000000
FFFF000000
FFFF000000
FFFF000000
FF00000000
FF00000000
FF00000000
FF00000000
FF00000000
FF00000000
FF00000000
FF0FFFFF00
FF0FFFFF00
FF0FFFFF00
FF0FFFFF00
FF0FFFFF00
FF0FFFFF00
FF0FFFFF00
000FF00000
000FF00000
000FF00000
000FF00000
000FF00000
000FF00000
000FF00000
000FFFF000
000FFFF000
000FFFF000
000FFFF000
000FFFF000
000FFFF000
000FFFF000
000FF00000
000FF00000
000FF00000
000FF00000
000FF00000
000FF00000
000FF00000
000FFFFF00
000FFFFF00
000FFFFF00
000FFFFF00
000FFFFF00
000FFFFF00
000FFFFF00
ENDCHAR
STARTCHAR U+00FF
ENCODING 255
SWIDTH 1000 0
BBX 36 70 0 -14
DWIDTH 36 0
BITMAP
0000000000
0000000000
0000000000
0000000000
0000000000
0000000000
0000000000
0FF00FF000
0FF00FF000
0FF00FF000
0FF00FF000
0FF00FF000
0FF00FF000
0FF00FF000
0000000000
0000000000
0000000000
0000000000
0000000000
0000000000
0000000000
FF000FF000
FF000FF000
FF000FF000
FF000FF000
FF000FF000
FF000FF000
FF000FF000
FF000FF000
FF000FF000
FF000FF000
FF000FF000
FF000FF000
FF000FF000
FF000FF000
FF00FFF000
FF00FFF000
FF00FFF000
FF00FFF000
FF00FFF000
FF00FFF000
FF00FFF000
0FFFFFF000
0FFFFFF000
0FFFFFF000
0FFFFFF000
0FFFFFF000
0FFFFFF000
0FFFFFF000
00000FF000
00000FF000
00000FF000
00000FF000
00000FF000
00000FF000
00000FF000
FF000FF000
FF000FF000
FF000FF000
FF000FF000
FF000FF000
FF000FF000
FF000FF000
0FFFFF0000
0FFFFF0000
0FFFFF0000
0FFFFF0000
0FFFFF0000
0FFFFF0000
0FFFFF0000
ENDCHAR
STARTCHAR U+00FC
ENCODING 252
SWIDTH 1000 0
BBX 36 70 0 -14
DWIDTH 36 0
BITMAP
0000000000
0000000000
0000000000
0000000000
0000000000
0000000000
0000000000
0FF00FF000
0FF00FF000
0FF00FF000
0FF00FF000
0FF00FF000
0FF00FF000
0FF00FF000
0000000000
0000000000
0000000000
0000000000
0000000000
0000000000
0000000000
FF000FF000
FF000FF000
FF000FF000
FF000FF000
FF000FF000
FF000FF000
FF000FF000
FF000FF000
FF000FF000
FF000FF000
FF000FF000
FF000FF000
FF000FF000
FF000FF000
FF000FF000
FF000FF000
FF000FF000
FF000FF000
FF000FF000
FF000FF000
FF000FF000
FF000FF000
FF000FF000
FF000FF000
FF000FF000
FF000FF000
FF000FF000
FF000FF000
0FFFFFFF00
0FFFFFFF00
0FFFFFFF00
0FFFFFFF00
0FFFFFFF00
0FFFFFFF00
0FFFFFFF00
0000000000
0000000000
0000000000
0000000000
0000000000
0000000000
0000000000
0000000000
0000000000
0000000000
0000000000
0000000000
0000000000
0000000000
ENDCHAR
STARTCHAR U+00FB
ENCODING 251
SWIDTH 1000 0
BBX 36 70 0 -14
DWIDTH 36 0
BITMAP
00FFFF0000
00FFFF0000
00FFFF0000
00FFFF0000
00FFFF0000
00FFFF0000
00FFFF0000
0FF00FF000
0FF00FF000
0FF00FF000
0FF00FF000
0FF00FF000
0FF00FF000
0FF00FF000
0000000000
0000000000
0000000000
0000000000
0000000000
0000000000
0000000000
FF000FF000
FF000FF000
FF000FF000
FF000FF000
FF000FF000
FF000FF000
FF000FF000
FF000FF000
FF000FF000
FF000FF000
FF000FF000
FF000FF000
FF000FF000
FF000FF000
FF000FF000
FF000FF000
FF000FF000
FF000FF000
FF000FF000
FF000FF000
FF000FF000
FF000FF000
FF000FF000
FF000FF000
FF000FF000
FF000FF000
FF000FF000
FF000FF000
0FFFFFFF00
0FFFFFFF00
0FFFFFFF00
0FFFFFFF00
0FFFFFFF00
0FFFFFFF00
0FFFFFFF00
0000000000
0000000000
0000000000
0000000000
0000000000
0000000000
0000000000
0000000000
0000000000
0000000000
0000000000
0000000000
0000000000
0000000000
ENDCHAR
STARTCHAR U+00FA
ENCODING 250
SWIDTH 1000 0
BBX 36 70 0 -14
DWIDTH 36 0
BITMAP
0000000000
0000000000
0000000000
0000000000
0000000000
0000000000
0000000000
000FFF0000
000FFF0000
000FFF0000
000FFF0000
000FFF0000
000FFF0000
000FFF0000
0FFF000000
0FFF000000
0FFF000000
0FFF000000
0FFF000000
0FFF000000
0FFF000000
FF000FF000
FF000FF000
FF000FF000
FF000FF000
FF000FF000
FF000FF000
FF000FF000
FF000FF000
FF000FF000
FF000FF000
FF000FF000
FF000FF000
FF000FF000
FF000FF000
FF000FF000
FF000FF000
FF000FF000
FF000FF000
FF000FF000
FF000FF000
FF000FF000
FF000FF000
FF000FF000
FF000FF000
FF000FF000
FF000FF000
FF000FF000
FF000FF000
0FFFFFFF00
0FFFFFFF00
0FFFFFFF00
0FFFFFFF00
0FFFFFFF00
0FFFFFFF00
0FFFFFFF00
0000000000
0000000000
0000000000
0000000000
0000000000
0000000000
0000000000
0000000000
0000000000
0000000000
0000000000
0000000000
0000000000
0000000000
ENDCHAR
STARTCHAR U+00F9
ENCODING 249
SWIDTH 1000 0
BBX 36 70 0 -14
DWIDTH 36 0
BITMAP
0000000000
0000000000
0000000000
0000000000
0000000000
0000000000
0000000000
0FFF000000
0FFF000000
0FFF000000
0FFF000000
0FFF000000
0FFF000000
0FFF000000
000FFF0000
000FFF0000
000FFF0000
000FFF0000
000FFF0000
000FFF0000
000FFF0000
FF000FF000
FF000FF000
FF000FF000
FF000FF000
FF000FF000
FF000FF000
FF000FF000
FF000FF000
FF000FF000
FF000FF000
FF000FF000
FF000FF000
FF000FF000
FF000FF000
FF000FF000
FF000FF000
FF000FF000
FF000FF000
FF000FF000
FF000FF000
FF000FF000
FF000FF000
FF000FF000
FF000FF000
FF000FF000
FF000FF000
FF000FF000
FF000FF000
0FFFFFFF00
0FFFFFFF00
0FFFFFFF00
0FFFFFFF00
0FFFFFFF00
0FFFFFFF00
0FFFFFFF00
0000000000
0000000000
0000000000
0000000000
0000000000
0000000000
0000000000
0000000000
0000000000
0000000000
0000000000
0000000000
0000000000
0000000000
ENDCHAR
STARTCHAR U+00F8
ENCODING 248
SWIDTH 1000 0
BBX 36 70 0 -14
DWIDTH 36 0
BITMAP
0000000000
0000000000
0000000000
0000000000
0000000000
0000000000
0000000000
0000000000
0000000000
0000000000
0000000000
0000000000
0000000000
0000000000
000000FF00
000000FF00
000000FF00
000000FF00
000000FF00
000000FF00
000000FF00
0FFFFFF000
0FFFFFF000
0FFFFFF000
0FFFFFF000
0FFFFFF000
0FFFFFF000
0FFFFFF000
FF00FFFF00
FF00FFFF00
FF00FFFF00
FF00FFFF00
FF00FFFF00
FF00FFFF00
FF00FFFF00
FF0FF0FF00
FF0FF0FF00
FF0FF0FF00
FF0FF0FF00
FF0FF0FF00
FF0FF0FF00
FF0FF0FF00
FFFF00FF00
FFFF00FF00
FFFF00FF00
FFFF00FF00
FFFF00FF00
FFFF00FF00
FFFF00FF00
0FFFFFF000
0FFFFFF000
0FFFFFF000
0FFFFFF000
0FFFFFF000
0FFFFFF000
0FFFFFF000
FF00000000
FF00000000
FF00000000
FF00000000
FF00000000
FF00000000
FF00000000
0000000000
0000000000
0000000000
0000000000
0000000000
0000000000
0000000000
ENDCHAR
STARTCHAR U+0152
ENCODING 338
SWIDTH 1000 0
BBX 36 70 0 -14
DWIDTH 36 0
BITMAP
0000000000
0000000000
0000000000
0000000000
0000000000
0000000000
0000000000
0000000000
0000000000
0000000000
0000000000
0000000000
0000000000
0000000000
0000000000
0000000000
0000000000
0000000000
0000000000
0000000000
0000000000
0FFFFFF000
0FFFFFF000
0FFFFFF000
0FFFFFF000
0FFFFFF000
0FFFFFF000
0FFFFFF000
FF0FF0FF00
FF0FF0FF00
FF0FF0FF00
FF0FF0FF00
FF0FF0FF00
FF0FF0FF00
FF0FF0FF00
FF0FFFFF00
FF0FFFFF00
FF0FFFFF00
FF0FFFFF00
FF0FFFFF00
FF0FFFFF00
FF0FFFFF00
FF0FF00000
FF0FF00000
FF0FF00000
FF0FF00000
FF0FF00000
FF0FF00000
FF0FF00000
0FFFFFFF00
0FFFFFFF00
0FFFFFFF00
0FFFFFFF00
0FFFFFFF00
0FFFFFFF00
0FFFFFFF00
0000000000
0000000000
0000000000
0000000000
0000000000
0000000000
0000000000
0000000000
0000000000
0000000000
0000000000
0000000000
0000000000
0000000000
ENDCHAR
STARTCHAR U+00F6
ENCODING 246
SWIDTH 1000 0
BBX 36 70 0 -14
DWIDTH 36 0
BITMAP
0000000000
0000000000
0000000000
0000000000
0000000000
0000000000
0000000000
0FF00FF000
0FF00FF000
0FF00FF000
0FF00FF000
0FF00FF000
0FF00FF000
0FF00FF000
0000000000
0000000000
0000000000
0000000000
0000000000
0000000000
0000000000
0FFFFFF000
0FFFFFF000
0FFFFFF000
0FFFFFF000
0FFFFFF000
0FFFFFF000
0FFFFFF000
FF0000FF00
FF0000FF00
FF0000FF00
FF0000FF00
FF0000FF00
FF0000FF00
FF0000FF00
FF0000FF00
FF0000FF00
FF0000FF00
FF0000FF00
FF0000FF00
FF0000FF00
FF0000FF00
FF0000FF00
FF0000FF00
FF0000FF00
FF0000FF00
FF0000FF00
FF0000FF00
FF0000FF00
0FFFFFF000
0FFFFFF000
0FFFFFF000
0FFFFFF000
0FFFFFF000
0FFFFFF000
0FFFFFF000
0000000000
0000000000
0000000000
0000000000
0000000000
0000000000
0000000000
0000000000
0000000000
0000000000
0000000000
0000000000
0000000000
0000000000
ENDCHAR
STARTCHAR U+00F5
ENCODING 245
SWIDTH 1000 0
BBX 36 70 0 -14
DWIDTH 36 0
BITMAP
0FFF0FF000
0FFF0FF000
0FFF0FF000
0FFF0FF000
0FFF0FF000
0FFF0FF000
0FFF0FF000
FF0FFF0000
FF0FFF0000
FF0FFF0000
FF0FFF0000
FF0FFF0000
FF0FFF0000
FF0FFF0000
0000000000
0000000000
0000000000
0000000000
0000000000
0000000000
0000000000
0FFFFFF000
0FFFFFF000
0FFFFFF000
0FFFFFF000
0FFFFFF000
0FFFFFF000
0FFFFFF000
FF0000FF00
FF0000FF00
FF0000FF00
FF0000FF00
FF0000FF00
FF0000FF00
FF0000FF00
FF0000FF00
FF0000FF00
FF0000FF00
FF0000FF00
FF0000FF00
FF0000FF00
FF0000FF00
FF0000FF00
FF0000FF00
FF0000FF00
FF0000FF00
FF0000FF00
FF0000FF00
FF0000FF00
0FFFFFF000
0FFFFFF000
0FFFFFF000
0FFFFFF000
0FFFFFF000
0FFFFFF000
0FFFFFF000
0000000000
0000000000
0000000000
0000000000
0000000000
0000000000
0000000000
0000000000
0000000000
0000000000
0000000000
0000000000
0000000000
0000000000
ENDCHAR
STARTCHAR U+00F4
ENCODING 244
SWIDTH 1000 0
BBX 36 70 0 -14
DWIDTH 36 0
BITMAP
00FFFF0000
00FFFF0000
00FFFF0000
00FFFF0000
00FFFF0000
00FFFF0000
00FFFF0000
0FF00FF000
0FF00FF000
0FF00FF000
0FF00FF000
0FF00FF000
0FF00FF000
0FF00FF000
0000000000
0000000000
0000000000
0000000000
0000000000
0000000000
0000000000
0FFFFFF000
0FFFFFF000
0FFFFFF000
0FFFFFF000
0FFFFFF000
0FFFFFF000
0FFFFFF000
FF0000FF00
FF0000FF00
FF0000FF00
FF0000FF00
FF0000FF00
FF0000FF00
FF0000FF00
FF0000FF00
FF0000FF00
FF0000FF00
FF0000FF00
FF0000FF00
FF0000FF00
FF0000FF00
FF0000FF00
FF0000FF00
FF0000FF00
FF0000FF00
FF0000FF00
FF0000FF00
FF0000FF00
0FFFFFF000
0FFFFFF000
0FFFFFF000
0FFFFFF000
0FFFFFF000
0FFFFFF000
0FFFFFF000
0000000000
0000000000
0000000000
0000000000
0000000000
0000000000
0000000000
0000000000
0000000000
0000000000
0000000000
0000000000
0000000000
0000000000
ENDCHAR
STARTCHAR U+00F3
ENCODING 243
SWIDTH 1000 0
BBX 36 70 0 -14
DWIDTH 36 0
BITMAP
0000000000
0000000000
0000000000
0000000000
0000000000
0000000000
0000000000
000FFF0000
000FFF0000
000FFF0000
000FFF0000
000FFF0000
000FFF0000
000FFF0000
0FFF000000
0FFF000000
0FFF000000
0FFF000000
0FFF000000
0FFF000000
0FFF000000
0FFFFFF000
0FFFFFF000
0FFFFFF000
0FFFFFF000
0FFFFFF000
0FFFFFF000
0FFFFFF000
FF0000FF00
FF0000FF00
FF0000FF00
FF0000FF00
FF0000FF00
FF0000FF00
FF0000FF00
FF0000FF00
FF0000FF00
FF0000FF00
FF0000FF00
FF0000FF00
FF0000FF00
FF0000FF00
FF0000FF00
FF0000FF00
FF0000FF00
FF0000FF00
FF0000FF00
FF0000FF00
FF0000FF00
0FFFFFF000
0FFFFFF000
0FFFFFF000
0FFFFFF000
0FFFFFF000
0FFFFFF000
0FFFFFF000
0000000000
0000000000
0000000000
0000000000
0000000000
0000000000
0000000000
0000000000
0000000000
0000000000
0000000000
0000000000
0000000000
0000000000
ENDCHAR
STARTCHAR U+00F2
ENCODING 242
SWIDTH 1000 0
BBX 36 70 0 -14
DWIDTH 36 0
BITMAP
0000000000
0000000000
0000000000
0000000000
0000000000
0000000000
0000000000
00FFF00000
00FFF00000
00FFF00000
00FFF00000
00FFF00000
00FFF00000
00FFF00000
0000FFF000
0000FFF000
0000FFF000
0000FFF000
0000FFF000
0000FFF000
0000FFF000
0FFFFFF000
0FFFFFF000
0FFFFFF000
0FFFFFF000
0FFFFFF000
0FFFFFF000
0FFFFFF000
FF0000FF00
FF0000FF00
FF0000FF00
FF0000FF00
FF0000FF00
FF0000FF00
FF0000FF00
FF0000FF00
FF0000FF00
FF0000FF00
FF0000FF00
FF0000FF00
FF0000FF00
FF0000FF00
FF0000FF00
FF0000FF00
FF0000FF00
FF0000FF00
FF0000FF00
FF0000FF00
FF0000FF00
0FFFFFF000
0FFFFFF000
0FFFFFF000
0FFFFFF000
0FFFFFF000
0FFFFFF000
0FFFFFF000
0000000000
0000000000
0000000000
0000000000
0000000000
0000000000
0000000000
0000000000
0000000000
0000000000
0000000000
0000000000
0000000000
0000000000
ENDCHAR
STARTCHAR U+00F1
ENCODING 241
SWIDTH 1000 0
BBX 36 70 0 -14
DWIDTH 36 0
BITMAP
0FFF0FF000
0FFF0FF000
0FFF0FF000
0FFF0FF000
0FFF0FF000
0FFF0FF000
0FFF0FF000
FF0FFF0000
FF0FFF0000
FF0FFF0000
FF0FFF0000
FF0FFF0000
FF0FFF0000
FF0FFF0000
0000000000
0000000000
0000000000
0000000000
0000000000
0000000000
0000000000
FFFFFFF000
FFFFFFF000
FFFFFFF000
FFFFFFF000
FFFFFFF000
FFFFFFF000
FFFFFFF000
FFF000FF00
FFF000FF00
FFF000FF00
FFF000FF00
FFF000FF00
FFF000FF00
FFF000FF00
FF0000FF00
FF0000FF00
FF0000FF00
FF0000FF00
FF0000FF00
FF0000FF00
FF0000FF00
FF0000FF00
FF0000FF00
FF0000FF00
FF0000FF00
FF0000FF00
FF0000FF00
FF0000FF00
FF0000FF00
FF0000FF00
FF0000FF00
FF0000FF00
FF0000FF00
FF0000FF00
FF0000FF00
0000000000
0000000000
0000000000
0000000000
0000000000
0000000000
0000000000
0000000000
0000000000
0000000000
0000000000
0000000000
0000000000
0000000000
ENDCHAR
STARTCHAR U+00F0
ENCODING 240
SWIDTH 1000 0
BBX 36 70 0 -14
DWIDTH 36 0
BITMAP
0000000000
0000000000
0000000000
0000000000
0000000000
0000000000
0000000000
FFFFF00000
FFFFF00000
FFFFF00000
FFFFF00000
FFFFF00000
FFFFF00000
FFFFF00000
FF00000000
FF00000000
FF00000000
FF00000000
FF00000000
FF00000000
FF00000000
FFFF000000
FFFF000000
FFFF000000
FFFF000000
FFFF000000
FFFF000000
FFFF000000
FF00000000
FF00000000
FF00000000
FF00000000
FF00000000
FF00000000
FF00000000
FF00FFF000
FF00FFF000
FF00FFF000
FF00FFF000
FF00FFF000
FF00FFF000
FF00FFF000
000FF0FF00
000FF0FF00
000FF0FF00
000FF0FF00
000FF0FF00
000FF0FF00
000FF0FF00
000FF0FF00
000FF0FF00
000FF0FF00
000FF0FF00
000FF0FF00
000FF0FF00
000FF0FF00
000FF0FF00
000FF0FF00
000FF0FF00
000FF0FF00
000FF0FF00
000FF0FF00
000FF0FF00
0000FFF000
0000FFF000
0000FFF000
0000FFF000
0000FFF000
0000FFF000
0000FFF000
ENDCHAR
STARTCHAR U+00EF
ENCODING 239
SWIDTH 1000 0
BBX 36 70 0 -14
DWIDTH 36 0
BITMAP
0000000000
0000000000
0000000000
0000000000
0000000000
0000000000
0000000000
0FF00FF000
0FF00FF000
0FF00FF000
0FF00FF000
0FF00FF000
0FF00FF000
0FF00FF000
0000000000
0000000000
0000000000
0000000000
0000000000
0000000000
0000000000
00FFF00000
00FFF00000
00FFF00000
00FFF00000
00FFF00000
00FFF00000
00FFF00000
000FF00000
000FF00000
000FF00000
000FF00000
000FF00000
000FF00000
000FF00000
000FF00000
000FF00000
000FF00000
000FF00000
000FF00000
000FF00000
000FF00000
000FF00000
000FF00000
000FF00000
000FF00000
000FF00000
000FF00000
000FF00000
0FFFFFF000
0FFFFFF000
0FFFFFF000
0FFFFFF000
0FFFFFF000
0FFFFFF000
0FFFFFF000
0000000000
0000000000
0000000000
0000000000
0000000000
0000000000
0000000000
0000000000
0000000000
0000000000
0000000000
0000000000
0000000000
0000000000
ENDCHAR
STARTCHAR U+00EE
ENCODING 238
SWIDTH 1000 0
BBX 36 70 0 -14
DWIDTH 36 0
BITMAP
00FFFF0000
00FFFF0000
00FFFF0000
00FFFF0000
00FFFF0000
00FFFF0000
00FFFF0000
0FF00FF000
0FF00FF000
0FF00FF000
0FF00FF000
0FF00FF000
0FF00FF000
0FF00FF000
0000000000
0000000000
0000000000
0000000000
0000000000
0000000000
0000000000
00FFF00000
00FFF00000
00FFF00000
00FFF00000
00FFF00000
00FFF00000
00FFF00000
000FF00000
000FF00000
000FF00000
000FF00000
000FF00000
000FF00000
000FF00000
000FF00000
000FF00000
000FF00000
000FF00000
000FF00000
000FF00000
000FF00000
000FF00000
000FF00000
000FF00000
000FF00000
000FF00000
000FF00000
000FF00000
0FFFFFF000
0FFFFFF000
0FFFFFF000
0FFFFFF000
0FFFFFF000
0FFFFFF000
0FFFFFF000
0000000000
0000000000
0000000000
0000000000
0000000000
0000000000
0000000000
0000000000
0000000000
0000000000
0000000000
0000000000
0000000000
0000000000
ENDCHAR
STARTCHAR U+00ED
ENCODING 237
SWIDTH 1000 0
BBX 36 70 0 -14
DWIDTH 36 0
BITMAP
0000000000
0000000000
0000000000
0000000000
0000000000
0000000000
0000000000
000FFF0000
000FFF0000
000FFF0000
000FFF0000
000FFF0000
000FFF0000
000FFF0000
0FFF000000
0FFF000000
0FFF000000
0FFF000000
0FFF000000
0FFF000000
0FFF000000
00FFF00000
00FFF00000
00FFF00000
00FFF00000
00FFF00000
00FFF00000
00FFF00000
000FF00000
000FF00000
000FF00000
000FF00000
000FF00000
000FF00000
000FF00000
000FF00000
000FF00000
000FF00000
000FF00000
000FF00000
000FF00000
000FF00000
000FF00000
000FF00000
000FF00000
000FF00000
000FF00000
000FF00000
000FF00000
0FFFFFF000
0FFFFFF000
0FFFFFF000
0FFFFFF000
0FFFFFF000
0FFFFFF000
0FFFFFF000
0000000000
0000000000
0000000000
0000000000
0000000000
0000000000
0000000000
0000000000
0000000000
0000000000
0000000000
0000000000
0000000000
0000000000
ENDCHAR
STARTCHAR U+00EC
ENCODING 236
SWIDTH 1000 0
BBX 36 70 0 -14
DWIDTH 36 0
BITMAP
0000000000
0000000000
0000000000
0000000000
0000000000
0000000000
0000000000
0FFF000000
0FFF000000
0FFF000000
0FFF000000
0FFF000000
0FFF000000
0FFF000000
000FFF0000
000FFF0000
000FFF0000
000FFF0000
000FFF0000
000FFF0000
000FFF0000
00FFF00000
00FFF00000
00FFF00000
00FFF00000
00FFF00000
00FFF00000
00FFF00000
000FF00000
000FF00000
000FF00000
000FF00000
000FF00000
000FF00000
000FF00000
000FF00000
000FF00000
000FF00000
000FF00000
000FF00000
000FF00000
000FF00000
000FF00000
000FF00000
000FF00000
000FF00000
000FF00000
000FF00000
000FF00000
0FFFFFF000
0FFFFFF000
0FFFFFF000
0FFFFFF000
0FFFFFF000
0FFFFFF000
0FFFFFF000
0000000000
0000000000
0000000000
0000000000
0000000000
0000000000
0000000000
0000000000
0000000000
0000000000
0000000000
0000000000
0000000000
0000000000
ENDCHAR
STARTCHAR U+00EB
ENCODING 235
SWIDTH 1000 0
BBX 36 70 0 -14
DWIDTH 36 0
BITMAP
0000000000
0000000000
0000000000
0000000000
0000000000
0000000000
0000000000
0FF00FF000
0FF00FF000
0FF00FF000
0FF00FF000
0FF00FF000
0FF00FF000
0FF00FF000
0000000000
0000000000
0000000000
0000000000
0000000000
0000000000
0000000000
0FFFFFF000
0FFFFFF000
0FFFFFF000
0FFFFFF000
0FFFFFF000
0FFFFFF000
0FFFFFF000
FF0000FF00
FF0000FF00
FF0000FF00
FF0000FF00
FF0000FF00
FF0000FF00
FF0000FF00
FFFFFFFF00
FFFFFFFF00
FFFFFFFF00
FFFFFFFF00
FFFFFFFF00
FFFFFFFF00
FFFFFFFF00
FF00000000
FF00000000
FF00000000
FF00000000
FF00000000
FF00000000
FF00000000
0FFFFFF000
0FFFFFF000
0FFFFFF000
0FFFFFF000
0FFFFFF000
0FFFFFF000
0FFFFFF000
0000000000
0000000000
0000000000
0000000000
0000000000
0000000000
0000000000
0000000000
0000000000
0000000000
0000000000
0000000000
0000000000
0000000000
ENDCHAR
STARTCHAR U+00EA
ENCODING 234
SWIDTH 1000 0
BBX 36 70 0 -14
DWIDTH 36 0
BITMAP
00FFFF0000
00FFFF0000
00FFFF0000
00FFFF0000
00FFFF0000
00FFFF0000
00FFFF0000
0FF00FF000
0FF00FF000
0FF00FF000
0FF00FF000
0FF00FF000
0FF00FF000
0FF00FF000
0000000000
0000000000
0000000000
0000000000
0000000000
0000000000
0000000000
0FFFFFF000
0FFFFFF000
0FFFFFF000
0FFFFFF000
0FFFFFF000
0FFFFFF000
0FFFFFF000
FF0000FF00
FF0000FF00
FF0000FF00
FF0000FF00
FF0000FF00
FF0000FF00
FF0000FF00
FFFFFFFF00
FFFFFFFF00
FFFFFFFF00
FFFFFFFF00
FFFFFFFF00
FFFFFFFF00
FFFFFFFF00
FF00000000
FF00000000
FF00000000
FF00000000
FF00000000
FF00000000
FF00000000
0FFFFFF000
0FFFFFF000
0FFFFFF000
0FFFFFF000
0FFFFFF000
0FFFFFF000
0FFFFFF000
0000000000
0000000000
0000000000
0000000000
0000000000
0000000000
0000000000
0000000000
0000000000
0000000000
0000000000
0000000000
0000000000
0000000000
ENDCHAR
STARTCHAR U+00E9
ENCODING 233
SWIDTH 1000 0
BBX 36 70 0 -14
DWIDTH 36 0
BITMAP
0000000000
0000000000
0000000000
0000000000
0000000000
0000000000
0000000000
000FFF0000
000FFF0000
000FFF0000
000FFF0000
000FFF0000
000FFF0000
000FFF0000
0FFF000000
0FFF000000
0FFF000000
0FFF000000
0FFF000000
0FFF000000
0FFF000000
0FFFFFF000
0FFFFFF000
0FFFFFF000
0FFFFFF000
0FFFFFF000
0FFFFFF000
0FFFFFF000
FF0000FF00
FF0000FF00
FF0000FF00
FF0000FF00
FF0000FF00
FF0000FF00
FF0000FF00
FFFFFFFF00
FFFFFFFF00
FFFFFFFF00
FFFFFFFF00
FFFFFFFF00
FFFFFFFF00
FFFFFFFF00
FF00000000
FF00000000
FF00000000
FF00000000
FF00000000
FF00000000
FF00000000
0FFFFFF000
0FFFFFF000
0FFFFFF000
0FFFFFF000
0FFFFFF000
0FFFFFF000
0FFFFFF000
0000000000
0000000000
0000000000
0000000000
0000000000
0000000000
0000000000
0000000000
0000000000
0000000000
0000000000
0000000000
0000000000
0000000000
ENDCHAR
STARTCHAR U+00E8
ENCODING 232
SWIDTH 1000 0
BBX 36 70 0 -14
DWIDTH 36 0
BITMAP
0000000000
0000000000
0000000000
0000000000
0000000000
0000000000
0000000000
00FFF00000
00FFF00000
00FFF00000
00FFF00000
00FFF00000
00FFF00000
00FFF00000
0000FFF000
0000FFF000
0000FFF000
0000FFF000
0000FFF000
0000FFF000
0000FFF000
0FFFFFF000
0FFFFFF000
0FFFFFF000
0FFFFFF000
0FFFFFF000
0FFFFFF000
0FFFFFF000
FF0000FF00
FF0000FF00
FF0000FF00
FF0000FF00
FF0000FF00
FF0000FF00
FF0000FF00
FFFFFFFF00
FFFFFFFF00
FFFFFFFF00
FFFFFFFF00
FFFFFFFF00
FFFFFFFF00
FFFFFFFF00
FF00000000
FF00000000
FF00000000
FF00000000
FF00000000
FF00000000
FF00000000
0FFFFFF000
0FFFFFF000
0FFFFFF000
0FFFFFF000
0FFFFFF000
0FFFFFF000
0FFFFFF000
0000000000
0000000000
0000000000
0000000000
0000000000
0000000000
0000000000
0000000000
0000000000
0000000000
0000000000
0000000000
0000000000
0000000000
ENDCHAR
STARTCHAR U+00E7
ENCODING 231
SWIDTH 1000 0
BBX 36 70 0 -14
DWIDTH 36 0
BITMAP
0000000000
0000000000
0000000000
0000000000
0000000000
0000000000
0000000000
0000000000
0000000000
0000000000
0000000000
0000000000
0000000000
0000000000
0000000000
0000000000
0000000000
0000000000
0000000000
0000000000
0000000000
0FFFFFF000
0FFFFFF000
0FFFFFF000
0FFFFFF000
0FFFFFF000
0FFFFFF000
0FFFFFF000
FF0000FF00
FF0000FF00
FF0000FF00
FF0000FF00
FF0000FF00
FF0000FF00
FF0000FF00
FF00000000
FF00000000
FF00000000
FF00000000
FF00000000
FF00000000
FF00000000
FF0000FF00
FF0000FF00
FF0000FF00
FF0000FF00
FF0000FF00
FF0000FF00
FF0000FF00
0FFFFFF000
0FFFFFF000
0FFFFFF000
0FFFFFF000
0FFFFFF000
0FFFFFF000
0FFFFFF000
0000FF0000
0000FF0000
0000FF0000
0000FF0000
0000FF0000
0000FF0000
0000FF0000
00FFFF0000
00FFFF0000
00FFFF0000
00FFFF0000
00FFFF0000
00FFFF0000
00FFFF0000
ENDCHAR
STARTCHAR U+00E6
ENCODING 230
SWIDTH 1000 0
BBX 36 70 0 -14
DWIDTH 36 0
BITMAP
0000000000
0000000000
0000000000
0000000000
0000000000
0000000000
0000000000
0000000000
0000000000
0000000000
0000000000
0000000000
0000000000
0000000000
0000000000
0000000000
0000000000
0000000000
0000000000
0000000000
0000000000
0FFFFFF000
0FFFFFF000
0FFFFFF000
0FFFFFF000
0FFFFFF000
0FFFFFF000
0FFFFFF000
000FF0FF00
000FF0FF00
000FF0FF00
000FF0FF00
000FF0FF00
000FF0FF00
000FF0FF00
0FFFFFFF00
0FFFFFFF00
0FFFFFFF00
0FFFFFFF00
0FFFFFFF00
0FFFFFFF00
0FFFFFFF00
FF0FF00000
FF0FF00000
FF0FF00000
FF0FF00000
FF0FF00000
FF0FF00000
FF0FF00000
0FFFFFFF00
0FFFFFFF00
0FFFFFFF00
0FFFFFFF00
0FFFFFFF00
0FFFFFFF00
0FFFFFFF00
0000000000
0000000000
0000000000
0000000000
0000000000
0000000000
0000000000
0000000000
0000000000
0000000000
0000000000
0000000000
0000000000
0000000000
ENDCHAR
STARTCHAR U+00E5
ENCODING 229
SWIDTH 1000 0
BBX 36 70 0 -14
DWIDTH 36 0
BITMAP
00FFFF0000
00FFFF0000
00FFFF0000
00FFFF0000
00FFFF0000
00FFFF0000
00FFFF0000
0FF00FF000
0FF00FF000
0FF00FF000
0FF00FF000
0FF00FF000
0FF00FF000
0FF00FF000
00FFFF0000
00FFFF0000
00FFFF0000
00FFFF0000
00FFFF0000
00FFFF0000
00FFFF0000
0FFFFFF000
0FFFFFF000
0FFFFFF000
0FFFFFF000
0FFFFFF000
0FFFFFF000
0FFFFFF000
000000FF00
000000FF00
000000FF00
000000FF00
000000FF00
000000FF00
000000FF00
0FFFFFFF00
0FFFFFFF00
0FFFFFFF00
0FFFFFFF00
0FFFFFFF00
0FFFFFFF00
0FFFFFFF00
FF000FFF00
FF000FFF00
FF000FFF00
FF000FFF00
FF000FFF00
FF000FFF00
FF000FFF00
0FFFFFFF00
0FFFFFFF00
0FFFFFFF00
0FFFFFFF00
0FFFFFFF00
0FFFFFFF00
0FFFFFFF00
0000000000
0000000000
0000000000
0000000000
0000000000
0000000000
0000000000
0000000000
0000000000
0000000000
0000000000
0000000000
0000000000
0000000000
ENDCHAR
STARTCHAR U+00E4
ENCODING 228
SWIDTH 1000 0
BBX 36 70 0 -14
DWIDTH 36 0
BITMAP
0000000000
0000000000
0000000000
0000000000
0000000000
0000000000
0000000000
0FF00FF000
0FF00FF000
0FF00FF000
0FF00FF000
0FF00FF000
0FF00FF000
0FF00FF000
0000000000
0000000000
0000000000
0000000000
0000000000
0000000000
0000000000
0FFFFFF000
0FFFFFF000
0FFFFFF000
0FFFFFF000
0FFFFFF000
0FFFFFF000
0FFFFFF000
000000FF00
000000FF00
000000FF00
000000FF00
000000FF00
000000FF00
000000FF00
0FFFFFFF00
0FFFFFFF00
0FFFFFFF00
0FFFFFFF00
0FFFFFFF00
0FFFFFFF00
0FFFFFFF00
FF000FFF00
FF000FFF00
FF000FFF00
FF000FFF00
FF000FFF00
FF000FFF00
FF000FFF00
0FFFFFFF00
0FFFFFFF00
0FFFFFFF00
0FFFFFFF00
0FFFFFFF00
0FFFFFFF00
0FFFFFFF00
0000000000
0000000000
0000000000
0000000000
0000000000
0000000000
0000000000
0000000000
0000000000
0000000000
0000000000
0000000000
0000000000
0000000000
ENDCHAR
STARTCHAR U+00E3
ENCODING 227
SWIDTH 1000 0
BBX 36 70 0 -14
DWIDTH 36 0
BITMAP
00FFF0FF00
00FFF0FF00
00FFF0FF00
00FFF0FF00
00FFF0FF00
00FFF0FF00
00FFF0FF00
0FF0FFF000
0FF0FFF000
0FF0FFF000
0FF0FFF000
0FF0FFF000
0FF0FFF000
0FF0FFF000
0000000000
0000000000
0000000000
0000000000
0000000000
0000000000
0000000000
0FFFFFF000
0FFFFFF000
0FFFFFF000
0FFFFFF000
0FFFFFF000
0FFFFFF000
0FFFFFF000
000000FF00
000000FF00
000000FF00
000000FF00
000000FF00
000000FF00
000000FF00
0FFFFFFF00
0FFFFFFF00
0FFFFFFF00
0FFFFFFF00
0FFFFFFF00
0FFFFFFF00
0FFFFFFF00
FF000FFF00
FF000FFF00
FF000FFF00
FF000FFF00
FF000FFF00
FF000FFF00
FF000FFF00
0FFFFFFF00
0FFFFFFF00
0FFFFFFF00
0FFFFFFF00
0FFFFFFF00
0FFFFFFF00
0FFFFFFF00
0000000000
0000000000
0000000000
0000000000
0000000000
0000000000
0000000000
0000000000
0000000000
0000000000
0000000000
0000000000
0000000000
0000000000
ENDCHAR
STARTCHAR U+00E2
ENCODING 226
SWIDTH 1000 0
BBX 36 70 0 -14
DWIDTH 36 0
BITMAP
00FFFF0000
00FFFF0000
00FFFF0000
00FFFF0000
00FFFF0000
00FFFF0000
00FFFF0000
0FF00FF000
0FF00FF000
0FF00FF000
0FF00FF000
0FF00FF000
0FF00FF000
0FF00FF000
0000000000
0000000000
0000000000
0000000000
0000000000
0000000000
0000000000
0FFFFFF000
0FFFFFF000
0FFFFFF000
0FFFFFF000
0FFFFFF000
0FFFFFF000
0FFFFFF000
000000FF00
000000FF00
000000FF00
000000FF00
000000FF00
000000FF00
000000FF00
0FFFFFFF00
0FFFFFFF00
0FFFFFFF00
0FFFFFFF00
0FFFFFFF00
0FFFFFFF00
0FFFFFFF00
FF000FFF00
FF000FFF00
FF000FFF00
FF000FFF00
FF000FFF00
FF000FFF00
FF000FFF00
0FFFFFFF00
0FFFFFFF00
0FFFFFFF00
0FFFFFFF00
0FFFFFFF00
0FFFFFFF00
0FFFFFFF00
0000000000
0000000000
0000000000
0000000000
0000000000
0000000000
0000000000
0000000000
0000000000
0000000000
0000000000
0000000000
0000000000
0000000000
ENDCHAR
STARTCHAR U+00E1
ENCODING 225
SWIDTH 1000 0
BBX 36 70 0 -14
DWIDTH 36 0
BITMAP
0000000000
0000000000
0000000000
0000000000
0000000000
0000000000
0000000000
000FFF0000
000FFF0000
000FFF0000
000FFF0000
000FFF0000
000FFF0000
000FFF0000
0FFF000000
0FFF000000
0FFF000000
0FFF000000
0FFF000000
0FFF000000
0FFF000000
0FFFFFF000
0FFFFFF000
0FFFFFF000
0FFFFFF000
0FFFFFF000
0FFFFFF000
0FFFFFF000
000000FF00
000000FF00
000000FF00
000000FF00
000000FF00
000000FF00
000000FF00
0FFFFFFF00
0FFFFFFF00
0FFFFFFF00
0FFFFFFF00
0FFFFFFF00
0FFFFFFF00
0FFFFFFF00
FF000FFF00
FF000FFF00
FF000FFF00
FF000FFF00
FF000FFF00
FF000FFF00
FF000FFF00
0FFFFFFF00
0FFFFFFF00
0FFFFFFF00
0FFFFFFF00
0FFFFFFF00
0FFFFFFF00
0FFFFFFF00
0000000000
0000000000
0000000000
0000000000
0000000000
0000000000
0000000000
0000000000
0000000000
0000000000
0000000000
0000000000
0000000000
0000000000
ENDCHAR
STARTCHAR U+00E0
ENCODING 224
SWIDTH 1000 0
BBX 36 70 0 -14
DWIDTH 36 0
BITMAP
0000000000
0000000000
0000000000
0000000000
0000000000
0000000000
0000000000
00FFF00000
00FFF00000
00FFF00000
00FFF00000
00FFF00000
00FFF00000
00FFF00000
0000FFF000
0000FFF000
0000FFF000
0000FFF000
0000FFF000
0000FFF000
0000FFF000
0FFFFFF000
0FFFFFF000
0FFFFFF000
0FFFFFF000
0FFFFFF000
0FFFFFF000
0FFFFFF000
000000FF00
000000FF00
000000FF00
000000FF00
000000FF00
000000FF00
000000FF00
0FFFFFFF00
0FFFFFFF00
0FFFFFFF00
0FFFFFFF00
0FFFFFFF00
0FFFFFFF00
0FFFFFFF00
FF000FFF00
FF000FFF00
FF000FFF00
FF000FFF00
FF000FFF00
FF000FFF00
FF000FFF00
0FFFFFFF00
0FFFFFFF00
0FFFFFFF00
0FFFFFFF00
0FFFFFFF00
0FFFFFFF00
0FFFFFFF00
0000000000
0000000000
0000000000
0000000000
0000000000
0000000000
0000000000
0000000000
0000000000
0000000000
0000000000
0000000000
0000000000
0000000000
ENDCHAR
STARTCHAR U+00DF
ENCODING 223
SWIDTH 1000 0
BBX 36 70 0 -14
DWIDTH 36 0
BITMAP
0000000000
0000000000
0000000000
0000000000
0000000000
0000000000
0000000000
00FFFF0000
00FFFF0000
00FFFF0000
00FFFF0000
00FFFF0000
00FFFF0000
00FFFF0000
0FF00FF000
0FF00FF000
0FF00FF000
0FF00FF000
0FF00FF000
0FF00FF000
0FF00FF000
FF000FF000
FF000FF000
FF000FF000
FF000FF000
FF000FF000
FF000FF000
FF000FF000
FFFFFF0000
FFFFFF0000
FFFFFF0000
FFFFFF0000
FFFFFF0000
FFFFFF0000
FFFFFF0000
FF000FF000
FF000FF000
FF000FF000
FF000FF000
FF000FF000
FF000FF000
FF000FF000
FFFF00FF00
FFFF00FF00
FFFF00FF00
FFFF00FF00
FFFF00FF00
FFFF00FF00
FFFF00FF00
FF0FFFF000
FF0FFFF000
FF0FFFF000
FF0FFFF000
FF0FFFF000
FF0FFFF000
FF0FFFF000
FF00000000
FF00000000
FF00000000
FF00000000
FF00000000
FF00000000
FF00000000
0000000000
0000000000
0000000000
0000000000
0000000000
0000000000
0000000000
ENDCHAR
STARTCHAR U+00DE
ENCODING 222
SWIDTH 1000 0
BBX 36 70 0 -14
DWIDTH 36 0
BITMAP
0000000000
0000000000
0000000000
0000000000
0000000000
0000000000
0000000000
FFFF000000
FFFF000000
FFFF000000
FFFF000000
FFFF000000
FFFF000000
FFFF000000
FF0FF00000
FF0FF00000
FF0FF00000
FF0FF00000
FF0FF00000
FF0FF00000
FF0FF00000
FF0FF00000
FF0FF00000
FF0FF00000
FF0FF00000
FF0FF00000
FF0FF00000
FF0FF00000
FF0FF00000
FF0FF00000
FF0FF00000
FF0FF00000
FF0FF00000
FF0FF00000
FF0FF00000
FFFFFFFF00
FFFFFFFF00
FFFFFFFF00
FFFFFFFF00
FFFFFFFF00
FFFFFFFF00
FFFFFFFF00
000FF00000
000FF00000
000FF00000
000FF00000
000FF00000
000FF00000
000FF00000
000FFFF000
000FFFF000
000FFFF000
000FFFF000
000FFFF000
000FFFF000
000FFFF000
000FF00000
000FF00000
000FF00000
000FF00000
000FF00000
000FF00000
000FF00000
000FFFFF00
000FFFFF00
000FFFFF00
000FFFFF00
000FFFFF00
000FFFFF00
000FFFFF00
ENDCHAR
STARTCHAR U+0178
ENCODING 376
SWIDTH 1000 0
BBX 36 70 0 -14
DWIDTH 36 0
BITMAP
0FF00FF000
0FF00FF000
0FF00FF000
0FF00FF000
0FF00FF000
0FF00FF000
0FF00FF000
0000000000
0000000000
0000000000
0000000000
0000000000
0000000000
0000000000
FF0000FF00
FF0000FF00
FF0000FF00
FF0000FF00
FF0000FF00
FF0000FF00
FF0000FF00
0FF00FF000
0FF00FF000
0FF00FF000
0FF00FF000
0FF00FF000
0FF00FF000
0FF00FF000
00FFFF0000
00FFFF0000
00FFFF0000
00FFFF0000
00FFFF0000
00FFFF0000
00FFFF0000
000FF00000
000FF00000
000FF00000
000FF00000
000FF00000
000FF00000
000FF00000
000FF00000
000FF00000
000FF00000
000FF00000
000FF00000
000FF00000
000FF00000
000FF00000
000FF00000
000FF00000
000FF00000
000FF00000
000FF00000
000FF00000
0000000000
0000000000
0000000000
0000000000
0000000000
0000000000
0000000000
0000000000
0000000000
0000000000
0000000000
0000000000
0000000000
0000000000
ENDCHAR
STARTCHAR U+00DC
ENCODING 220
SWIDTH 1000 0
BBX 36 70 0 -14
DWIDTH 36 0
BITMAP
0FF00FF000
0FF00FF000
0FF00FF000
0FF00FF000
0FF00FF000
0FF00FF000
0FF00FF000
0000000000
0000000000
0000000000
0000000000
0000000000
0000000000
0000000000
FF0000FF00
FF0000FF00
FF0000FF00
FF0000FF00
FF0000FF00
FF0000FF00
FF0000FF00
FF0000FF00
FF0000FF00
FF0000FF00
FF0000FF00
FF0000FF00
FF0000FF00
FF0000FF00
FF0000FF00
FF0000FF00
FF0000FF00
FF0000FF00
FF0000FF00
FF0000FF00
FF0000FF00
FF0000FF00
FF0000FF00
FF0000FF00
FF0000FF00
FF0000FF00
FF0000FF00
FF0000FF00
FF0000FF00
FF0000FF00
FF0000FF00
FF0000FF00
FF0000FF00
FF0000FF00
FF0000FF00
0FFFFFF000
0FFFFFF000
0FFFFFF000
0FFFFFF000
0FFFFFF000
0FFFFFF000
0FFFFFF000
0000000000
0000000000
0000000000
0000000000
0000000000
0000000000
0000000000
0000000000
0000000000
0000000000
0000000000
0000000000
0000000000
0000000000
ENDCHAR
STARTCHAR U+00DB
ENCODING 219
SWIDTH 1000 0
BBX 36 70 0 -14
DWIDTH 36 0
BITMAP
000FF00000
000FF00000
000FF00000
000FF00000
000FF00000
000FF00000
000FF00000
00FFFF0000
00FFFF0000
00FFFF0000
00FFFF0000
00FFFF0000
00FFFF0000
00FFFF0000
FF0000FF00
FF0000FF00
FF0000FF00
FF0000FF00
FF0000FF00
FF0000FF00
FF0000FF00
FF0000FF00
FF0000FF00
FF0000FF00
FF0000FF00
FF0000FF00
FF0000FF00
FF0000FF00
FF0000FF00
FF0000FF00
FF0000FF00
FF0000FF00
FF0000FF00
FF0000FF00
FF0000FF00
FF0000FF00
FF0000FF00
FF0000FF00
FF0000FF00
FF0000FF00
FF0000FF00
FF0000FF00
FF0000FF00
FF0000FF00
FF0000FF00
FF0000FF00
FF0000FF00
FF0000FF00
FF0000FF00
0FFFFFF000
0FFFFFF000
0FFFFFF000
0FFFFFF000
0FFFFFF000
0FFFFFF000
0FFFFFF000
0000000000
0000000000
0000000000
0000000000
0000000000
0000000000
0000000000
0000000000
0000000000
0000000000
0000000000
0000000000
0000000000
0000000000
ENDCHAR
STARTCHAR U+00DA
ENCODING 218
SWIDTH 1000 0
BBX 36 70 0 -14
DWIDTH 36 0
BITMAP
0000FFF000
0000FFF000
0000FFF000
0000FFF000
0000FFF000
0000FFF000
0000FFF000
00FFF00000
00FFF00000
00FFF00000
00FFF00000
00FFF00000
00FFF00000
00FFF00000
FF0000FF00
FF0000FF00
FF0000FF00
FF0000FF00
FF0000FF00
FF0000FF00
FF0000FF00
FF0000FF00
FF0000FF00
FF0000FF00
FF0000FF00
FF0000FF00
FF0000FF00
FF0000FF00
FF0000FF00
FF0000FF00
FF0000FF00
FF0000FF00
FF0000FF00
FF0000FF00
FF0000FF00
FF0000FF00
FF0000FF00
FF0000FF00
FF0000FF00
FF0000FF00
FF0000FF00
FF0000FF00
FF0000FF00
FF0000FF00
FF0000FF00
FF0000FF00
FF0000FF00
FF0000FF00
FF0000FF00
0FFFFFF000
0FFFFFF000
0FFFFFF000
0FFFFFF000
0FFFFFF000
0FFFFFF000
0FFFFFF000
0000000000
0000000000
0000000000
0000000000
0000000000
0000000000
0000000000
0000000000
0000000000
0000000000
0000000000
0000000000
0000000000
0000000000
ENDCHAR
STARTCHAR U+00D9
ENCODING 217
SWIDTH 1000 0
BBX 36 70 0 -14
DWIDTH 36 0
BITMAP
0FFF000000
0FFF000000
0FFF000000
0FFF000000
0FFF000000
0FFF000000
0FFF000000
000FFF0000
000FFF0000
000FFF0000
000FFF0000
000FFF0000
000FFF0000
000FFF0000
FF0000FF00
FF0000FF00
FF0000FF00
FF0000FF00
FF0000FF00
FF0000FF00
FF0000FF00
FF0000FF00
FF0000FF00
FF0000FF00
FF0000FF00
FF0000FF00
FF0000FF00
FF0000FF00
FF0000FF00
FF0000FF00
FF0000FF00
FF0000FF00
FF0000FF00
FF0000FF00
FF0000FF00
FF0000FF00
FF0000FF00
FF0000FF00
FF0000FF00
FF0000FF00
FF0000FF00
FF0000FF00
FF0000FF00
FF0000FF00
FF0000FF00
FF0000FF00
FF0000FF00
FF0000FF00
FF0000FF00
0FFFFFF000
0FFFFFF000
0FFFFFF000
0FFFFFF000
0FFFFFF000
0FFFFFF000
0FFFFFF000
0000000000
0000000000
0000000000
0000000000
0000000000
0000000000
0000000000
0000000000
0000000000
0000000000
0000000000
0000000000
0000000000
0000000000
ENDCHAR
STARTCHAR U+00D8
ENCODING 216
SWIDTH 1000 0
BBX 36 70 0 -14
DWIDTH 36 0
BITMAP
000000FF00
000000FF00
000000FF00
000000FF00
000000FF00
000000FF00
000000FF00
0FFFFFF000
0FFFFFF000
0FFFFFF000
0FFFFFF000
0FFFFFF000
0FFFFFF000
0FFFFFF000
FF000FFF00
FF000FFF00
FF000FFF00
FF000FFF00
FF000FFF00
FF000FFF00
FF000FFF00
FF00FFFF00
FF00FFFF00
FF00FFFF00
FF00FFFF00
FF00FFFF00
FF00FFFF00
FF00FFFF00
FF0FF0FF00
FF0FF0FF00
FF0FF0FF00
FF0FF0FF00
FF0FF0FF00
FF0FF0FF00
FF0FF0FF00
FFFF00FF00
FFFF00FF00
FFFF00FF00
FFFF00FF00
FFFF00FF00
FFFF00FF00
FFFF00FF00
FFF000FF00
FFF000FF00
FFF000FF00
FFF000FF00
FFF000FF00
FFF000FF00
FFF000FF00
0FFFFFF000
0FFFFFF000
0FFFFFF000
0FFFFFF000
0FFFFFF000
0FFFFFF000
0FFFFFF000
FF00000000
FF00000000
FF00000000
FF00000000
FF00000000
FF00000000
FF00000000
0000000000
0000000000
0000000000
0000000000
0000000000
0000000000
0000000000
ENDCHAR
STARTCHAR U+0152
ENCODING 338
SWIDTH 1000 0
BBX 36 70 0 -14
DWIDTH 36 0
BITMAP
0000000000
0000000000
0000000000
0000000000
0000000000
0000000000
0000000000
0FFFFFFF00
0FFFFFFF00
0FFFFFFF00
0FFFFFFF00
0FFFFFFF00
0FFFFFFF00
0FFFFFFF00
FF0FF00000
FF0FF00000
FF0FF00000
FF0FF00000
FF0FF00000
FF0FF00000
FF0FF00000
FF0FF00000
FF0FF00000
FF0FF00000
FF0FF00000
FF0FF00000
FF0FF00000
FF0FF00000
FF0FFFF000
FF0FFFF000
FF0FFFF000
FF0FFFF000
FF0FFFF000
FF0FFFF000
FF0FFFF000
FF0FF00000
FF0FF00000
FF0FF00000
FF0FF00000
FF0FF00000
FF0FF00000
FF0FF00000
FF0FF00000
FF0FF00000
FF0FF00000
FF0FF00000
FF0FF00000
FF0FF00000
FF0FF00000
0FFFFFFF00
0FFFFFFF00
0FFFFFFF00
0FFFFFFF00
0FFFFFFF00
0FFFFFFF00
0FFFFFFF00
0000000000
0000000000
0000000000
0000000000
0000000000
0000000000
0000000000
0000000000
0000000000
0000000000
0000000000
0000000000
0000000000
0000000000
ENDCHAR
STARTCHAR U+00D6
ENCODING 214
SWIDTH 1000 0
BBX 36 70 0 -14
DWIDTH 36 0
BITMAP
0FF00FF000
0FF00FF000
0FF00FF000
0FF00FF000
0FF00FF000
0FF00FF000
0FF00FF000
0000000000
0000000000
0000000000
0000000000
0000000000
0000000000
0000000000
0FFFFFF000
0FFFFFF000
0FFFFFF000
0FFFFFF000
0FFFFFF000
0FFFFFF000
0FFFFFF000
FF0000FF00
FF0000FF00
FF0000FF00
FF0000FF00
FF0000FF00
FF0000FF00
FF0000FF00
FF0000FF00
FF0000FF00
FF0000FF00
FF0000FF00
FF0000FF00
FF0000FF00
FF0000FF00
FF0000FF00
FF0000FF00
FF0000FF00
FF0000FF00
FF0000FF00
FF0000FF00
FF0000FF00
FF0000FF00
FF0000FF00
FF0000FF00
FF0000FF00
FF0000FF00
FF0000FF00
FF0000FF00
0FFFFFF000
0FFFFFF000
0FFFFFF000
0FFFFFF000
0FFFFFF000
0FFFFFF000
0FFFFFF000
0000000000
0000000000
0000000000
0000000000
0000000000
0000000000
0000000000
0000000000
0000000000
0000000000
0000000000
0000000000
0000000000
0000000000
ENDCHAR
STARTCHAR U+00D5
ENCODING 213
SWIDTH 1000 0
BBX 36 70 0 -14
DWIDTH 36 0
BITMAP
0FFF0FF000
0FFF0FF000
0FFF0FF000
0FFF0FF000
0FFF0FF000
0FFF0FF000
0FFF0FF000
FF0FFF0000
FF0FFF0000
FF0FFF0000
FF0FFF0000
FF0FFF0000
FF0FFF0000
FF0FFF0000
0FFFFFF000
0FFFFFF000
0FFFFFF000
0FFFFFF000
0FFFFFF000
0FFFFFF000
0FFFFFF000
FF0000FF00
FF0000FF00
FF0000FF00
FF0000FF00
FF0000FF00
FF0000FF00
FF0000FF00
FF0000FF00
FF0000FF00
FF0000FF00
FF0000FF00
FF0000FF00
FF0000FF00
FF0000FF00
FF0000FF00
FF0000FF00
FF0000FF00
FF0000FF00
FF0000FF00
FF0000FF00
FF0000FF00
FF0000FF00
FF0000FF00
FF0000FF00
FF0000FF00
FF0000FF00
FF0000FF00
FF0000FF00
0FFFFFF000
0FFFFFF000
0FFFFFF000
0FFFFFF000
0FFFFFF000
0FFFFFF000
0FFFFFF000
0000000000
0000000000
0000000000
0000000000
0000000000
0000000000
0000000000
0000000000
0000000000
0000000000
0000000000
0000000000
0000000000
0000000000
ENDCHAR
STARTCHAR U+00D4
ENCODING 212
SWIDTH 1000 0
BBX 36 70 0 -14
DWIDTH 36 0
BITMAP
00FFFF0000
00FFFF0000
00FFFF0000
00FFFF0000
00FFFF0000
00FFFF0000
00FFFF0000
0FF00FF000
0FF00FF000
0FF00FF000
0FF00FF000
0FF00FF000
0FF00FF000
0FF00FF000
0FFFFFF000
0FFFFFF000
0FFFFFF000
0FFFFFF000
0FFFFFF000
0FFFFFF000
0FFFFFF000
FF0000FF00
FF0000FF00
FF0000FF00
FF0000FF00
FF0000FF00
FF0000FF00
FF0000FF00
FF0000FF00
FF0000FF00
FF0000FF00
FF0000FF00
FF0000FF00
FF0000FF00
FF0000FF00
FF0000FF00
FF0000FF00
FF0000FF00
FF0000FF00
FF0000FF00
FF0000FF00
FF0000FF00
FF0000FF00
FF0000FF00
FF0000FF00
FF0000FF00
FF0000FF00
FF0000FF00
FF0000FF00
0FFFFFF000
0FFFFFF000
0FFFFFF000
0FFFFFF000
0FFFFFF000
0FFFFFF000
0FFFFFF000
0000000000
0000000000
0000000000
0000000000
0000000000
0000000000
0000000000
0000000000
0000000000
0000000000
0000000000
0000000000
0000000000
0000000000
ENDCHAR
STARTCHAR U+00D3
ENCODING 211
SWIDTH 1000 0
BBX 36 70 0 -14
DWIDTH 36 0
BITMAP
000FFF0000
000FFF0000
000FFF0000
000FFF0000
000FFF0000
000FFF0000
000FFF0000
0FFF000000
0FFF000000
0FFF000000
0FFF000000
0FFF000000
0FFF000000
0FFF000000
0FFFFFF000
0FFFFFF000
0FFFFFF000
0FFFFFF000
0FFFFFF000
0FFFFFF000
0FFFFFF000
FF0000FF00
FF0000FF00
FF0000FF00
FF0000FF00
FF0000FF00
FF0000FF00
FF0000FF00
FF0000FF00
FF0000FF00
FF0000FF00
FF0000FF00
FF0000FF00
FF0000FF00
FF0000FF00
FF0000FF00
FF0000FF00
FF0000FF00
FF0000FF00
FF0000FF00
FF0000FF00
FF0000FF00
FF0000FF00
FF0000FF00
FF0000FF00
FF0000FF00
FF0000FF00
FF0000FF00
FF0000FF00
0FFFFFF000
0FFFFFF000
0FFFFFF000
0FFFFFF000
0FFFFFF000
0FFFFFF000
0FFFFFF000
0000000000
0000000000
0000000000
0000000000
0000000000
0000000000
0000000000
0000000000
0000000000
0000000000
0000000000
0000000000
0000000000
0000000000
ENDCHAR
STARTCHAR U+00D2
ENCODING 210
SWIDTH 1000 0
BBX 36 70 0 -14
DWIDTH 36 0
BITMAP
00FFF00000
00FFF00000
00FFF00000
00FFF00000
00FFF00000
00FFF00000
00FFF00000
0000FFF000
0000FFF000
0000FFF000
0000FFF000
0000FFF000
0000FFF000
0000FFF000
0FFFFFF000
0FFFFFF000
0FFFFFF000
0FFFFFF000
0FFFFFF000
0FFFFFF000
0FFFFFF000
FF0000FF00
FF0000FF00
FF0000FF00
FF0000FF00
FF0000FF00
FF0000FF00
FF0000FF00
FF0000FF00
FF0000FF00
FF0000FF00
FF0000FF00
FF0000FF00
FF0000FF00
FF0000FF00
FF0000FF00
FF0000FF00
FF0000FF00
FF0000FF00
FF0000FF00
FF0000FF00
FF0000FF00
FF0000FF00
FF0000FF00
FF0000FF00
FF0000FF00
FF0000FF00
FF0000FF00
FF0000FF00
0FFFFFF000
0FFFFFF000
0FFFFFF000
0FFFFFF000
0FFFFFF000
0FFFFFF000
0FFFFFF000
0000000000
0000000000
0000000000
0000000000
0000000000
0000000000
0000000000
0000000000
0000000000
0000000000
0000000000
0000000000
0000000000
0000000000
ENDCHAR
STARTCHAR U+00D1
ENCODING 209
SWIDTH 1000 0
BBX 36 70 0 -14
DWIDTH 36 0
BITMAP
00FFF0FF00
00FFF0FF00
00FFF0FF00
00FFF0FF00
00FFF0FF00
00FFF0FF00
00FFF0FF00
0FF0FFF000
0FF0FFF000
0FF0FFF000
0FF0FFF000
0FF0FFF000
0FF0FFF000
0FF0FFF000
FFF000FF00
FFF000FF00
FFF000FF00
FFF000FF00
FFF000FF00
FFF000FF00
FFF000FF00
FFFF00FF00
FFFF00FF00
FFFF00FF00
FFFF00FF00
FFFF00FF00
FFFF00FF00
FFFF00FF00
FF0FF0FF00
FF0FF0FF00
FF0FF0FF00
FF0FF0FF00
FF0FF0FF00
FF0FF0FF00
FF0FF0FF00
FF00FFFF00
FF00FFFF00
FF00FFFF00
FF00FFFF00
FF00FFFF00
FF00FFFF00
FF00FFFF00
FF000FFF00
FF000FFF00
FF000FFF00
FF000FFF00
FF000FFF00
FF000FFF00
FF000FFF00
FF0000FF00
FF0000FF00
FF0000FF00
FF0000FF00
FF0000FF00
FF0000FF00
FF0000FF00
0000000000
0000000000
0000000000
0000000000
0000000000
0000000000
0000000000
0000000000
0000000000
0000000000
0000000000
0000000000
0000000000
0000000000
ENDCHAR
STARTCHAR U+00D0
ENCODING 208
SWIDTH 1000 0
BBX 36 70 0 -14
DWIDTH 36 0
BITMAP
0000000000
0000000000
0000000000
0000000000
0000000000
0000000000
0000000000
FFFF000000
FFFF000000
FFFF000000
FFFF000000
FFFF000000
FFFF000000
FFFF000000
FF0FF00000
FF0FF00000
FF0FF00000
FF0FF00000
FF0FF00000
FF0FF00000
FF0FF00000
FF0FF00000
FF0FF00000
FF0FF00000
FF0FF00000
FF0FF00000
FF0FF00000
FF0FF00000
FF0FF00000
FF0FF00000
FF0FF00000
FF0FF00000
FF0FF00000
FF0FF00000
FF0FF00000
FFFFFFF000
FFFFFFF000
FFFFFFF000
FFFFFFF000
FFFFFFF000
FFFFFFF000
FFFFFFF000
000FF0FF00
000FF0FF00
000FF0FF00
000FF0FF00
000FF0FF00
000FF0FF00
000FF0FF00
000FF0FF00
000FF0FF00
000FF0FF00
000FF0FF00
000FF0FF00
000FF0FF00
000FF0FF00
000FF0FF00
000FF0FF00
000FF0FF00
000FF0FF00
000FF0FF00
000FF0FF00
000FF0FF00
0000FFF000
0000FFF000
0000FFF000
0000FFF000
0000FFF000
0000FFF000
0000FFF000
ENDCHAR
STARTCHAR U+00CF
ENCODING 207
SWIDTH 1000 0
BBX 36 70 0 -14
DWIDTH 36 0
BITMAP
0FF00FF000
0FF00FF000
0FF00FF000
0FF00FF000
0FF00FF000
0FF00FF000
0FF00FF000
0000000000
0000000000
0000000000
0000000000
0000000000
0000000000
0000000000
0FFFFFF000
0FFFFFF000
0FFFFFF000
0FFFFFF000
0FFFFFF000
0FFFFFF000
0FFFFFF000
000FF00000
000FF00000
000FF00000
000FF00000
000FF00000
000FF00000
000FF00000
000FF00000
000FF00000
000FF00000
000FF00000
000FF00000
000FF00000
000FF00000
000FF00000
000FF00000
000FF00000
000FF00000
000FF00000
000FF00000
000FF00000
000FF00000
000FF00000
000FF00000
000FF00000
000FF00000
000FF00000
000FF00000
0FFFFFF000
0FFFFFF000
0FFFFFF000
0FFFFFF000
0FFFFFF000
0FFFFFF000
0FFFFFF000
0000000000
0000000000
0000000000
0000000000
0000000000
0000000000
0000000000
0000000000
0000000000
0000000000
0000000000
0000000000
0000000000
0000000000
ENDCHAR
STARTCHAR U+00CE
ENCODING 206
SWIDTH 1000 0
BBX 36 70 0 -14
DWIDTH 36 0
BITMAP
00FFFF0000
00FFFF0000
00FFFF0000
00FFFF0000
00FFFF0000
00FFFF0000
00FFFF0000
0FF00FF000
0FF00FF000
0FF00FF000
0FF00FF000
0FF00FF000
0FF00FF000
0FF00FF000
0FFFFFF000
0FFFFFF000
0FFFFFF000
0FFFFFF000
0FFFFFF000
0FFFFFF000
0FFFFFF000
000FF00000
000FF00000
000FF00000
000FF00000
000FF00000
000FF00000
000FF00000
000FF00000
000FF00000
000FF00000
000FF00000
000FF00000
000FF00000
000FF00000
000FF00000
000FF00000
000FF00000
000FF00000
000FF00000
000FF00000
000FF00000
000FF00000
000FF00000
000FF00000
000FF00000
000FF00000
000FF00000
000FF00000
0FFFFFF000
0FFFFFF000
0FFFFFF000
0FFFFFF000
0FFFFFF000
0FFFFFF000
0FFFFFF000
0000000000
0000000000
0000000000
0000000000
0000000000
0000000000
0000000000
0000000000
0000000000
0000000000
0000000000
0000000000
0000000000
0000000000
ENDCHAR
STARTCHAR U+00CD
ENCODING 205
SWIDTH 1000 0
BBX 36 70 0 -14
DWIDTH 36 0
BITMAP
000FFF0000
000FFF0000
000FFF0000
000FFF0000
000FFF0000
000FFF0000
000FFF0000
0FFF000000
0FFF000000
0FFF000000
0FFF000000
0FFF000000
0FFF000000
0FFF000000
0FFFFFF000
0FFFFFF000
0FFFFFF000
0FFFFFF000
0FFFFFF000
0FFFFFF000
0FFFFFF000
000FF00000
000FF00000
000FF00000
000FF00000
000FF00000
000FF00000
000FF00000
000FF00000
000FF00000
000FF00000
000FF00000
000FF00000
000FF00000
000FF00000
000FF00000
000FF00000
000FF00000
000FF00000
000FF00000
000FF00000
000FF00000
000FF00000
000FF00000
000FF00000
000FF00000
000FF00000
000FF00000
000FF00000
0FFFFFF000
0FFFFFF000
0FFFFFF000
0FFFFFF000
0FFFFFF000
0FFFFFF000
0FFFFFF000
0000000000
0000000000
0000000000
0000000000
0000000000
0000000000
0000000000
0000000000
0000000000
0000000000
0000000000
0000000000
0000000000
0000000000
ENDCHAR
STARTCHAR U+00CC
ENCODING 204
SWIDTH 1000 0
BBX 36 70 0 -14
DWIDTH 36 0
BITMAP
00FFF00000
00FFF00000
00FFF00000
00FFF00000
00FFF00000
00FFF00000
00FFF00000
0000FFF000
0000FFF000
0000FFF000
0000FFF000
0000FFF000
0000FFF000
0000FFF000
0FFFFFF000
0FFFFFF000
0FFFFFF000
0FFFFFF000
0FFFFFF000
0FFFFFF000
0FFFFFF000
000FF00000
000FF00000
000FF00000
000FF00000
000FF00000
000FF00000
000FF00000
000FF00000
000FF00000
000FF00000
000FF00000
000FF00000
000FF00000
000FF00000
000FF00000
000FF00000
000FF00000
000FF00000
000FF00000
000FF00000
000FF00000
000FF00000
000FF00000
000FF00000
000FF00000
000FF00000
000FF00000
000FF00000
0FFFFFF000
0FFFFFF000
0FFFFFF000
0FFFFFF000
0FFFFFF000
0FFFFFF000
0FFFFFF000
0000000000
0000000000
0000000000
0000000000
0000000000
0000000000
0000000000
0000000000
0000000000
0000000000
0000000000
0000000000
0000000000
0000000000
ENDCHAR
STARTCHAR U+00CB
ENCODING 203
SWIDTH 1000 0
BBX 36 70 0 -14
DWIDTH 36 0
BITMAP
0FF00FF000
0FF00FF000
0FF00FF000
0FF00FF000
0FF00FF000
0FF00FF000
0FF00FF000
0000000000
0000000000
0000000000
0000000000
0000000000
0000000000
0000000000
FFFFFFFF00
FFFFFFFF00
FFFFFFFF00
FFFFFFFF00
FFFFFFFF00
FFFFFFFF00
FFFFFFFF00
FF00000000
FF00000000
FF00000000
FF00000000
FF00000000
FF00000000
FF00000000
FFFFFF0000
FFFFFF0000
FFFFFF0000
FFFFFF0000
FFFFFF0000
FFFFFF0000
FFFFFF0000
FF00000000
FF00000000
FF00000000
FF00000000
FF00000000
FF00000000
FF00000000
FF00000000
FF00000000
FF00000000
FF00000000
FF00000000
FF00000000
FF00000000
FFFFFFFF00
FFFFFFFF00
FFFFFFFF00
FFFFFFFF00
FFFFFFFF00
FFFFFFFF00
FFFFFFFF00
0000000000
0000000000
0000000000
0000000000
0000000000
0000000000
0000000000
0000000000
0000000000
0000000000
0000000000
0000000000
0000000000
0000000000
ENDCHAR
STARTCHAR U+00CA
ENCODING 202
SWIDTH 1000 0
BBX 36 70 0 -14
DWIDTH 36 0
BITMAP
00FFFF0000
00FFFF0000
00FFFF0000
00FFFF0000
00FFFF0000
00FFFF0000
00FFFF0000
0FF00FF000
0FF00FF000
0FF00FF000
0FF00FF000
0FF00FF000
0FF00FF000
0FF00FF000
FFFFFFFF00
FFFFFFFF00
FFFFFFFF00
FFFFFFFF00
FFFFFFFF00
FFFFFFFF00
FFFFFFFF00
FF00000000
FF00000000
FF00000000
FF00000000
FF00000000
FF00000000
FF00000000
FFFFF00000
FFFFF00000
FFFFF00000
FFFFF00000
FFFFF00000
FFFFF00000
FFFFF00000
FF00000000
FF00000000
FF00000000
FF00000000
FF00000000
FF00000000
FF00000000
FF00000000
FF00000000
FF00000000
FF00000000
FF00000000
FF00000000
FF00000000
FFFFFFFF00
FFFFFFFF00
FFFFFFFF00
FFFFFFFF00
FFFFFFFF00
FFFFFFFF00
FFFFFFFF00
0000000000
0000000000
0000000000
0000000000
0000000000
0000000000
0000000000
0000000000
0000000000
0000000000
0000000000
0000000000
0000000000
0000000000
ENDCHAR
STARTCHAR U+00C9
ENCODING 201
SWIDTH 1000 0
BBX 36 70 0 -14
DWIDTH 36 0
BITMAP
0000FFF000
0000FFF000
0000FFF000
0000FFF000
0000FFF000
0000FFF000
0000FFF000
00FFF00000
00FFF00000
00FFF00000
00FFF00000
00FFF00000
00FFF00000
00FFF00000
FFFFFFFF00
FFFFFFFF00
FFFFFFFF00
FFFFFFFF00
FFFFFFFF00
FFFFFFFF00
FFFFFFFF00
FF00000000
FF00000000
FF00000000
FF00000000
FF00000000
FF00000000
FF00000000
FFFFFF0000
FFFFFF0000
FFFFFF0000
FFFFFF0000
FFFFFF0000
FFFFFF0000
FFFFFF0000
FF00000000
FF00000000
FF00000000
FF00000000
FF00000000
FF00000000
FF00000000
FF00000000
FF00000000
FF00000000
FF00000000
FF00000000
FF00000000
FF00000000
FFFFFFFF00
FFFFFFFF00
FFFFFFFF00
FFFFFFFF00
FFFFFFFF00
FFFFFFFF00
FFFFFFFF00
0000000000
0000000000
0000000000
0000000000
0000000000
0000000000
0000000000
0000000000
0000000000
0000000000
0000000000
0000000000
0000000000
0000000000
ENDCHAR
STARTCHAR U+00C8
ENCODING 200
SWIDTH 1000 0
BBX 36 70 0 -14
DWIDTH 36 0
BITMAP
0FFF000000
0FFF000000
0FFF000000
0FFF000000
0FFF000000
0FFF000000
0FFF000000
000FFF0000
000FFF0000
000FFF0000
000FFF0000
000FFF0000
000FFF0000
000FFF0000
FFFFFFFF00
FFFFFFFF00
FFFFFFFF00
FFFFFFFF00
FFFFFFFF00
FFFFFFFF00
FFFFFFFF00
FF00000000
FF00000000
FF00000000
FF00000000
FF00000000
FF00000000
FF00000000
FFFFFF0000
FFFFFF0000
FFFFFF0000
FFFFFF0000
FFFFFF0000
FFFFFF0000
FFFFFF0000
FF00000000
FF00000000
FF00000000
FF00000000
FF00000000
FF00000000
FF00000000
FF00000000
FF00000000
FF00000000
FF00000000
FF00000000
FF00000000
FF00000000
FFFFFFFF00
FFFFFFFF00
FFFFFFFF00
FFFFFFFF00
FFFFFFFF00
FFFFFFFF00
FFFFFFFF00
0000000000
0000000000
0000000000
0000000000
0000000000
0000000000
0000000000
0000000000
0000000000
0000000000
0000000000
0000000000
0000000000
0000000000
ENDCHAR
STARTCHAR U+00C7
ENCODING 199
SWIDTH 1000 0
BBX 36 70 0 -14
DWIDTH 36 0
BITMAP
0000000000
0000000000
0000000000
0000000000
0000000000
0000000000
0000000000
00FFFFF000
00FFFFF000
00FFFFF000
00FFFFF000
00FFFFF000
00FFFFF000
00FFFFF000
0FF000FF00
0FF000FF00
0FF000FF00
0FF000FF00
0FF000FF00
0FF000FF00
0FF000FF00
FF00000000
FF00000000
FF00000000
FF00000000
FF00000000
FF00000000
FF00000000
FF00000000
FF00000000
FF00000000
FF00000000
FF00000000
FF00000000
FF00000000
FF00000000
FF00000000
FF00000000
FF00000000
FF00000000
FF00000000
FF00000000
0FF000FF00
0FF000FF00
0FF000FF00
0FF000FF00
0FF000FF00
0FF000FF00
0FF000FF00
00FFFFF000
00FFFFF000
00FFFFF000
00FFFFF000
00FFFFF000
00FFFFF000
00FFFFF000
0000FF0000
0000FF0000
0000FF0000
0000FF0000
0000FF0000
0000FF0000
0000FF0000
00FFFF0000
00FFFF0000
00FFFF0000
00FFFF0000
00FFFF0000
00FFFF0000
00FFFF0000
ENDCHAR
STARTCHAR U+00C6
ENCODING 198
SWIDTH 1000 0
BBX 36 70 0 -14
DWIDTH 36 0
BITMAP
0000000000
0000000000
0000000000
0000000000
0000000000
0000000000
0000000000
00FFFFFF00
00FFFFFF00
00FFFFFF00
00FFFFFF00
00FFFFFF00
00FFFFFF00
00FFFFFF00
0FFFF00000
0FFFF00000
0FFFF00000
0FFFF00000
0FFFF00000
0FFFF00000
0FFFF00000
FF0FF00000
FF0FF00000
FF0FF00000
FF0FF00000
FF0FF00000
FF0FF00000
FF0FF00000
FF0FFFF000
FF0FFFF000
FF0FFFF000
FF0FFFF000
FF0FFFF000
FF0FFFF000
FF0FFFF000
FFFFF00000
FFFFF00000
FFFFF00000
FFFFF00000
FFFFF00000
FFFFF00000
FFFFF00000
FF0FF00000
FF0FF00000
FF0FF00000
FF0FF00000
FF0FF00000
FF0FF00000
FF0FF00000
FF0FFFFF00
FF0FFFFF00
FF0FFFFF00
FF0FFFFF00
FF0FFFFF00
FF0FFFFF00
FF0FFFFF00
0000000000
0000000000
0000000000
0000000000
0000000000
0000000000
0000000000
0000000000
0000000000
0000000000
0000000000
0000000000
0000000000
0000000000
ENDCHAR
STARTCHAR U+00C5
ENCODING 197
SWIDTH 1000 0
BBX 36 70 0 -14
DWIDTH 36 0
BITMAP
00FFFF0000
00FFFF0000
00FFFF0000
00FFFF0000
00FFFF0000
00FFFF0000
00FFFF0000
0FF00FF000
0FF00FF000
0FF00FF000
0FF00FF000
0FF00FF000
0FF00FF000
0FF00FF000
00FFFF0000
00FFFF0000
00FFFF0000
00FFFF0000
00FFFF0000
00FFFF0000
00FFFF0000
00FFFF0000
00FFFF0000
00FFFF0000
00FFFF0000
00FFFF0000
00FFFF0000
00FFFF0000
0FF00FF000
0FF00FF000
0FF00FF000
0FF00FF000
0FF00FF000
0FF00FF000
0FF00FF000
FFFFFFFF00
FFFFFFFF00
FFFFFFFF00
FFFFFFFF00
FFFFFFFF00
FFFFFFFF00
FFFFFFFF00
FF0000FF00
FF0000FF00
FF0000FF00
FF0000FF00
FF0000FF00
FF0000FF00
FF0000FF00
FF0000FF00
FF0000FF00
FF0000FF00
FF0000FF00
FF0000FF00
FF0000FF00
FF0000FF00
0000000000
0000000000
0000000000
0000000000
0000000000
0000000000
0000000000
0000000000
0000000000
0000000000
0000000000
0000000000
0000000000
0000000000
ENDCHAR
STARTCHAR U+00C4
ENCODING 196
SWIDTH 1000 0
BBX 36 70 0 -14
DWIDTH 36 0
BITMAP
0FF00FF000
0FF00FF000
0FF00FF000
0FF00FF000
0FF00FF000
0FF00FF000
0FF00FF000
0000000000
0000000000
0000000000
0000000000
0000000000
0000000000
0000000000
000FF00000
000FF00000
000FF00000
000FF00000
000FF00000
000FF00000
000FF00000
00FFFF0000
00FFFF0000
00FFFF0000
00FFFF0000
00FFFF0000
00FFFF0000
00FFFF0000
0FF00FF000
0FF00FF000
0FF00FF000
0FF00FF000
0FF00FF000
0FF00FF000
0FF00FF000
FFFFFFFF00
FFFFFFFF00
FFFFFFFF00
FFFFFFFF00
FFFFFFFF00
FFFFFFFF00
FFFFFFFF00
FF0000FF00
FF0000FF00
FF0000FF00
FF0000FF00
FF0000FF00
FF0000FF00
FF0000FF00
FF0000FF00
FF0000FF00
FF0000FF00
FF0000FF00
FF0000FF00
FF0000FF00
FF0000FF00
0000000000
0000000000
0000000000
0000000000
0000000000
0000000000
0000000000
0000000000
0000000000
0000000000
0000000000
0000000000
0000000000
0000000000
ENDCHAR
STARTCHAR U+00C3
ENCODING 195
SWIDTH 1000 0
BBX 36 70 0 -14
DWIDTH 36 0
BITMAP
00FFF0FF00
00FFF0FF00
00FFF0FF00
00FFF0FF00
00FFF0FF00
00FFF0FF00
00FFF0FF00
0FF0FFF000
0FF0FFF000
0FF0FFF000
0FF0FFF000
0FF0FFF000
0FF0FFF000
0FF0FFF000
000FF00000
000FF00000
000FF00000
000FF00000
000FF00000
000FF00000
000FF00000
00FFFF0000
00FFFF0000
00FFFF0000
00FFFF0000
00FFFF0000
00FFFF0000
00FFFF0000
0FF00FF000
0FF00FF000
0FF00FF000
0FF00FF000
0FF00FF000
0FF00FF000
0FF00FF000
FFFFFFFF00
FFFFFFFF00
FFFFFFFF00
FFFFFFFF00
FFFFFFFF00
FFFFFFFF00
FFFFFFFF00
FF0000FF00
FF0000FF00
FF0000FF00
FF0000FF00
FF0000FF00
FF0000FF00
FF0000FF00
FF0000FF00
FF0000FF00
FF0000FF00
FF0000FF00
FF0000FF00
FF0000FF00
FF0000FF00
0000000000
0000000000
0000000000
0000000000
0000000000
0000000000
0000000000
0000000000
0000000000
0000000000
0000000000
0000000000
0000000000
0000000000
ENDCHAR
STARTCHAR U+00C2
ENCODING 194
SWIDTH 1000 0
BBX 36 70 0 -14
DWIDTH 36 0
BITMAP
00FFFF0000
00FFFF0000
00FFFF0000
00FFFF0000
00FFFF0000
00FFFF0000
00FFFF0000
0FF00FF000
0FF00FF000
0FF00FF000
0FF00FF000
0FF00FF000
0FF00FF000
0FF00FF000
000FF00000
000FF00000
000FF00000
000FF00000
000FF00000
000FF00000
000FF00000
00FFFF0000
00FFFF0000
00FFFF0000
00FFFF0000
00FFFF0000
00FFFF0000
00FFFF0000
0FF00FF000
0FF00FF000
0FF00FF000
0FF00FF000
0FF00FF000
0FF00FF000
0FF00FF000
FFFFFFFF00
FFFFFFFF00
FFFFFFFF00
FFFFFFFF00
FFFFFFFF00
FFFFFFFF00
FFFFFFFF00
FF0000FF00
FF0000FF00
FF0000FF00
FF0000FF00
FF0000FF00
FF0000FF00
FF0000FF00
FF0000FF00
FF0000FF00
FF0000FF00
FF0000FF00
FF0000FF00
FF0000FF00
FF0000FF00
0000000000
0000000000
0000000000
0000000000
0000000000
0000000000
0000000000
0000000000
0000000000
0000000000
0000000000
0000000000
0000000000
0000000000
ENDCHAR
STARTCHAR U+00C1
ENCODING 193
SWIDTH 1000 0
BBX 36 70 0 -14
DWIDTH 36 0
BITMAP
000FFF0000
000FFF0000
000FFF0000
000FFF0000
000FFF0000
000FFF0000
000FFF0000
0FFF000000
0FFF000000
0FFF000000
0FFF000000
0FFF000000
0FFF000000
0FFF000000
000FF00000
000FF00000
000FF00000
000FF00000
000FF00000
000FF00000
000FF00000
00FFFF0000
00FFFF0000
00FFFF0000
00FFFF0000
00FFFF0000
00FFFF0000
00FFFF0000
0FF00FF000
0FF00FF000
0FF00FF000
0FF00FF000
0FF00FF000
0FF00FF000
0FF00FF000
FFFFFFFF00
FFFFFFFF00
FFFFFFFF00
FFFFFFFF00
FFFFFFFF00
FFFFFFFF00
FFFFFFFF00
FF0000FF00
FF0000FF00
FF0000FF00
FF0000FF00
FF0000FF00
FF0000FF00
FF0000FF00
FF0000FF00
FF0000FF00
FF0000FF00
FF0000FF00
FF0000FF00
FF0000FF00
FF0000FF00
0000000000
0000000000
0000000000
0000000000
0000000000
0000000000
0000000000
0000000000
0000000000
0000000000
0000000000
0000000000
0000000000
0000000000
ENDCHAR
STARTCHAR U+00C0
ENCODING 192
SWIDTH 1000 0
BBX 36 70 0 -14
DWIDTH 36 0
BITMAP
00FFF00000
00FFF00000
00FFF00000
00FFF00000
00FFF00000
00FFF00000
00FFF00000
0000FFF000
0000FFF000
0000FFF000
0000FFF000
0000FFF000
0000FFF000
0000FFF000
000FF00000
000FF00000
000FF00000
000FF00000
000FF00000
000FF00000
000FF00000
00FFFF0000
00FFFF0000
00FFFF0000
00FFFF0000
00FFFF0000
00FFFF0000
00FFFF0000
0FF00FF000
0FF00FF000
0FF00FF000
0FF00FF000
0FF00FF000
0FF00FF000
0FF00FF000
FFFFFFFF00
FFFFFFFF00
FFFFFFFF00
FFFFFFFF00
FFFFFFFF00
FFFFFFFF00
FFFFFFFF00
FF0000FF00
FF0000FF00
FF0000FF00
FF0000FF00
FF0000FF00
FF0000FF00
FF0000FF00
FF0000FF00
FF0000FF00
FF0000FF00
FF0000FF00
FF0000FF00
FF0000FF00
FF0000FF00
0000000000
0000000000
0000000000
0000000000
0000000000
0000000000
0000000000
0000000000
0000000000
0000000000
0000000000
0000000000
0000000000
0000000000
ENDCHAR
STARTCHAR U+00BF
ENCODING 191
SWIDTH 1000 0
BBX 36 70 0 -14
DWIDTH 36 0
BITMAP
0000000000
0000000000
0000000000
0000000000
0000000000
0000000000
0000000000
000FF00000
000FF00000
000FF00000
000FF00000
000FF00000
000FF00000
000FF00000
0000000000
0000000000
0000000000
0000000000
0000000000
0000000000
0000000000
000FF00000
000FF00000
000FF00000
000FF00000
000FF00000
000FF00000
000FF00000
000FF00000
000FF00000
000FF00000
000FF00000
000FF00000
000FF00000
000FF00000
0FFF000000
0FFF000000
0FFF000000
0FFF000000
0FFF000000
0FFF000000
0FFF000000
FF0000FF00
FF0000FF00
FF0000FF00
FF0000FF00
FF0000FF00
FF0000FF00
FF0000FF00
0FFFFFF000
0FFFFFF000
0FFFFFF000
0FFFFFF000
0FFFFFF000
0FFFFFF000
0FFFFFF000
0000000000
0000000000
0000000000
0000000000
0000000000
0000000000
0000000000
0000000000
0000000000
0000000000
0000000000
0000000000
0000000000
0000000000
ENDCHAR
STARTCHAR U+00BE
ENCODING 190
SWIDTH 1000 0
BBX 36 70 0 -14
DWIDTH 36 0
BITMAP
0000000000
0000000000
0000000000
0000000000
0000000000
0000000000
0000000000
FFFF000000
FFFF000000
FFFF000000
FFFF000000
FFFF000000
FFFF000000
FFFF000000
FF0FF00000
FF0FF00000
FF0FF00000
FF0FF00000
FF0FF00000
FF0FF00000
FF0FF00000
FFFF000000
FFFF000000
FFFF000000
FFFF000000
FFFF000000
FFFF000000
FFFF000000
FF0FF00000
FF0FF00000
FF0FF00000
FF0FF00000
FF0FF00000
FF0FF00000
FF0FF00000
FFFFFFFF00
FFFFFFFF00
FFFFFFFF00
FFFFFFFF00
FFFFFFFF00
FFFFFFFF00
FFFFFFFF00
000FF00000
000FF00000
000FF00000
000FF00000
000FF00000
000FF00000
000FF00000
000FFFF000
000FFFF000
000FFFF000
000FFFF000
000FFFF000
000FFFF000
000FFFF000
000FF00000
000FF00000
000FF00000
000FF00000
000FF00000
000FF00000
000FF00000
000FFFFF00
000FFFFF00
000FFFFF00
000FFFFF00
000FFFFF00
000FFFFF00
000FFFFF00
ENDCHAR
STARTCHAR U+00BD
ENCODING 189
SWIDTH 1000 0
BBX 36 70 0 -14
DWIDTH 36 0
BITMAP
0000000000
0000000000
0000000000
0000000000
0000000000
0000000000
0000000000
0FF0000000
0FF0000000
0FF0000000
0FF0000000
0FF0000000
0FF0000000
0FF0000000
FFF00FF000
FFF00FF000
FFF00FF000
FFF00FF000
FFF00FF000
FFF00FF000
FFF00FF000
0FF0FF0000
0FF0FF0000
0FF0FF0000
0FF0FF0000
0FF0FF0000
0FF0FF0000
0FF0FF0000
0FFFF00000
0FFFF00000
0FFFF00000
0FFFF00000
0FFFF00000
0FFFF00000
0FFFF00000
00FFFFF000
00FFFFF000
00FFFFF000
00FFFFF000
00FFFFF000
00FFFFF000
00FFFFF000
0FFFF0FF00
0FFFF0FF00
0FFFF0FF00
0FFFF0FF00
0FFFF0FF00
0FFFF0FF00
0FFFF0FF00
FF000FF000
FF000FF000
FF000FF000
FF000FF000
FF000FF000
FF000FF000
FF000FF000
0000FF0000
0000FF0000
0000FF0000
0000FF0000
0000FF0000
0000FF0000
0000FF0000
000FFFFF00
000FFFFF00
000FFFFF00
000FFFFF00
000FFFFF00
000FFFFF00
000FFFFF00
ENDCHAR
STARTCHAR U+00BC
ENCODING 188
SWIDTH 1000 0
BBX 36 70 0 -14
DWIDTH 36 0
BITMAP
0000000000
0000000000
0000000000
0000000000
0000000000
0000000000
0000000000
0FF0000000
0FF0000000
0FF0000000
0FF0000000
0FF0000000
0FF0000000
0FF0000000
FFF00FF000
FFF00FF000
FFF00FF000
FFF00FF000
FFF00FF000
FFF00FF000
FFF00FF000
0FF0FF0000
0FF0FF0000
0FF0FF0000
0FF0FF0000
0FF0FF0000
0FF0FF0000
0FF0FF0000
0FFFF00000
0FFFF00000
0FFFF00000
0FFFF00000
0FFFF00000
0FFFF00000
0FFFF00000
00FF0FF000
00FF0FF000
00FF0FF000
00FF0FF000
00FF0FF000
00FF0FF000
00FF0FF000
0FF0FFF000
0FF0FFF000
0FF0FFF000
0FF0FFF000
0FF0FFF000
0FF0FFF000
0FF0FFF000
FF0FFFF000
FF0FFFF000
FF0FFFF000
FF0FFFF000
FF0FFFF000
FF0FFFF000
FF0FFFF000
00FFFFFF00
00FFFFFF00
00FFFFFF00
00FFFFFF00
00FFFFFF00
00FFFFFF00
00FFFFFF00
00000FF000
00000FF000
00000FF000
00000FF000
00000FF000
00000FF000
00000FF000
ENDCHAR
STARTCHAR U+00BB
ENCODING 187
SWIDTH 1000 0
BBX 36 70 0 -14
DWIDTH 36 0
BITMAP
0000000000
0000000000
0000000000
0000000000
0000000000
0000000000
0000000000
FF0FF00000
FF0FF00000
FF0FF00000
FF0FF00000
FF0FF00000
FF0FF00000
FF0FF00000
0FF0FF0000
0FF0FF0000
0FF0FF0000
0FF0FF0000
0FF0FF0000
0FF0FF0000
0FF0FF0000
00FF0FF000
00FF0FF000
00FF0FF000
00FF0FF000
00FF0FF000
00FF0FF000
00FF0FF000
000FF0FF00
000FF0FF00
000FF0FF00
000FF0FF00
000FF0FF00
000FF0FF00
000FF0FF00
00FF0FF000
00FF0FF000
00FF0FF000
00FF0FF000
00FF0FF000
00FF0FF000
00FF0FF000
0FF0FF0000
0FF0FF0000
0FF0FF0000
0FF0FF0000
0FF0FF0000
0FF0FF0000
0FF0FF0000
FF0FF00000
FF0FF00000
FF0FF00000
FF0FF00000
FF0FF00000
FF0FF00000
FF0FF00000
0000000000
0000000000
0000000000
0000000000
0000000000
0000000000
0000000000
0000000000
0000000000
0000000000
0000000000
0000000000
0000000000
0000000000
ENDCHAR
STARTCHAR U+00BA
ENCODING 186
SWIDTH 1000 0
BBX 36 70 0 -14
DWIDTH 36 0
BITMAP
0000000000
0000000000
0000000000
0000000000
0000000000
0000000000
0000000000
0FFFFFF000
0FFFFFF000
0FFFFFF000
0FFFFFF000
0FFFFFF000
0FFFFFF000
0FFFFFF000
FF0000FF00
FF0000FF00
FF0000FF00
FF0000FF00
FF0000FF00
FF0000FF00
FF0000FF00
FF0000FF00
FF0000FF00
FF0000FF00
FF0000FF00
FF0000FF00
FF0000FF00
FF0000FF00
FF0000FF00
FF0000FF00
FF0000FF00
FF0000FF00
FF0000FF00
FF0000FF00
FF0000FF00
0FFFFFF000
0FFFFFF000
0FFFFFF000
0FFFFFF000
0FFFFFF000
0FFFFFF000
0FFFFFF000
0000000000
0000000000
0000000000
0000000000
0000000000
0000000000
0000000000
FFFFFFFF00
FFFFFFFF00
FFFFFFFF00
FFFFFFFF00
FFFFFFFF00
FFFFFFFF00
FFFFFFFF00
0000000000
0000000000
0000000000
0000000000
0000000000
0000000000
0000000000
0000000000
0000000000
0000000000
0000000000
0000000000
0000000000
0000000000
ENDCHAR
STARTCHAR U+00B9
ENCODING 185
SWIDTH 1000 0
BBX 36 70 0 -14
DWIDTH 36 0
BITMAP
000FF00000
000FF00000
000FF00000
000FF00000
000FF00000
000FF00000
000FF00000
00FFF00000
00FFF00000
00FFF00000
00FFF00000
00FFF00000
00FFF00000
00FFF00000
000FF00000
000FF00000
000FF00000
000FF00000
000FF00000
000FF00000
000FF00000
000FF00000
000FF00000
000FF00000
000FF00000
000FF00000
000FF00000
000FF00000
00FFFF0000
00FFFF0000
00FFFF0000
00FFFF0000
00FFFF0000
00FFFF0000
00FFFF0000
0000000000
0000000000
0000000000
0000000000
0000000000
0000000000
0000000000
0000000000
0000000000
0000000000
0000000000
0000000000
0000000000
0000000000
0000000000
0000000000
0000000000
0000000000
0000000000
0000000000
0000000000
0000000000
0000000000
0000000000
0000000000
0000000000
0000000000
0000000000
0000000000
0000000000
0000000000
0000000000
0000000000
0000000000
0000000000
ENDCHAR
STARTCHAR U+00B8
ENCODING 184
SWIDTH 1000 0
BBX 36 70 0 -14
DWIDTH 36 0
BITMAP
0000000000
0000000000
0000000000
0000000000
0000000000
0000000000
0000000000
FFFF000000
FFFF000000
FFFF000000
FFFF000000
FFFF000000
FFFF000000
FFFF000000
FF0FF00000
FF0FF00000
FF0FF00000
FF0FF00000
FF0FF00000
FF0FF00000
FF0FF00000
FFFF000000
FFFF000000
FFFF000000
FFFF000000
FFFF000000
FFFF000000
FFFF000000
FF0FF00000
FF0FF00000
FF0FF00000
FF0FF00000
FF0FF00000
FF0FF00000
FF0FF00000
FFFFFFF000
FFFFFFF000
FFFFFFF000
FFFFFFF000
FFFFFFF000
FFFFFFF000
FFFFFFF000
000FF0FF00
000FF0FF00
000FF0FF00
000FF0FF00
000FF0FF00
000FF0FF00
000FF0FF00
0000FFF000
0000FFF000
0000FFF000
0000FFF000
0000FFF000
0000FFF000
0000FFF000
000FF0FF00
000FF0FF00
000FF0FF00
000FF0FF00
000FF0FF00
000FF0FF00
000FF0FF00
0000FFF000
0000FFF000
0000FFF000
0000FFF000
0000FFF000
0000FFF000
0000FFF000
ENDCHAR
STARTCHAR U+00B7
ENCODING 183
SWIDTH 1000 0
BBX 36 70 0 -14
DWIDTH 36 0
BITMAP
0000000000
0000000000
0000000000
0000000000
0000000000
0000000000
0000000000
0000000000
0000000000
0000000000
0000000000
0000000000
0000000000
0000000000
0000000000
0000000000
0000000000
0000000000
0000000000
0000000000
0000000000
00FFF00000
00FFF00000
00FFF00000
00FFF00000
00FFF00000
00FFF00000
00FFF00000
00FFF00000
00FFF00000
00FFF00000
00FFF00000
00FFF00000
00FFF00000
00FFF00000
0000000000
0000000000
0000000000
0000000000
0000000000
0000000000
0000000000
0000000000
0000000000
0000000000
0000000000
0000000000
0000000000
0000000000
0000000000
0000000000
0000000000
0000000000
0000000000
0000000000
0000000000
0000000000
0000000000
0000000000
0000000000
0000000000
0000000000
0000000000
0000000000
0000000000
0000000000
0000000000
0000000000
0000000000
0000000000
ENDCHAR
STARTCHAR U+00B6
ENCODING 182
SWIDTH 1000 0
BBX 36 70 0 -14
DWIDTH 36 0
BITMAP
0000000000
0000000000
0000000000
0000000000
0000000000
0000000000
0000000000
0FFFFFFF00
0FFFFFFF00
0FFFFFFF00
0FFFFFFF00
0FFFFFFF00
0FFFFFFF00
0FFFFFFF00
FFF0FFFF00
FFF0FFFF00
FFF0FFFF00
FFF0FFFF00
FFF0FFFF00
FFF0FFFF00
FFF0FFFF00
FFF0FFFF00
FFF0FFFF00
FFF0FFFF00
FFF0FFFF00
FFF0FFFF00
FFF0FFFF00
FFF0FFFF00
0FFFFFFF00
0FFFFFFF00
0FFFFFFF00
0FFFFFFF00
0FFFFFFF00
0FFFFFFF00
0FFFFFFF00
0000FFFF00
0000FFFF00
0000FFFF00
0000FFFF00
0000FFFF00
0000FFFF00
0000FFFF00
0000FFFF00
0000FFFF00
0000FFFF00
0000FFFF00
0000FFFF00
0000FFFF00
0000FFFF00
0000FFFF00
0000FFFF00
0000FFFF00
0000FFFF00
0000FFFF00
0000FFFF00
0000FFFF00
0000000000
0000000000
0000000000
0000000000
0000000000
0000000000
0000000000
0000000000
0000000000
0000000000
0000000000
0000000000
0000000000
0000000000
ENDCHAR
STARTCHAR U+00B5
ENCODING 181
SWIDTH 1000 0
BBX 36 70 0 -14
DWIDTH 36 0
BITMAP
0000000000
0000000000
0000000000
0000000000
0000000000
0000000000
0000000000
0000000000
0000000000
0000000000
0000000000
0000000000
0000000000
0000000000
0000000000
0000000000
0000000000
0000000000
0000000000
0000000000
0000000000
0FF000FF00
0FF000FF00
0FF000FF00
0FF000FF00
0FF000FF00
0FF000FF00
0FF000FF00
0FF000FF00
0FF000FF00
0FF000FF00
0FF000FF00
0FF000FF00
0FF000FF00
0FF000FF00
0FF000FF00
0FF000FF00
0FF000FF00
0FF000FF00
0FF000FF00
0FF000FF00
0FF000FF00
0FFF0FFF00
0FFF0FFF00
0FFF0FFF00
0FFF0FFF00
0FFF0FFF00
0FFF0FFF00
0FFF0FFF00
0FFFFFFF00
0FFFFFFF00
0FFFFFFF00
0FFFFFFF00
0FFFFFFF00
0FFFFFFF00
0FFFFFFF00
0FF0000000
0FF0000000
0FF0000000
0FF0000000
0FF0000000
0FF0000000
0FF0000000
FF00000000
FF00000000
FF00000000
FF00000000
FF00000000
FF00000000
FF00000000
ENDCHAR
STARTCHAR U+00B4
ENCODING 180
SWIDTH 1000 0
BBX 36 70 0 -14
DWIDTH 36 0
BITMAP
0000000000
0000000000
0000000000
0000000000
0000000000
0000000000
0000000000
FFFF000000
FFFF000000
FFFF000000
FFFF000000
FFFF000000
FFFF000000
FFFF000000
FF0FF00000
FF0FF00000
FF0FF00000
FF0FF00000
FF0FF00000
FF0FF00000
FF0FF00000
FFFF000000
FFFF000000
FFFF000000
FFFF000000
FFFF000000
FFFF000000
FFFF000000
FF0FF00000
FF0FF00000
FF0FF00000
FF0FF00000
FF0FF00000
FF0FF00000
FF0FF00000
FFFF0FF000
FFFF0FF000
FFFF0FF000
FFFF0FF000
FFFF0FF000
FFFF0FF000
FFFF0FF000
0000FFF000
0000FFF000
0000FFF000
0000FFF000
0000FFF000
0000FFF000
0000FFF000
000FFFF000
000FFFF000
000FFFF000
000FFFF000
000FFFF000
000FFFF000
000FFFF000
00FFFFFF00
00FFFFFF00
00FFFFFF00
00FFFFFF00
00FFFFFF00
00FFFFFF00
00FFFFFF00
00000FF000
00000FF000
00000FF000
00000FF000
00000FF000
00000FF000
00000FF000
ENDCHAR
STARTCHAR U+00B3
ENCODING 179
SWIDTH 1000 0
BBX 36 70 0 -14
DWIDTH 36 0
BITMAP
0FFFFFF000
0FFFFFF000
0FFFFFF000
0FFFFFF000
0FFFFFF000
0FFFFFF000
0FFFFFF000
00000FF000
00000FF000
00000FF000
00000FF000
00000FF000
00000FF000
00000FF000
000FFF0000
000FFF0000
000FFF0000
000FFF0000
000FFF0000
000FFF0000
000FFF0000
00000FF000
00000FF000
00000FF000
00000FF000
00000FF000
00000FF000
00000FF000
0FFFFF0000
0FFFFF0000
0FFFFF0000
0FFFFF0000
0FFFFF0000
0FFFFF0000
0FFFFF0000
0000000000
0000000000
0000000000
0000000000
0000000000
0000000000
0000000000
0000000000
0000000000
0000000000
0000000000
0000000000
0000000000
0000000000
0000000000
0000000000
0000000000
0000000000
0000000000
0000000000
0000000000
0000000000
0000000000
0000000000
0000000000
0000000000
0000000000
0000000000
0000000000
0000000000
0000000000
0000000000
0000000000
0000000000
0000000000
ENDCHAR
STARTCHAR U+00B2
ENCODING 178
SWIDTH 1000 0
BBX 36 70 0 -14
DWIDTH 36 0
BITMAP
00FFFF0000
00FFFF0000
00FFFF0000
00FFFF0000
00FFFF0000
00FFFF0000
00FFFF0000
0FF00FF000
0FF00FF000
0FF00FF000
0FF00FF000
0FF00FF000
0FF00FF000
0FF00FF000
000FFF0000
000FFF0000
000FFF0000
000FFF0000
000FFF0000
000FFF0000
000FFF0000
00FF000000
00FF000000
00FF000000
00FF000000
00FF000000
00FF000000
00FF000000
0FFFFFF000
0FFFFFF000
0FFFFFF000
0FFFFFF000
0FFFFFF000
0FFFFFF000
0FFFFFF000
0000000000
0000000000
0000000000
0000000000
0000000000
0000000000
0000000000
0000000000
0000000000
0000000000
0000000000
0000000000
0000000000
0000000000
0000000000
0000000000
0000000000
0000000000
0000000000
0000000000
0000000000
0000000000
0000000000
0000000000
0000000000
0000000000
0000000000
0000000000
0000000000
0000000000
0000000000
0000000000
0000000000
0000000000
0000000000
ENDCHAR
STARTCHAR U+00B1
ENCODING 177
SWIDTH 1000 0
BBX 36 70 0 -14
DWIDTH 36 0
BITMAP
0000000000
0000000000
0000000000
0000000000
0000000000
0000000000
0000000000
0000000000
0000000000
0000000000
0000000000
0000000000
0000000000
0000000000
000FF00000
000FF00000
000FF00000
000FF00000
000FF00000
000FF00000
000FF00000
000FF00000
000FF00000
000FF00000
000FF00000
000FF00000
000FF00000
000FF00000
FFFFFFFF00
FFFFFFFF00
FFFFFFFF00
FFFFFFFF00
FFFFFFFF00
FFFFFFFF00
FFFFFFFF00
000FF00000
000FF00000
000FF00000
000FF00000
000FF00000
000FF00000
000FF00000
000FF00000
000FF00000
000FF00000
000FF00000
000FF00000
000FF00000
000FF00000
FFFFFFFF00
FFFFFFFF00
FFFFFFFF00
FFFFFFFF00
FFFFFFFF00
FFFFFFFF00
FFFFFFFF00
0000000000
0000000000
0000000000
0000000000
0000000000
0000000000
0000000000
0000000000
0000000000
0000000000
0000000000
0000000000
0000000000
0000000000
ENDCHAR
STARTCHAR U+00B0
ENCODING 176
SWIDTH 1000 0
BBX 36 70 0 -14
DWIDTH 36 0
BITMAP
0000000000
0000000000
0000000000
0000000000
0000000000
0000000000
0000000000
00FFFF0000
00FFFF0000
00FFFF0000
00FFFF0000
00FFFF0000
00FFFF0000
00FFFF0000
0FF00FF000
0FF00FF000
0FF00FF000
0FF00FF000
0FF00FF000
0FF00FF000
0FF00FF000
00FFFF0000
00FFFF0000
00FFFF0000
00FFFF0000
00FFFF0000
00FFFF0000
00FFFF0000
0000000000
0000000000
0000000000
0000000000
0000000000
0000000000
0000000000
0000000000
0000000000
0000000000
0000000000
0000000000
0000000000
0000000000
0000000000
0000000000
0000000000
0000000000
0000000000
0000000000
0000000000
0000000000
0000000000
0000000000
0000000000
0000000000
0000000000
0000000000
0000000000
0000000000
0000000000
0000000000
0000000000
0000000000
0000000000
0000000000
0000000000
0000000000
0000000000
0000000000
0000000000
0000000000
ENDCHAR
STARTCHAR U+00AF
ENCODING 175
SWIDTH 1000 0
BBX 36 70 0 -14
DWIDTH 36 0
BITMAP
0000000000
0000000000
0000000000
0000000000
0000000000
0000000000
0000000000
0FFF000000
0FFF000000
0FFF000000
0FFF000000
0FFF000000
0FFF000000
0FFF000000
FF0FF00000
FF0FF00000
FF0FF00000
FF0FF00000
FF0FF00000
FF0FF00000
FF0FF00000
FFFFF00000
FFFFF00000
FFFFF00000
FFFFF00000
FFFFF00000
FFFFF00000
FFFFF00000
FF0FF00000
FF0FF00000
FF0FF00000
FF0FF00000
FF0FF00000
FF0FF00000
FF0FF00000
FF0FFFFF00
FF0FFFFF00
FF0FFFFF00
FF0FFFFF00
FF0FFFFF00
FF0FFFFF00
FF0FFFFF00
000FF00000
000FF00000
000FF00000
000FF00000
000FF00000
000FF00000
000FF00000
000FFFF000
000FFFF000
000FFFF000
000FFFF000
000FFFF000
000FFFF000
000FFFF000
000FF00000
000FF00000
000FF00000
000FF00000
000FF00000
000FF00000
000FF00000
000FF00000
000FF00000
000FF00000
000FF00000
000FF00000
000FF00000
000FF00000
ENDCHAR
STARTCHAR U+00AE
ENCODING 174
SWIDTH 1000 0
BBX 36 70 0 -14
DWIDTH 36 0
BITMAP
0000000000
0000000000
0000000000
0000000000
0000000000
0000000000
0000000000
0FFF000000
0FFF000000
0FFF000000
0FFF000000
0FFF000000
0FFF000000
0FFF000000
FF0FF00000
FF0FF00000
FF0FF00000
FF0FF00000
FF0FF00000
FF0FF00000
FF0FF00000
FFFFF00000
FFFFF00000
FFFFF00000
FFFFF00000
FFFFF00000
FFFFF00000
FFFFF00000
FF0FF00000
FF0FF00000
FF0FF00000
FF0FF00000
FF0FF00000
FF0FF00000
FF0FF00000
FF0FFFFF00
FF0FFFFF00
FF0FFFFF00
FF0FFFFF00
FF0FFFFF00
FF0FFFFF00
FF0FFFFF00
000FF00000
000FF00000
000FF00000
000FF00000
000FF00000
000FF00000
000FF00000
000FFFF000
000FFFF000
000FFFF000
000FFFF000
000FFFF000
000FFFF000
000FFFF000
000FF00000
000FF00000
000FF00000
000FF00000
000FF00000
000FF00000
000FF00000
000FFFFF00
000FFFFF00
000FFFFF00
000FFFFF00
000FFFFF00
000FFFFF00
000FFFFF00
ENDCHAR
STARTCHAR U+00AC
ENCODING 172
SWIDTH 1000 0
BBX 36 70 0 -14
DWIDTH 36 0
BITMAP
0000000000
0000000000
0000000000
0000000000
0000000000
0000000000
0000000000
0FFF000000
0FFF000000
0FFF000000
0FFF000000
0FFF000000
0FFF000000
0FFF000000
FF0FF00000
FF0FF00000
FF0FF00000
FF0FF00000
FF0FF00000
FF0FF00000
FF0FF00000
FFFFF00000
FFFFF00000
FFFFF00000
FFFFF00000
FFFFF00000
FFFFF00000
FFFFF00000
FF0FF00000
FF0FF00000
FF0FF00000
FF0FF00000
FF0FF00000
FF0FF00000
FF0FF00000
FF0FFFFF00
FF0FFFFF00
FF0FFFFF00
FF0FFFFF00
FF0FFFFF00
FF0FFFFF00
FF0FFFFF00
000FF00000
000FF00000
000FF00000
000FF00000
000FF00000
000FF00000
000FF00000
000FF00000
000FF00000
000FF00000
000FF00000
000FF00000
000FF00000
000FF00000
000FF00000
000FF00000
000FF00000
000FF00000
000FF00000
000FF00000
000FF00000
0000FFFF00
0000FFFF00
0000FFFF00
0000FFFF00
0000FFFF00
0000FFFF00
0000FFFF00
ENDCHAR
STARTCHAR U+00AB
ENCODING 171
SWIDTH 1000 0
BBX 36 70 0 -14
DWIDTH 36 0
BITMAP
0000000000
0000000000
0000000000
0000000000
0000000000
0000000000
0000000000
000FF0FF00
000FF0FF00
000FF0FF00
000FF0FF00
000FF0FF00
000FF0FF00
000FF0FF00
00FF0FF000
00FF0FF000
00FF0FF000
00FF0FF000
00FF0FF000
00FF0FF000
00FF0FF000
0FF0FF0000
0FF0FF0000
0FF0FF0000
0FF0FF0000
0FF0FF0000
0FF0FF0000
0FF0FF0000
FF0FF00000
FF0FF00000
FF0FF00000
FF0FF00000
FF0FF00000
FF0FF00000
FF0FF00000
0FF0FF0000
0FF0FF0000
0FF0FF0000
0FF0FF0000
0FF0FF0000
0FF0FF0000
0FF0FF0000
00FF0FF000
00FF0FF000
00FF0FF000
00FF0FF000
00FF0FF000
00FF0FF000
00FF0FF000
000FF0FF00
000FF0FF00
000FF0FF00
000FF0FF00
000FF0FF00
000FF0FF00
000FF0FF00
0000000000
0000000000
0000000000
0000000000
0000000000
0000000000
0000000000
0000000000
0000000000
0000000000
0000000000
0000000000
0000000000
0000000000
ENDCHAR
STARTCHAR U+00AA
ENCODING 170
SWIDTH 1000 0
BBX 36 70 0 -14
DWIDTH 36 0
BITMAP
0000000000
0000000000
0000000000
0000000000
0000000000
0000000000
0000000000
0FFFFFF000
0FFFFFF000
0FFFFFF000
0FFFFFF000
0FFFFFF000
0FFFFFF000
0FFFFFF000
000000FF00
000000FF00
000000FF00
000000FF00
000000FF00
000000FF00
000000FF00
0FFFFFFF00
0FFFFFFF00
0FFFFFFF00
0FFFFFFF00
0FFFFFFF00
0FFFFFFF00
0FFFFFFF00
FF000FFF00
FF000FFF00
FF000FFF00
FF000FFF00
FF000FFF00
FF000FFF00
FF000FFF00
0FFFFFFF00
0FFFFFFF00
0FFFFFFF00
0FFFFFFF00
0FFFFFFF00
0FFFFFFF00
0FFFFFFF00
0000000000
0000000000
0000000000
0000000000
0000000000
0000000000
0000000000
FFFFFFFF00
FFFFFFFF00
FFFFFFFF00
FFFFFFFF00
FFFFFFFF00
FFFFFFFF00
FFFFFFFF00
0000000000
0000000000
0000000000
0000000000
0000000000
0000000000
0000000000
0000000000
0000000000
0000000000
0000000000
0000000000
0000000000
0000000000
ENDCHAR
STARTCHAR U+00A9
ENCODING 169
SWIDTH 1000 0
BBX 36 70 0 -14
DWIDTH 36 0
BITMAP
0000000000
0000000000
0000000000
0000000000
0000000000
0000000000
0000000000
00FFFF0000
00FFFF0000
00FFFF0000
00FFFF0000
00FFFF0000
00FFFF0000
00FFFF0000
0FF00FF000
0FF00FF000
0FF00FF000
0FF00FF000
0FF00FF000
0FF00FF000
0FF00FF000
FF0FFFFF00
FF0FFFFF00
FF0FFFFF00
FF0FFFFF00
FF0FFFFF00
FF0FFFFF00
FF0FFFFF00
FFFF00FF00
FFFF00FF00
FFFF00FF00
FFFF00FF00
FFFF00FF00
FFFF00FF00
FFFF00FF00
FFFF00FF00
FFFF00FF00
FFFF00FF00
FFFF00FF00
FFFF00FF00
FFFF00FF00
FFFF00FF00
FF0FFFFF00
FF0FFFFF00
FF0FFFFF00
FF0FFFFF00
FF0FFFFF00
FF0FFFFF00
FF0FFFFF00
0FF00FF000
0FF00FF000
0FF00FF000
0FF00FF000
0FF00FF000
0FF00FF000
0FF00FF000
00FFFF0000
00FFFF0000
00FFFF0000
00FFFF0000
00FFFF0000
00FFFF0000
00FFFF0000
0000000000
0000000000
0000000000
0000000000
0000000000
0000000000
0000000000
ENDCHAR
STARTCHAR U+00A4
ENCODING 164
SWIDTH 1000 0
BBX 36 70 0 -14
DWIDTH 36 0
BITMAP
0000000000
0000000000
0000000000
0000000000
0000000000
0000000000
0000000000
0000000000
0000000000
0000000000
0000000000
0000000000
0000000000
0000000000
FF0000FF00
FF0000FF00
FF0000FF00
FF0000FF00
FF0000FF00
FF0000FF00
FF0000FF00
0FFFFFF000
0FFFFFF000
0FFFFFF000
0FFFFFF000
0FFFFFF000
0FFFFFF000
0FFFFFF000
0FF00FF000
0FF00FF000
0FF00FF000
0FF00FF000
0FF00FF000
0FF00FF000
0FF00FF000
0FFFFFF000
0FFFFFF000
0FFFFFF000
0FFFFFF000
0FFFFFF000
0FFFFFF000
0FFFFFF000
FF0000FF00
FF0000FF00
FF0000FF00
FF0000FF00
FF0000FF00
FF0000FF00
FF0000FF00
0000000000
0000000000
0000000000
0000000000
0000000000
0000000000
0000000000
0000000000
0000000000
0000000000
0000000000
0000000000
0000000000
0000000000
0000000000
0000000000
0000000000
0000000000
0000000000
0000000000
0000000000
ENDCHAR
STARTCHAR U+00A7
ENCODING 167
SWIDTH 1000 0
BBX 36 70 0 -14
DWIDTH 36 0
BITMAP
0000000000
0000000000
0000000000
0000000000
0000000000
0000000000
0000000000
00FFFFF000
00FFFFF000
00FFFFF000
00FFFFF000
00FFFFF000
00FFFFF000
00FFFFF000
0FF0000000
0FF0000000
0FF0000000
0FF0000000
0FF0000000
0FF0000000
0FF0000000
00FFFF0000
00FFFF0000
00FFFF0000
00FFFF0000
00FFFF0000
00FFFF0000
00FFFF0000
0FF00FF000
0FF00FF000
0FF00FF000
0FF00FF000
0FF00FF000
0FF00FF000
0FF00FF000
00FFFF0000
00FFFF0000
00FFFF0000
00FFFF0000
00FFFF0000
00FFFF0000
00FFFF0000
00000FF000
00000FF000
00000FF000
00000FF000
00000FF000
00000FF000
00000FF000
0FFFFF0000
0FFFFF0000
0FFFFF0000
0FFFFF0000
0FFFFF0000
0FFFFF0000
0FFFFF0000
0000000000
0000000000
0000000000
0000000000
0000000000
0000000000
0000000000
0000000000
0000000000
0000000000
0000000000
0000000000
0000000000
0000000000
ENDCHAR
STARTCHAR U+00A6
ENCODING 166
SWIDTH 1000 0
BBX 36 70 0 -14
DWIDTH 36 0
BITMAP
0000000000
0000000000
0000000000
0000000000
0000000000
0000000000
0000000000
0FFF000000
0FFF000000
0FFF000000
0FFF000000
0FFF000000
0FFF000000
0FFF000000
FF0FF00000
FF0FF00000
FF0FF00000
FF0FF00000
FF0FF00000
FF0FF00000
FF0FF00000
FFFFF00000
FFFFF00000
FFFFF00000
FFFFF00000
FFFFF00000
FFFFF00000
FFFFF00000
FF0FF00000
FF0FF00000
FF0FF00000
FF0FF00000
FF0FF00000
FF0FF00000
FF0FF00000
FF0FFFFF00
FF0FFFFF00
FF0FFFFF00
FF0FFFFF00
FF0FFFFF00
FF0FFFFF00
FF0FFFFF00
0000FF0000
0000FF0000
0000FF0000
0000FF0000
0000FF0000
0000FF0000
0000FF0000
000FFFF000
000FFFF000
000FFFF000
000FFFF000
000FFFF000
000FFFF000
000FFFF000
000FF0FF00
000FF0FF00
000FF0FF00
000FF0FF00
000FF0FF00
000FF0FF00
000FF0FF00
0000FFF000
0000FFF000
0000FFF000
0000FFF000
0000FFF000
0000FFF000
0000FFF000
ENDCHAR
STARTCHAR U+00A5
ENCODING 165
SWIDTH 1000 0
BBX 36 70 0 -14
DWIDTH 36 0
BITMAP
0000000000
0000000000
0000000000
0000000000
0000000000
0000000000
0000000000
FF0000FF00
FF0000FF00
FF0000FF00
FF0000FF00
FF0000FF00
FF0000FF00
FF0000FF00
0FF00FF000
0FF00FF000
0FF00FF000
0FF00FF000
0FF00FF000
0FF00FF000
0FF00FF000
00FFFF0000
00FFFF0000
00FFFF0000
00FFFF0000
00FFFF0000
00FFFF0000
00FFFF0000
000FF00000
000FF00000
000FF00000
000FF00000
000FF00000
000FF00000
000FF00000
FFFFFFFF00
FFFFFFFF00
FFFFFFFF00
FFFFFFFF00
FFFFFFFF00
FFFFFFFF00
FFFFFFFF00
000FF00000
000FF00000
000FF00000
000FF00000
000FF00000
000FF00000
000FF00000
000FF00000
000FF00000
000FF00000
000FF00000
000FF00000
000FF00000
000FF00000
0000000000
0000000000
0000000000
0000000000
0000000000
0000000000
0000000000
0000000000
0000000000
0000000000
0000000000
0000000000
0000000000
0000000000
ENDCHAR
STARTCHAR U+00A8
ENCODING 168
SWIDTH 1000 0
BBX 36 70 0 -14
DWIDTH 36 0
BITMAP
0000000000
0000000000
0000000000
0000000000
0000000000
0000000000
0000000000
0FFF000000
0FFF000000
0FFF000000
0FFF000000
0FFF000000
0FFF000000
0FFF000000
FF0FF00000
FF0FF00000
FF0FF00000
FF0FF00000
FF0FF00000
FF0FF00000
FF0FF00000
FFFFF00000
FFFFF00000
FFFFF00000
FFFFF00000
FFFFF00000
FFFFF00000
FFFFF00000
FF0FF00000
FF0FF00000
FF0FF00000
FF0FF00000
FF0FF00000
FF0FF00000
FF0FF00000
FF0FFFF000
FF0FFFF000
FF0FFFF000
FF0FFFF000
FF0FFFF000
FF0FFFF000
FF0FFFF000
0000FFF000
0000FFF000
0000FFF000
0000FFF000
0000FFF000
0000FFF000
0000FFF000
000FFFF000
000FFFF000
000FFFF000
000FFFF000
000FFFF000
000FFFF000
000FFFF000
00FFFFFF00
00FFFFFF00
00FFFFFF00
00FFFFFF00
00FFFFFF00
00FFFFFF00
00FFFFFF00
00000FF000
00000FF000
00000FF000
00000FF000
00000FF000
00000FF000
00000FF000
ENDCHAR
STARTCHAR U+00A3
ENCODING 163
SWIDTH 1000 0
BBX 36 70 0 -14
DWIDTH 36 0
BITMAP
0000000000
0000000000
0000000000
0000000000
0000000000
0000000000
0000000000
000FFFF000
000FFFF000
000FFFF000
000FFFF000
000FFFF000
000FFFF000
000FFFF000
00FF00FF00
00FF00FF00
00FF00FF00
00FF00FF00
00FF00FF00
00FF00FF00
00FF00FF00
00FF000000
00FF000000
00FF000000
00FF000000
00FF000000
00FF000000
00FF000000
FFFFFF0000
FFFFFF0000
FFFFFF0000
FFFFFF0000
FFFFFF0000
FFFFFF0000
FFFFFF0000
00FF000000
00FF000000
00FF000000
00FF000000
00FF000000
00FF000000
00FF000000
0FFFFF0000
0FFFFF0000
0FFFFF0000
0FFFFF0000
0FFFFF0000
0FFFFF0000
0FFFFF0000
FFFF0FFF00
FFFF0FFF00
FFFF0FFF00
FFFF0FFF00
FFFF0FFF00
FFFF0FFF00
FFFF0FFF00
0FF0000000
0FF0000000
0FF0000000
0FF0000000
0FF0000000
0FF0000000
0FF0000000
0000000000
0000000000
0000000000
0000000000
0000000000
0000000000
0000000000
ENDCHAR
STARTCHAR U+00A2
ENCODING 162
SWIDTH 1000 0
BBX 36 70 0 -14
DWIDTH 36 0
BITMAP
0000000000
0000000000
0000000000
0000000000
0000000000
0000000000
0000000000
0000000000
0000000000
0000000000
0000000000
0000000000
0000000000
0000000000
000FF00000
000FF00000
000FF00000
000FF00000
000FF00000
000FF00000
000FF00000
0FFFFFF000
0FFFFFF000
0FFFFFF000
0FFFFFF000
0FFFFFF000
0FFFFFF000
0FFFFFF000
FF0FF0FF00
FF0FF0FF00
FF0FF0FF00
FF0FF0FF00
FF0FF0FF00
FF0FF0FF00
FF0FF0FF00
FF0FF00000
FF0FF00000
FF0FF00000
FF0FF00000
FF0FF00000
FF0FF00000
FF0FF00000
FF0FF0FF00
FF0FF0FF00
FF0FF0FF00
FF0FF0FF00
FF0FF0FF00
FF0FF0FF00
FF0FF0FF00
0FFFFFF000
0FFFFFF000
0FFFFFF000
0FFFFFF000
0FFFFFF000
0FFFFFF000
0FFFFFF000
000FF00000
000FF00000
000FF00000
000FF00000
000FF00000
000FF00000
000FF00000
0000000000
0000000000
0000000000
0000000000
0000000000
0000000000
0000000000
ENDCHAR
STARTCHAR U+00A1
ENCODING 161
SWIDTH 1000 0
BBX 36 70 0 -14
DWIDTH 36 0
BITMAP
0000000000
0000000000
0000000000
0000000000
0000000000
0000000000
0000000000
000FF00000
000FF00000
000FF00000
000FF00000
000FF00000
000FF00000
000FF00000
0000000000
0000000000
0000000000
0000000000
0000000000
0000000000
0000000000
000FF00000
000FF00000
000FF00000
000FF00000
000FF00000
000FF00000
000FF00000
000FF00000
000FF00000
000FF00000
000FF00000
000FF00000
000FF00000
000FF00000
000FF00000
000FF00000
000FF00000
000FF00000
000FF00000
000FF00000
000FF00000
000FF00000
000FF00000
000FF00000
000FF00000
000FF00000
000FF00000
000FF00000
000FF00000
000FF00000
000FF00000
000FF00000
000FF00000
000FF00000
000FF00000
0000000000
0000000000
0000000000
0000000000
0000000000
0000000000
0000000000
0000000000
0000000000
0000000000
0000000000
0000000000
0000000000
0000000000
ENDCHAR
STARTCHAR U+007F
ENCODING 127
SWIDTH 1000 0
BBX 36 70 0 -14
DWIDTH 36 0
BITMAP
0000000000
0000000000
0000000000
0000000000
0000000000
0000000000
0000000000
FFFF000000
FFFF000000
FFFF000000
FFFF000000
FFFF000000
FFFF000000
FFFF000000
FF0FF00000
FF0FF00000
FF0FF00000
FF0FF00000
FF0FF00000
FF0FF00000
FF0FF00000
FF0FF00000
FF0FF00000
FF0FF00000
FF0FF00000
FF0FF00000
FF0FF00000
FF0FF00000
FF0FF00000
FF0FF00000
FF0FF00000
FF0FF00000
FF0FF00000
FF0FF00000
FF0FF00000
FFFFFF0000
FFFFFF0000
FFFFFF0000
FFFFFF0000
FFFFFF0000
FFFFFF0000
FFFFFF0000
00FF000000
00FF000000
00FF000000
00FF000000
00FF000000
00FF000000
00FF000000
00FF000000
00FF000000
00FF000000
00FF000000
00FF000000
00FF000000
00FF000000
00FF000000
00FF000000
00FF000000
00FF000000
00FF000000
00FF000000
00FF000000
00FF000000
00FF000000
00FF000000
00FF000000
00FF000000
00FF000000
00FF000000
ENDCHAR
STARTCHAR U+007E
ENCODING 126
SWIDTH 1000 0
BBX 36 70 0 -14
DWIDTH 36 0
BITMAP
0000000000
0000000000
0000000000
0000000000
0000000000
0000000000
0000000000
0FFF00FF00
0FFF00FF00
0FFF00FF00
0FFF00FF00
0FFF00FF00
0FFF00FF00
0FFF00FF00
FF0FF0FF00
FF0FF0FF00
FF0FF0FF00
FF0FF0FF00
FF0FF0FF00
FF0FF0FF00
FF0FF0FF00
FF00FFF000
FF00FFF000
FF00FFF000
FF00FFF000
FF00FFF000
FF00FFF000
FF00FFF000
0000000000
0000000000
0000000000
0000000000
0000000000
0000000000
0000000000
0000000000
0000000000
0000000000
0000000000
0000000000
0000000000
0000000000
0000000000
0000000000
0000000000
0000000000
0000000000
0000000000
0000000000
0000000000
0000000000
0000000000
0000000000
0000000000
0000000000
0000000000
0000000000
0000000000
0000000000
0000000000
0000000000
0000000000
0000000000
0000000000
0000000000
0000000000
0000000000
0000000000
0000000000
0000000000
ENDCHAR
STARTCHAR U+007D
ENCODING 125
SWIDTH 1000 0
BBX 36 70 0 -14
DWIDTH 36 0
BITMAP
0000000000
0000000000
0000000000
0000000000
0000000000
0000000000
0000000000
FFFF000000
FFFF000000
FFFF000000
FFFF000000
FFFF000000
FFFF000000
FFFF000000
000FF00000
000FF00000
000FF00000
000FF00000
000FF00000
000FF00000
000FF00000
00FF000000
00FF000000
00FF000000
00FF000000
00FF000000
00FF000000
00FF000000
000FFF0000
000FFF0000
000FFF0000
000FFF0000
000FFF0000
000FFF0000
000FFF0000
00FF000000
00FF000000
00FF000000
00FF000000
00FF000000
00FF000000
00FF000000
000FF00000
000FF00000
000FF00000
000FF00000
000FF00000
000FF00000
000FF00000
FFFF000000
FFFF000000
FFFF000000
FFFF000000
FFFF000000
FFFF000000
FFFF000000
0000000000
0000000000
0000000000
0000000000
0000000000
0000000000
0000000000
0000000000
0000000000
0000000000
0000000000
0000000000
0000000000
0000000000
ENDCHAR
STARTCHAR U+007C
ENCODING 124
SWIDTH 1000 0
BBX 36 70 0 -14
DWIDTH 36 0
BITMAP
0000000000
0000000000
0000000000
0000000000
0000000000
0000000000
0000000000
000FF00000
000FF00000
000FF00000
000FF00000
000FF00000
000FF00000
000FF00000
000FF00000
000FF00000
000FF00000
000FF00000
000FF00000
000FF00000
000FF00000
000FF00000
000FF00000
000FF00000
000FF00000
000FF00000
000FF00000
000FF00000
000FF00000
000FF00000
000FF00000
000FF00000
000FF00000
000FF00000
000FF00000
000FF00000
000FF00000
000FF00000
000FF00000
000FF00000
000FF00000
000FF00000
000FF00000
000FF00000
000FF00000
000FF00000
000FF00000
000FF00000
000FF00000
000FF00000
000FF00000
000FF00000
000FF00000
000FF00000
000FF00000
000FF00000
0000000000
0000000000
0000000000
0000000000
0000000000
0000000000
0000000000
0000000000
0000000000
0000000000
0000000000
0000000000
0000000000
0000000000
ENDCHAR
STARTCHAR U+007B
ENCODING 123
SWIDTH 1000 0
BBX 36 70 0 -14
DWIDTH 36 0
BITMAP
0000000000
0000000000
0000000000
0000000000
0000000000
0000000000
0000000000
0000FFFF00
0000FFFF00
0000FFFF00
0000FFFF00
0000FFFF00
0000FFFF00
0000FFFF00
000FF00000
000FF00000
000FF00000
000FF00000
000FF00000
000FF00000
000FF00000
0000FF0000
0000FF0000
0000FF0000
0000FF0000
0000FF0000
0000FF0000
0000FF0000
00FFF00000
00FFF00000
00FFF00000
00FFF00000
00FFF00000
00FFF00000
00FFF00000
0000FF0000
0000FF0000
0000FF0000
0000FF0000
0000FF0000
0000FF0000
0000FF0000
000FF00000
000FF00000
000FF00000
000FF00000
000FF00000
000FF00000
000FF00000
0000FFFF00
0000FFFF00
0000FFFF00
0000FFFF00
0000FFFF00
0000FFFF00
0000FFFF00
0000000000
0000000000
0000000000
0000000000
0000000000
0000000000
0000000000
0000000000
0000000000
0000000000
0000000000
0000000000
0000000000
0000000000
ENDCHAR
STARTCHAR U+007A
ENCODING 122
SWIDTH 1000 0
BBX 36 70 0 -14
DWIDTH 36 0
BITMAP
0000000000
0000000000
0000000000
0000000000
0000000000
0000000000
0000000000
0000000000
0000000000
0000000000
0000000000
0000000000
0000000000
0000000000
0000000000
0000000000
0000000000
0000000000
0000000000
0000000000
0000000000
FFFFFFFF00
FFFFFFFF00
FFFFFFFF00
FFFFFFFF00
FFFFFFFF00
FFFFFFFF00
FFFFFFFF00
00000FF000
00000FF000
00000FF000
00000FF000
00000FF000
00000FF000
00000FF000
000FFF0000
000FFF0000
000FFF0000
000FFF0000
000FFF0000
000FFF0000
000FFF0000
00FF000000
00FF000000
00FF000000
00FF000000
00FF000000
00FF000000
00FF000000
FFFFFFFF00
FFFFFFFF00
FFFFFFFF00
FFFFFFFF00
FFFFFFFF00
FFFFFFFF00
FFFFFFFF00
0000000000
0000000000
0000000000
0000000000
0000000000
0000000000
0000000000
0000000000
0000000000
0000000000
0000000000
0000000000
0000000000
0000000000
ENDCHAR
STARTCHAR U+0079
ENCODING 121
SWIDTH 1000 0
BBX 36 70 0 -14
DWIDTH 36 0
BITMAP
0000000000
0000000000
0000000000
0000000000
0000000000
0000000000
0000000000
0000000000
0000000000
0000000000
0000000000
0000000000
0000000000
0000000000
0000000000
0000000000
0000000000
0000000000
0000000000
0000000000
0000000000
FF000FF000
FF000FF000
FF000FF000
FF000FF000
FF000FF000
FF000FF000
FF000FF000
FF000FF000
FF000FF000
FF000FF000
FF000FF000
FF000FF000
FF000FF000
FF000FF000
FF00FFF000
FF00FFF000
FF00FFF000
FF00FFF000
FF00FFF000
FF00FFF000
FF00FFF000
0FFFFFF000
0FFFFFF000
0FFFFFF000
0FFFFFF000
0FFFFFF000
0FFFFFF000
0FFFFFF000
00000FF000
00000FF000
00000FF000
00000FF000
00000FF000
00000FF000
00000FF000
FF000FF000
FF000FF000
FF000FF000
FF000FF000
FF000FF000
FF000FF000
FF000FF000
0FFFFF0000
0FFFFF0000
0FFFFF0000
0FFFFF0000
0FFFFF0000
0FFFFF0000
0FFFFF0000
ENDCHAR
STARTCHAR U+0078
ENCODING 120
SWIDTH 1000 0
BBX 36 70 0 -14
DWIDTH 36 0
BITMAP
0000000000
0000000000
0000000000
0000000000
0000000000
0000000000
0000000000
0000000000
0000000000
0000000000
0000000000
0000000000
0000000000
0000000000
0000000000
0000000000
0000000000
0000000000
0000000000
0000000000
0000000000
FF000FF000
FF000FF000
FF000FF000
FF000FF000
FF000FF000
FF000FF000
FF000FF000
0FF0FF0000
0FF0FF0000
0FF0FF0000
0FF0FF0000
0FF0FF0000
0FF0FF0000
0FF0FF0000
00FFF00000
00FFF00000
00FFF00000
00FFF00000
00FFF00000
00FFF00000
00FFF00000
0FF0FF0000
0FF0FF0000
0FF0FF0000
0FF0FF0000
0FF0FF0000
0FF0FF0000
0FF0FF0000
FF000FF000
FF000FF000
FF000FF000
FF000FF000
FF000FF000
FF000FF000
FF000FF000
0000000000
0000000000
0000000000
0000000000
0000000000
0000000000
0000000000
0000000000
0000000000
0000000000
0000000000
0000000000
0000000000
0000000000
ENDCHAR
STARTCHAR U+0077
ENCODING 119
SWIDTH 1000 0
BBX 36 70 0 -14
DWIDTH 36 0
BITMAP
0000000000
0000000000
0000000000
0000000000
0000000000
0000000000
0000000000
0000000000
0000000000
0000000000
0000000000
0000000000
0000000000
0000000000
0000000000
0000000000
0000000000
0000000000
0000000000
0000000000
0000000000
FF0000FF00
FF0000FF00
FF0000FF00
FF0000FF00
FF0000FF00
FF0000FF00
FF0000FF00
FF0000FF00
FF0000FF00
FF0000FF00
FF0000FF00
FF0000FF00
FF0000FF00
FF0000FF00
FF0FF0FF00
FF0FF0FF00
FF0FF0FF00
FF0FF0FF00
FF0FF0FF00
FF0FF0FF00
FF0FF0FF00
FFFFFFFF00
FFFFFFFF00
FFFFFFFF00
FFFFFFFF00
FFFFFFFF00
FFFFFFFF00
FFFFFFFF00
0FF00FF000
0FF00FF000
0FF00FF000
0FF00FF000
0FF00FF000
0FF00FF000
0FF00FF000
0000000000
0000000000
0000000000
0000000000
0000000000
0000000000
0000000000
0000000000
0000000000
0000000000
0000000000
0000000000
0000000000
0000000000
ENDCHAR
STARTCHAR U+0076
ENCODING 118
SWIDTH 1000 0
BBX 36 70 0 -14
DWIDTH 36 0
BITMAP
0000000000
0000000000
0000000000
0000000000
0000000000
0000000000
0000000000
0000000000
0000000000
0000000000
0000000000
0000000000
0000000000
0000000000
0000000000
0000000000
0000000000
0000000000
0000000000
0000000000
0000000000
FF0000FF00
FF0000FF00
FF0000FF00
FF0000FF00
FF0000FF00
FF0000FF00
FF0000FF00
FF0000FF00
FF0000FF00
FF0000FF00
FF0000FF00
FF0000FF00
FF0000FF00
FF0000FF00
0FF00FF000
0FF00FF000
0FF00FF000
0FF00FF000
0FF00FF000
0FF00FF000
0FF00FF000
00FFFF0000
00FFFF0000
00FFFF0000
00FFFF0000
00FFFF0000
00FFFF0000
00FFFF0000
000FF00000
000FF00000
000FF00000
000FF00000
000FF00000
000FF00000
000FF00000
0000000000
0000000000
0000000000
0000000000
0000000000
0000000000
0000000000
0000000000
0000000000
0000000000
0000000000
0000000000
0000000000
0000000000
ENDCHAR
STARTCHAR U+0075
ENCODING 117
SWIDTH 1000 0
BBX 36 70 0 -14
DWIDTH 36 0
BITMAP
0000000000
0000000000
0000000000
0000000000
0000000000
0000000000
0000000000
0000000000
0000000000
0000000000
0000000000
0000000000
0000000000
0000000000
0000000000
0000000000
0000000000
0000000000
0000000000
0000000000
0000000000
FF000FF000
FF000FF000
FF000FF000
FF000FF000
FF000FF000
FF000FF000
FF000FF000
FF000FF000
FF000FF000
FF000FF000
FF000FF000
FF000FF000
FF000FF000
FF000FF000
FF000FF000
FF000FF000
FF000FF000
FF000FF000
FF000FF000
FF000FF000
FF000FF000
FF000FF000
FF000FF000
FF000FF000
FF000FF000
FF000FF000
FF000FF000
FF000FF000
0FFFFFFF00
0FFFFFFF00
0FFFFFFF00
0FFFFFFF00
0FFFFFFF00
0FFFFFFF00
0FFFFFFF00
0000000000
0000000000
0000000000
0000000000
0000000000
0000000000
0000000000
0000000000
0000000000
0000000000
0000000000
0000000000
0000000000
0000000000
ENDCHAR
STARTCHAR U+0074
ENCODING 116
SWIDTH 1000 0
BBX 36 70 0 -14
DWIDTH 36 0
BITMAP
0000000000
0000000000
0000000000
0000000000
0000000000
0000000000
0000000000
00FF000000
00FF000000
00FF000000
00FF000000
00FF000000
00FF000000
00FF000000
00FF000000
00FF000000
00FF000000
00FF000000
00FF000000
00FF000000
00FF000000
FFFFFF0000
FFFFFF0000
FFFFFF0000
FFFFFF0000
FFFFFF0000
FFFFFF0000
FFFFFF0000
00FF000000
00FF000000
00FF000000
00FF000000
00FF000000
00FF000000
00FF000000
00FF000000
00FF000000
00FF000000
00FF000000
00FF000000
00FF000000
00FF000000
00FF0FF000
00FF0FF000
00FF0FF000
00FF0FF000
00FF0FF000
00FF0FF000
00FF0FF000
000FFF0000
000FFF0000
000FFF0000
000FFF0000
000FFF0000
000FFF0000
000FFF0000
0000000000
0000000000
0000000000
0000000000
0000000000
0000000000
0000000000
0000000000
0000000000
0000000000
0000000000
0000000000
0000000000
0000000000
ENDCHAR
STARTCHAR U+0073
ENCODING 115
SWIDTH 1000 0
BBX 36 70 0 -14
DWIDTH 36 0
BITMAP
0000000000
0000000000
0000000000
0000000000
0000000000
0000000000
0000000000
0000000000
0000000000
0000000000
0000000000
0000000000
0000000000
0000000000
0000000000
0000000000
0000000000
0000000000
0000000000
0000000000
0000000000
0FFFFFF000
0FFFFFF000
0FFFFFF000
0FFFFFF000
0FFFFFF000
0FFFFFF000
0FFFFFF000
FF00000000
FF00000000
FF00000000
FF00000000
FF00000000
FF00000000
FF00000000
0FFFFFF000
0FFFFFF000
0FFFFFF000
0FFFFFF000
0FFFFFF000
0FFFFFF000
0FFFFFF000
000000FF00
000000FF00
000000FF00
000000FF00
000000FF00
000000FF00
000000FF00
FFFFFFF000
FFFFFFF000
FFFFFFF000
FFFFFFF000
FFFFFFF000
FFFFFFF000
FFFFFFF000
0000000000
0000000000
0000000000
0000000000
0000000000
0000000000
0000000000
0000000000
0000000000
0000000000
0000000000
0000000000
0000000000
0000000000
ENDCHAR
STARTCHAR U+0072
ENCODING 114
SWIDTH 1000 0
BBX 36 70 0 -14
DWIDTH 36 0
BITMAP
0000000000
0000000000
0000000000
0000000000
0000000000
0000000000
0000000000
0000000000
0000000000
0000000000
0000000000
0000000000
0000000000
0000000000
0000000000
0000000000
0000000000
0000000000
0000000000
0000000000
0000000000
FF0FFFF000
FF0FFFF000
FF0FFFF000
FF0FFFF000
FF0FFFF000
FF0FFFF000
FF0FFFF000
0FFF00FF00
0FFF00FF00
0FFF00FF00
0FFF00FF00
0FFF00FF00
0FFF00FF00
0FFF00FF00
0FF0000000
0FF0000000
0FF0000000
0FF0000000
0FF0000000
0FF0000000
0FF0000000
0FF0000000
0FF0000000
0FF0000000
0FF0000000
0FF0000000
0FF0000000
0FF0000000
0FF0000000
0FF0000000
0FF0000000
0FF0000000
0FF0000000
0FF0000000
0FF0000000
0000000000
0000000000
0000000000
0000000000
0000000000
0000000000
0000000000
0000000000
0000000000
0000000000
0000000000
0000000000
0000000000
0000000000
ENDCHAR
STARTCHAR U+0071
ENCODING 113
SWIDTH 1000 0
BBX 36 70 0 -14
DWIDTH 36 0
BITMAP
0000000000
0000000000
0000000000
0000000000
0000000000
0000000000
0000000000
0000000000
0000000000
0000000000
0000000000
0000000000
0000000000
0000000000
0000000000
0000000000
0000000000
0000000000
0000000000
0000000000
0000000000
0FFFFFFF00
0FFFFFFF00
0FFFFFFF00
0FFFFFFF00
0FFFFFFF00
0FFFFFFF00
0FFFFFFF00
FF000FFF00
FF000FFF00
FF000FFF00
FF000FFF00
FF000FFF00
FF000FFF00
FF000FFF00
FF000FFF00
FF000FFF00
FF000FFF00
FF000FFF00
FF000FFF00
FF000FFF00
FF000FFF00
0FFFFFFF00
0FFFFFFF00
0FFFFFFF00
0FFFFFFF00
0FFFFFFF00
0FFFFFFF00
0FFFFFFF00
000000FF00
000000FF00
000000FF00
000000FF00
000000FF00
000000FF00
000000FF00
000000FF00
000000FF00
000000FF00
000000FF00
000000FF00
000000FF00
000000FF00
000000FF00
000000FF00
000000FF00
000000FF00
000000FF00
000000FF00
000000FF00
ENDCHAR
STARTCHAR U+0070
ENCODING 112
SWIDTH 1000 0
BBX 36 70 0 -14
DWIDTH 36 0
BITMAP
0000000000
0000000000
0000000000
0000000000
0000000000
0000000000
0000000000
0000000000
0000000000
0000000000
0000000000
0000000000
0000000000
0000000000
0000000000
0000000000
0000000000
0000000000
0000000000
0000000000
0000000000
FFFFFFF000
FFFFFFF000
FFFFFFF000
FFFFFFF000
FFFFFFF000
FFFFFFF000
FFFFFFF000
FFF000FF00
FFF000FF00
FFF000FF00
FFF000FF00
FFF000FF00
FFF000FF00
FFF000FF00
FFF000FF00
FFF000FF00
FFF000FF00
FFF000FF00
FFF000FF00
FFF000FF00
FFF000FF00
FFFFFFF000
FFFFFFF000
FFFFFFF000
FFFFFFF000
FFFFFFF000
FFFFFFF000
FFFFFFF000
FF00000000
FF00000000
FF00000000
FF00000000
FF00000000
FF00000000
FF00000000
FF00000000
FF00000000
FF00000000
FF00000000
FF00000000
FF00000000
FF00000000
FF00000000
FF00000000
FF00000000
FF00000000
FF00000000
FF00000000
FF00000000
ENDCHAR
STARTCHAR U+006f
ENCODING 111
SWIDTH 1000 0
BBX 36 70 0 -14
DWIDTH 36 0
BITMAP
0000000000
0000000000
0000000000
0000000000
0000000000
0000000000
0000000000
0000000000
0000000000
0000000000
0000000000
0000000000
0000000000
0000000000
0000000000
0000000000
0000000000
0000000000
0000000000
0000000000
0000000000
0FFFFFF000
0FFFFFF000
0FFFFFF000
0FFFFFF000
0FFFFFF000
0FFFFFF000
0FFFFFF000
FF0000FF00
FF0000FF00
FF0000FF00
FF0000FF00
FF0000FF00
FF0000FF00
FF0000FF00
FF0000FF00
FF0000FF00
FF0000FF00
FF0000FF00
FF0000FF00
FF0000FF00
FF0000FF00
FF0000FF00
FF0000FF00
FF0000FF00
FF0000FF00
FF0000FF00
FF0000FF00
FF0000FF00
0FFFFFF000
0FFFFFF000
0FFFFFF000
0FFFFFF000
0FFFFFF000
0FFFFFF000
0FFFFFF000
0000000000
0000000000
0000000000
0000000000
0000000000
0000000000
0000000000
0000000000
0000000000
0000000000
0000000000
0000000000
0000000000
0000000000
ENDCHAR
STARTCHAR U+006e
ENCODING 110
SWIDTH 1000 0
BBX 36 70 0 -14
DWIDTH 36 0
BITMAP
0000000000
0000000000
0000000000
0000000000
0000000000
0000000000
0000000000
0000000000
0000000000
0000000000
0000000000
0000000000
0000000000
0000000000
0000000000
0000000000
0000000000
0000000000
0000000000
0000000000
0000000000
FFFFFFF000
FFFFFFF000
FFFFFFF000
FFFFFFF000
FFFFFFF000
FFFFFFF000
FFFFFFF000
FFF000FF00
FFF000FF00
FFF000FF00
FFF000FF00
FFF000FF00
FFF000FF00
FFF000FF00
FF0000FF00
FF0000FF00
FF0000FF00
FF0000FF00
FF0000FF00
FF0000FF00
FF0000FF00
FF0000FF00
FF0000FF00
FF0000FF00
FF0000FF00
FF0000FF00
FF0000FF00
FF0000FF00
FF0000FF00
FF0000FF00
FF0000FF00
FF0000FF00
FF0000FF00
FF0000FF00
FF0000FF00
0000000000
0000000000
0000000000
0000000000
0000000000
0000000000
0000000000
0000000000
0000000000
0000000000
0000000000
0000000000
0000000000
0000000000
ENDCHAR
STARTCHAR U+006d
ENCODING 109
SWIDTH 1000 0
BBX 36 70 0 -14
DWIDTH 36 0
BITMAP
0000000000
0000000000
0000000000
0000000000
0000000000
0000000000
0000000000
0000000000
0000000000
0000000000
0000000000
0000000000
0000000000
0000000000
0000000000
0000000000
0000000000
0000000000
0000000000
0000000000
0000000000
FFF00FF000
FFF00FF000
FFF00FF000
FFF00FF000
FFF00FF000
FFF00FF000
FFF00FF000
FFFFFFFF00
FFFFFFFF00
FFFFFFFF00
FFFFFFFF00
FFFFFFFF00
FFFFFFFF00
FFFFFFFF00
FF0FF0FF00
FF0FF0FF00
FF0FF0FF00
FF0FF0FF00
FF0FF0FF00
FF0FF0FF00
FF0FF0FF00
FF0FF0FF00
FF0FF0FF00
FF0FF0FF00
FF0FF0FF00
FF0FF0FF00
FF0FF0FF00
FF0FF0FF00
FF0000FF00
FF0000FF00
FF0000FF00
FF0000FF00
FF0000FF00
FF0000FF00
FF0000FF00
0000000000
0000000000
0000000000
0000000000
0000000000
0000000000
0000000000
0000000000
0000000000
0000000000
0000000000
0000000000
0000000000
0000000000
ENDCHAR
STARTCHAR U+006c
ENCODING 108
SWIDTH 1000 0
BBX 36 70 0 -14
DWIDTH 36 0
BITMAP
0000000000
0000000000
0000000000
0000000000
0000000000
0000000000
0000000000
00FFF00000
00FFF00000
00FFF00000
00FFF00000
00FFF00000
00FFF00000
00FFF00000
000FF00000
000FF00000
000FF00000
000FF00000
000FF00000
000FF00000
000FF00000
000FF00000
000FF00000
000FF00000
000FF00000
000FF00000
000FF00000
000FF00000
000FF00000
000FF00000
000FF00000
000FF00000
000FF00000
000FF00000
000FF00000
000FF00000
000FF00000
000FF00000
000FF00000
000FF00000
000FF00000
000FF00000
000FF00000
000FF00000
000FF00000
000FF00000
000FF00000
000FF00000
000FF00000
00FFFF0000
00FFFF0000
00FFFF0000
00FFFF0000
00FFFF0000
00FFFF0000
00FFFF0000
0000000000
0000000000
0000000000
0000000000
0000000000
0000000000
0000000000
0000000000
0000000000
0000000000
0000000000
0000000000
0000000000
0000000000
ENDCHAR
STARTCHAR U+006b
ENCODING 107
SWIDTH 1000 0
BBX 36 70 0 -14
DWIDTH 36 0
BITMAP
0000000000
0000000000
0000000000
0000000000
0000000000
0000000000
0000000000
FF00000000
FF00000000
FF00000000
FF00000000
FF00000000
FF00000000
FF00000000
FF00000000
FF00000000
FF00000000
FF00000000
FF00000000
FF00000000
FF00000000
FF00FF0000
FF00FF0000
FF00FF0000
FF00FF0000
FF00FF0000
FF00FF0000
FF00FF0000
FF0FF00000
FF0FF00000
FF0FF00000
FF0FF00000
FF0FF00000
FF0FF00000
FF0FF00000
FFFF000000
FFFF000000
FFFF000000
FFFF000000
FFFF000000
FFFF000000
FFFF000000
FF00FF0000
FF00FF0000
FF00FF0000
FF00FF0000
FF00FF0000
FF00FF0000
FF00FF0000
FF0000FF00
FF0000FF00
FF0000FF00
FF0000FF00
FF0000FF00
FF0000FF00
FF0000FF00
0000000000
0000000000
0000000000
0000000000
0000000000
0000000000
0000000000
0000000000
0000000000
0000000000
0000000000
0000000000
0000000000
0000000000
ENDCHAR
STARTCHAR U+006a
ENCODING 106
SWIDTH 1000 0
BBX 36 70 0 -14
DWIDTH 36 0
BITMAP
0000000000
0000000000
0000000000
0000000000
0000000000
0000000000
0000000000
00000FF000
00000FF000
00000FF000
00000FF000
00000FF000
00000FF000
00000FF000
0000000000
0000000000
0000000000
0000000000
0000000000
0000000000
0000000000
00000FF000
00000FF000
00000FF000
00000FF000
00000FF000
00000FF000
00000FF000
00000FF000
00000FF000
00000FF000
00000FF000
00000FF000
00000FF000
00000FF000
00000FF000
00000FF000
00000FF000
00000FF000
00000FF000
00000FF000
00000FF000
00000FF000
00000FF000
00000FF000
00000FF000
00000FF000
00000FF000
00000FF000
FF000FF000
FF000FF000
FF000FF000
FF000FF000
FF000FF000
FF000FF000
FF000FF000
FF000FF000
FF000FF000
FF000FF000
FF000FF000
FF000FF000
FF000FF000
FF000FF000
0FFFFF0000
0FFFFF0000
0FFFFF0000
0FFFFF0000
0FFFFF0000
0FFFFF0000
0FFFFF0000
ENDCHAR
STARTCHAR U+0069
ENCODING 105
SWIDTH 1000 0
BBX 36 70 0 -14
DWIDTH 36 0
BITMAP
0000000000
0000000000
0000000000
0000000000
0000000000
0000000000
0000000000
000FF00000
000FF00000
000FF00000
000FF00000
000FF00000
000FF00000
000FF00000
0000000000
0000000000
0000000000
0000000000
0000000000
0000000000
0000000000
00FFF00000
00FFF00000
00FFF00000
00FFF00000
00FFF00000
00FFF00000
00FFF00000
000FF00000
000FF00000
000FF00000
000FF00000
000FF00000
000FF00000
000FF00000
000FF00000
000FF00000
000FF00000
000FF00000
000FF00000
000FF00000
000FF00000
000FF00000
000FF00000
000FF00000
000FF00000
000FF00000
000FF00000
000FF00000
0FFFFFF000
0FFFFFF000
0FFFFFF000
0FFFFFF000
0FFFFFF000
0FFFFFF000
0FFFFFF000
0000000000
0000000000
0000000000
0000000000
0000000000
0000000000
0000000000
0000000000
0000000000
0000000000
0000000000
0000000000
0000000000
0000000000
ENDCHAR
STARTCHAR U+0068
ENCODING 104
SWIDTH 1000 0
BBX 36 70 0 -14
DWIDTH 36 0
BITMAP
0000000000
0000000000
0000000000
0000000000
0000000000
0000000000
0000000000
FF00000000
FF00000000
FF00000000
FF00000000
FF00000000
FF00000000
FF00000000
FF00000000
FF00000000
FF00000000
FF00000000
FF00000000
FF00000000
FF00000000
FFFFFFF000
FFFFFFF000
FFFFFFF000
FFFFFFF000
FFFFFFF000
FFFFFFF000
FFFFFFF000
FFF000FF00
FFF000FF00
FFF000FF00
FFF000FF00
FFF000FF00
FFF000FF00
FFF000FF00
FF0000FF00
FF0000FF00
FF0000FF00
FF0000FF00
FF0000FF00
FF0000FF00
FF0000FF00
FF0000FF00
FF0000FF00
FF0000FF00
FF0000FF00
FF0000FF00
FF0000FF00
FF0000FF00
FF0000FF00
FF0000FF00
FF0000FF00
FF0000FF00
FF0000FF00
FF0000FF00
FF0000FF00
0000000000
0000000000
0000000000
0000000000
0000000000
0000000000
0000000000
0000000000
0000000000
0000000000
0000000000
0000000000
0000000000
0000000000
ENDCHAR
STARTCHAR U+0067
ENCODING 103
SWIDTH 1000 0
BBX 36 70 0 -14
DWIDTH 36 0
BITMAP
0000000000
0000000000
0000000000
0000000000
0000000000
0000000000
0000000000
0000000000
0000000000
0000000000
0000000000
0000000000
0000000000
0000000000
0000000000
0000000000
0000000000
0000000000
0000000000
0000000000
0000000000
0FFFFFFF00
0FFFFFFF00
0FFFFFFF00
0FFFFFFF00
0FFFFFFF00
0FFFFFFF00
0FFFFFFF00
FF000FF000
FF000FF000
FF000FF000
FF000FF000
FF000FF000
FF000FF000
FF000FF000
0FFFFF0000
0FFFFF0000
0FFFFF0000
0FFFFF0000
0FFFFF0000
0FFFFF0000
0FFFFF0000
FF00000000
FF00000000
FF00000000
FF00000000
FF00000000
FF00000000
FF00000000
0FFFFFF000
0FFFFFF000
0FFFFFF000
0FFFFFF000
0FFFFFF000
0FFFFFF000
0FFFFFF000
FF0000FF00
FF0000FF00
FF0000FF00
FF0000FF00
FF0000FF00
FF0000FF00
FF0000FF00
0FFFFFF000
0FFFFFF000
0FFFFFF000
0FFFFFF000
0FFFFFF000
0FFFFFF000
0FFFFFF000
ENDCHAR
STARTCHAR U+0066
ENCODING 102
SWIDTH 1000 0
BBX 36 70 0 -14
DWIDTH 36 0
BITMAP
0000000000
0000000000
0000000000
0000000000
0000000000
0000000000
0000000000
000FFFF000
000FFFF000
000FFFF000
000FFFF000
000FFFF000
000FFFF000
000FFFF000
00FF00FF00
00FF00FF00
00FF00FF00
00FF00FF00
00FF00FF00
00FF00FF00
00FF00FF00
00FF000000
00FF000000
00FF000000
00FF000000
00FF000000
00FF000000
00FF000000
FFFFFF0000
FFFFFF0000
FFFFFF0000
FFFFFF0000
FFFFFF0000
FFFFFF0000
FFFFFF0000
00FF000000
00FF000000
00FF000000
00FF000000
00FF000000
00FF000000
00FF000000
00FF000000
00FF000000
00FF000000
00FF000000
00FF000000
00FF000000
00FF000000
00FF000000
00FF000000
00FF000000
00FF000000
00FF000000
00FF000000
00FF000000
0000000000
0000000000
0000000000
0000000000
0000000000
0000000000
0000000000
0000000000
0000000000
0000000000
0000000000
0000000000
0000000000
0000000000
ENDCHAR
STARTCHAR U+0065
ENCODING 101
SWIDTH 1000 0
BBX 36 70 0 -14
DWIDTH 36 0
BITMAP
0000000000
0000000000
0000000000
0000000000
0000000000
0000000000
0000000000
0000000000
0000000000
0000000000
0000000000
0000000000
0000000000
0000000000
0000000000
0000000000
0000000000
0000000000
0000000000
0000000000
0000000000
0FFFFFF000
0FFFFFF000
0FFFFFF000
0FFFFFF000
0FFFFFF000
0FFFFFF000
0FFFFFF000
FF0000FF00
FF0000FF00
FF0000FF00
FF0000FF00
FF0000FF00
FF0000FF00
FF0000FF00
FFFFFFFF00
FFFFFFFF00
FFFFFFFF00
FFFFFFFF00
FFFFFFFF00
FFFFFFFF00
FFFFFFFF00
FF00000000
FF00000000
FF00000000
FF00000000
FF00000000
FF00000000
FF00000000
0FFFFFF000
0FFFFFF000
0FFFFFF000
0FFFFFF000
0FFFFFF000
0FFFFFF000
0FFFFFF000
0000000000
0000000000
0000000000
0000000000
0000000000
0000000000
0000000000
0000000000
0000000000
0000000000
0000000000
0000000000
0000000000
0000000000
ENDCHAR
STARTCHAR U+0064
ENCODING 100
SWIDTH 1000 0
BBX 36 70 0 -14
DWIDTH 36 0
BITMAP
0000000000
0000000000
0000000000
0000000000
0000000000
0000000000
0000000000
000000FF00
000000FF00
000000FF00
000000FF00
000000FF00
000000FF00
000000FF00
000000FF00
000000FF00
000000FF00
000000FF00
000000FF00
000000FF00
000000FF00
0FFFFFFF00
0FFFFFFF00
0FFFFFFF00
0FFFFFFF00
0FFFFFFF00
0FFFFFFF00
0FFFFFFF00
FF000FFF00
FF000FFF00
FF000FFF00
FF000FFF00
FF000FFF00
FF000FFF00
FF000FFF00
FF0000FF00
FF0000FF00
FF0000FF00
FF0000FF00
FF0000FF00
FF0000FF00
FF0000FF00
FF000FFF00
FF000FFF00
FF000FFF00
FF000FFF00
FF000FFF00
FF000FFF00
FF000FFF00
0FFFFFFF00
0FFFFFFF00
0FFFFFFF00
0FFFFFFF00
0FFFFFFF00
0FFFFFFF00
0FFFFFFF00
0000000000
0000000000
0000000000
0000000000
0000000000
0000000000
0000000000
0000000000
0000000000
0000000000
0000000000
0000000000
0000000000
0000000000
ENDCHAR
STARTCHAR U+0063
ENCODING 99
SWIDTH 1000 0
BBX 36 70 0 -14
DWIDTH 36 0
BITMAP
0000000000
0000000000
0000000000
0000000000
0000000000
0000000000
0000000000
0000000000
0000000000
0000000000
0000000000
0000000000
0000000000
0000000000
0000000000
0000000000
0000000000
0000000000
0000000000
0000000000
0000000000
0FFFFFF000
0FFFFFF000
0FFFFFF000
0FFFFFF000
0FFFFFF000
0FFFFFF000
0FFFFFF000
FF0000FF00
FF0000FF00
FF0000FF00
FF0000FF00
FF0000FF00
FF0000FF00
FF0000FF00
FF00000000
FF00000000
FF00000000
FF00000000
FF00000000
FF00000000
FF00000000
FF00000000
FF00000000
FF00000000
FF00000000
FF00000000
FF00000000
FF00000000
0FFFFFFF00
0FFFFFFF00
0FFFFFFF00
0FFFFFFF00
0FFFFFFF00
0FFFFFFF00
0FFFFFFF00
0000000000
0000000000
0000000000
0000000000
0000000000
0000000000
0000000000
0000000000
0000000000
0000000000
0000000000
0000000000
0000000000
0000000000
ENDCHAR
STARTCHAR U+0062
ENCODING 98
SWIDTH 1000 0
BBX 36 70 0 -14
DWIDTH 36 0
BITMAP
0000000000
0000000000
0000000000
0000000000
0000000000
0000000000
0000000000
FF00000000
FF00000000
FF00000000
FF00000000
FF00000000
FF00000000
FF00000000
FF00000000
FF00000000
FF00000000
FF00000000
FF00000000
FF00000000
FF00000000
FFFFFFF000
FFFFFFF000
FFFFFFF000
FFFFFFF000
FFFFFFF000
FFFFFFF000
FFFFFFF000
FFF000FF00
FFF000FF00
FFF000FF00
FFF000FF00
FFF000FF00
FFF000FF00
FFF000FF00
FF0000FF00
FF0000FF00
FF0000FF00
FF0000FF00
FF0000FF00
FF0000FF00
FF0000FF00
FFF000FF00
FFF000FF00
FFF000FF00
FFF000FF00
FFF000FF00
FFF000FF00
FFF000FF00
FFFFFFF000
FFFFFFF000
FFFFFFF000
FFFFFFF000
FFFFFFF000
FFFFFFF000
FFFFFFF000
0000000000
0000000000
0000000000
0000000000
0000000000
0000000000
0000000000
0000000000
0000000000
0000000000
0000000000
0000000000
0000000000
0000000000
ENDCHAR
STARTCHAR U+0061
ENCODING 97
SWIDTH 1000 0
BBX 36 70 0 -14
DWIDTH 36 0
BITMAP
0000000000
0000000000
0000000000
0000000000
0000000000
0000000000
0000000000
0000000000
0000000000
0000000000
0000000000
0000000000
0000000000
0000000000
0000000000
0000000000
0000000000
0000000000
0000000000
0000000000
0000000000
0FFFFFF000
0FFFFFF000
0FFFFFF000
0FFFFFF000
0FFFFFF000
0FFFFFF000
0FFFFFF000
000000FF00
000000FF00
000000FF00
000000FF00
000000FF00
000000FF00
000000FF00
0FFFFFFF00
0FFFFFFF00
0FFFFFFF00
0FFFFFFF00
0FFFFFFF00
0FFFFFFF00
0FFFFFFF00
FF000FFF00
FF000FFF00
FF000FFF00
FF000FFF00
FF000FFF00
FF000FFF00
FF000FFF00
0FFFFFFF00
0FFFFFFF00
0FFFFFFF00
0FFFFFFF00
0FFFFFFF00
0FFFFFFF00
0FFFFFFF00
0000000000
0000000000
0000000000
0000000000
0000000000
0000000000
0000000000
0000000000
0000000000
0000000000
0000000000
0000000000
0000000000
0000000000
ENDCHAR
STARTCHAR U+0060
ENCODING 96
SWIDTH 1000 0
BBX 36 70 0 -14
DWIDTH 36 0
BITMAP
0000000000
0000000000
0000000000
0000000000
0000000000
0000000000
0000000000
00FFF00000
00FFF00000
00FFF00000
00FFF00000
00FFF00000
00FFF00000
00FFF00000
000FF00000
000FF00000
000FF00000
000FF00000
000FF00000
000FF00000
000FF00000
0000FF0000
0000FF0000
0000FF0000
0000FF0000
0000FF0000
0000FF0000
0000FF0000
0000000000
0000000000
0000000000
0000000000
0000000000
0000000000
0000000000
0000000000
0000000000
0000000000
0000000000
0000000000
0000000000
0000000000
0000000000
0000000000
0000000000
0000000000
0000000000
0000000000
0000000000
0000000000
0000000000
0000000000
0000000000
0000000000
0000000000
0000000000
0000000000
0000000000
0000000000
0000000000
0000000000
0000000000
0000000000
0000000000
0000000000
0000000000
0000000000
0000000000
0000000000
0000000000
ENDCHAR
STARTCHAR U+005F
ENCODING 95
SWIDTH 1000 0
BBX 36 70 0 -14
DWIDTH 36 0
BITMAP
0000000000
0000000000
0000000000
0000000000
0000000000
0000000000
0000000000
0000000000
0000000000
0000000000
0000000000
0000000000
0000000000
0000000000
0000000000
0000000000
0000000000
0000000000
0000000000
0000000000
0000000000
0000000000
0000000000
0000000000
0000000000
0000000000
0000000000
0000000000
0000000000
0000000000
0000000000
0000000000
0000000000
0000000000
0000000000
0000000000
0000000000
0000000000
0000000000
0000000000
0000000000
0000000000
0000000000
0000000000
0000000000
0000000000
0000000000
0000000000
0000000000
FFFFFFFF00
FFFFFFFF00
FFFFFFFF00
FFFFFFFF00
FFFFFFFF00
FFFFFFFF00
FFFFFFFF00
0000000000
0000000000
0000000000
0000000000
0000000000
0000000000
0000000000
0000000000
0000000000
0000000000
0000000000
0000000000
0000000000
0000000000
ENDCHAR
STARTCHAR U+005E
ENCODING 94
SWIDTH 1000 0
BBX 36 70 0 -14
DWIDTH 36 0
BITMAP
0000000000
0000000000
0000000000
0000000000
0000000000
0000000000
0000000000
000FF00000
000FF00000
000FF00000
000FF00000
000FF00000
000FF00000
000FF00000
00FFFF0000
00FFFF0000
00FFFF0000
00FFFF0000
00FFFF0000
00FFFF0000
00FFFF0000
0FF00FF000
0FF00FF000
0FF00FF000
0FF00FF000
0FF00FF000
0FF00FF000
0FF00FF000
FF0000FF00
FF0000FF00
FF0000FF00
FF0000FF00
FF0000FF00
FF0000FF00
FF0000FF00
0000000000
0000000000
0000000000
0000000000
0000000000
0000000000
0000000000
0000000000
0000000000
0000000000
0000000000
0000000000
0000000000
0000000000
0000000000
0000000000
0000000000
0000000000
0000000000
0000000000
0000000000
0000000000
0000000000
0000000000
0000000000
0000000000
0000000000
0000000000
0000000000
0000000000
0000000000
0000000000
0000000000
0000000000
0000000000
ENDCHAR
STARTCHAR U+005D
ENCODING 93
SWIDTH 1000 0
BBX 36 70 0 -14
DWIDTH 36 0
BITMAP
0000000000
0000000000
0000000000
0000000000
0000000000
0000000000
0000000000
0FFFFF0000
0FFFFF0000
0FFFFF0000
0FFFFF0000
0FFFFF0000
0FFFFF0000
0FFFFF0000
0000FF0000
0000FF0000
0000FF0000
0000FF0000
0000FF0000
0000FF0000
0000FF0000
0000FF0000
0000FF0000
0000FF0000
0000FF0000
0000FF0000
0000FF0000
0000FF0000
0000FF0000
0000FF0000
0000FF0000
0000FF0000
0000FF0000
0000FF0000
0000FF0000
0000FF0000
0000FF0000
0000FF0000
0000FF0000
0000FF0000
0000FF0000
0000FF0000
0000FF0000
0000FF0000
0000FF0000
0000FF0000
0000FF0000
0000FF0000
0000FF0000
0FFFFF0000
0FFFFF0000
0FFFFF0000
0FFFFF0000
0FFFFF0000
0FFFFF0000
0FFFFF0000
0000000000
0000000000
0000000000
0000000000
0000000000
0000000000
0000000000
0000000000
0000000000
0000000000
0000000000
0000000000
0000000000
0000000000
ENDCHAR
STARTCHAR U+005C
ENCODING 92
SWIDTH 1000 0
BBX 36 70 0 -14
DWIDTH 36 0
BITMAP
0000000000
0000000000
0000000000
0000000000
0000000000
0000000000
0000000000
FF00000000
FF00000000
FF00000000
FF00000000
FF00000000
FF00000000
FF00000000
0FF0000000
0FF0000000
0FF0000000
0FF0000000
0FF0000000
0FF0000000
0FF0000000
00FF000000
00FF000000
00FF000000
00FF000000
00FF000000
00FF000000
00FF000000
000FF00000
000FF00000
000FF00000
000FF00000
000FF00000
000FF00000
000FF00000
0000FF0000
0000FF0000
0000FF0000
0000FF0000
0000FF0000
0000FF0000
0000FF0000
00000FF000
00000FF000
00000FF000
00000FF000
00000FF000
00000FF000
00000FF000
000000FF00
000000FF00
000000FF00
000000FF00
000000FF00
000000FF00
000000FF00
0000000000
0000000000
0000000000
0000000000
0000000000
0000000000
0000000000
0000000000
0000000000
0000000000
0000000000
0000000000
0000000000
0000000000
ENDCHAR
STARTCHAR U+005B
ENCODING 91
SWIDTH 1000 0
BBX 36 70 0 -14
DWIDTH 36 0
BITMAP
0000000000
0000000000
0000000000
0000000000
0000000000
0000000000
0000000000
00FFFFF000
00FFFFF000
00FFFFF000
00FFFFF000
00FFFFF000
00FFFFF000
00FFFFF000
00FF000000
00FF000000
00FF000000
00FF000000
00FF000000
00FF000000
00FF000000
00FF000000
00FF000000
00FF000000
00FF000000
00FF000000
00FF000000
00FF000000
00FF000000
00FF000000
00FF000000
00FF000000
00FF000000
00FF000000
00FF000000
00FF000000
00FF000000
00FF000000
00FF000000
00FF000000
00FF000000
00FF000000
00FF000000
00FF000000
00FF000000
00FF000000
00FF000000
00FF000000
00FF000000
00FFFFF000
00FFFFF000
00FFFFF000
00FFFFF000
00FFFFF000
00FFFFF000
00FFFFF000
0000000000
0000000000
0000000000
0000000000
0000000000
0000000000
0000000000
0000000000
0000000000
0000000000
0000000000
0000000000
0000000000
0000000000
ENDCHAR
STARTCHAR U+005A
ENCODING 90
SWIDTH 1000 0
BBX 36 70 0 -14
DWIDTH 36 0
BITMAP
0000000000
0000000000
0000000000
0000000000
0000000000
0000000000
0000000000
FFFFFFFF00
FFFFFFFF00
FFFFFFFF00
FFFFFFFF00
FFFFFFFF00
FFFFFFFF00
FFFFFFFF00
00000FF000
00000FF000
00000FF000
00000FF000
00000FF000
00000FF000
00000FF000
0000FF0000
0000FF0000
0000FF0000
0000FF0000
0000FF0000
0000FF0000
0000FF0000
000FF00000
000FF00000
000FF00000
000FF00000
000FF00000
000FF00000
000FF00000
00FF000000
00FF000000
00FF000000
00FF000000
00FF000000
00FF000000
00FF000000
0FF0000000
0FF0000000
0FF0000000
0FF0000000
0FF0000000
0FF0000000
0FF0000000
FFFFFFFF00
FFFFFFFF00
FFFFFFFF00
FFFFFFFF00
FFFFFFFF00
FFFFFFFF00
FFFFFFFF00
0000000000
0000000000
0000000000
0000000000
0000000000
0000000000
0000000000
0000000000
0000000000
0000000000
0000000000
0000000000
0000000000
0000000000
ENDCHAR
STARTCHAR U+0059
ENCODING 89
SWIDTH 1000 0
BBX 36 70 0 -14
DWIDTH 36 0
BITMAP
0000000000
0000000000
0000000000
0000000000
0000000000
0000000000
0000000000
FF0000FF00
FF0000FF00
FF0000FF00
FF0000FF00
FF0000FF00
FF0000FF00
FF0000FF00
0FF00FF000
0FF00FF000
0FF00FF000
0FF00FF000
0FF00FF000
0FF00FF000
0FF00FF000
00FFFF0000
00FFFF0000
00FFFF0000
00FFFF0000
00FFFF0000
00FFFF0000
00FFFF0000
000FF00000
000FF00000
000FF00000
000FF00000
000FF00000
000FF00000
000FF00000
000FF00000
000FF00000
000FF00000
000FF00000
000FF00000
000FF00000
000FF00000
000FF00000
000FF00000
000FF00000
000FF00000
000FF00000
000FF00000
000FF00000
000FF00000
000FF00000
000FF00000
000FF00000
000FF00000
000FF00000
000FF00000
0000000000
0000000000
0000000000
0000000000
0000000000
0000000000
0000000000
0000000000
0000000000
0000000000
0000000000
0000000000
0000000000
0000000000
ENDCHAR
STARTCHAR U+0058
ENCODING 88
SWIDTH 1000 0
BBX 36 70 0 -14
DWIDTH 36 0
BITMAP
0000000000
0000000000
0000000000
0000000000
0000000000
0000000000
0000000000
FF0000FF00
FF0000FF00
FF0000FF00
FF0000FF00
FF0000FF00
FF0000FF00
FF0000FF00
0FF00FF000
0FF00FF000
0FF00FF000
0FF00FF000
0FF00FF000
0FF00FF000
0FF00FF000
00FFFF0000
00FFFF0000
00FFFF0000
00FFFF0000
00FFFF0000
00FFFF0000
00FFFF0000
000FF00000
000FF00000
000FF00000
000FF00000
000FF00000
000FF00000
000FF00000
00FFFF0000
00FFFF0000
00FFFF0000
00FFFF0000
00FFFF0000
00FFFF0000
00FFFF0000
0FF00FF000
0FF00FF000
0FF00FF000
0FF00FF000
0FF00FF000
0FF00FF000
0FF00FF000
FF0000FF00
FF0000FF00
FF0000FF00
FF0000FF00
FF0000FF00
FF0000FF00
FF0000FF00
0000000000
0000000000
0000000000
0000000000
0000000000
0000000000
0000000000
0000000000
0000000000
0000000000
0000000000
0000000000
0000000000
0000000000
ENDCHAR
STARTCHAR U+0057
ENCODING 87
SWIDTH 1000 0
BBX 36 70 0 -14
DWIDTH 36 0
BITMAP
0000000000
0000000000
0000000000
0000000000
0000000000
0000000000
0000000000
FF0000FF00
FF0000FF00
FF0000FF00
FF0000FF00
FF0000FF00
FF0000FF00
FF0000FF00
FF0000FF00
FF0000FF00
FF0000FF00
FF0000FF00
FF0000FF00
FF0000FF00
FF0000FF00
FF0000FF00
FF0000FF00
FF0000FF00
FF0000FF00
FF0000FF00
FF0000FF00
FF0000FF00
FF0FF0FF00
FF0FF0FF00
FF0FF0FF00
FF0FF0FF00
FF0FF0FF00
FF0FF0FF00
FF0FF0FF00
FF0FF0FF00
FF0FF0FF00
FF0FF0FF00
FF0FF0FF00
FF0FF0FF00
FF0FF0FF00
FF0FF0FF00
FFFFFFFF00
FFFFFFFF00
FFFFFFFF00
FFFFFFFF00
FFFFFFFF00
FFFFFFFF00
FFFFFFFF00
0FF00FF000
0FF00FF000
0FF00FF000
0FF00FF000
0FF00FF000
0FF00FF000
0FF00FF000
0000000000
0000000000
0000000000
0000000000
0000000000
0000000000
0000000000
0000000000
0000000000
0000000000
0000000000
0000000000
0000000000
0000000000
ENDCHAR
STARTCHAR U+0056
ENCODING 86
SWIDTH 1000 0
BBX 36 70 0 -14
DWIDTH 36 0
BITMAP
0000000000
0000000000
0000000000
0000000000
0000000000
0000000000
0000000000
FF0000FF00
FF0000FF00
FF0000FF00
FF0000FF00
FF0000FF00
FF0000FF00
FF0000FF00
FF0000FF00
FF0000FF00
FF0000FF00
FF0000FF00
FF0000FF00
FF0000FF00
FF0000FF00
0FF00FF000
0FF00FF000
0FF00FF000
0FF00FF000
0FF00FF000
0FF00FF000
0FF00FF000
0FF00FF000
0FF00FF000
0FF00FF000
0FF00FF000
0FF00FF000
0FF00FF000
0FF00FF000
00FFFF0000
00FFFF0000
00FFFF0000
00FFFF0000
00FFFF0000
00FFFF0000
00FFFF0000
00FFFF0000
00FFFF0000
00FFFF0000
00FFFF0000
00FFFF0000
00FFFF0000
00FFFF0000
000FF00000
000FF00000
000FF00000
000FF00000
000FF00000
000FF00000
000FF00000
0000000000
0000000000
0000000000
0000000000
0000000000
0000000000
0000000000
0000000000
0000000000
0000000000
0000000000
0000000000
0000000000
0000000000
ENDCHAR
STARTCHAR U+0055
ENCODING 85
SWIDTH 1000 0
BBX 36 70 0 -14
DWIDTH 36 0
BITMAP
0000000000
0000000000
0000000000
0000000000
0000000000
0000000000
0000000000
FF0000FF00
FF0000FF00
FF0000FF00
FF0000FF00
FF0000FF00
FF0000FF00
FF0000FF00
FF0000FF00
FF0000FF00
FF0000FF00
FF0000FF00
FF0000FF00
FF0000FF00
FF0000FF00
FF0000FF00
FF0000FF00
FF0000FF00
FF0000FF00
FF0000FF00
FF0000FF00
FF0000FF00
FF0000FF00
FF0000FF00
FF0000FF00
FF0000FF00
FF0000FF00
FF0000FF00
FF0000FF00
FF0000FF00
FF0000FF00
FF0000FF00
FF0000FF00
FF0000FF00
FF0000FF00
FF0000FF00
FF0000FF00
FF0000FF00
FF0000FF00
FF0000FF00
FF0000FF00
FF0000FF00
FF0000FF00
0FFFFFF000
0FFFFFF000
0FFFFFF000
0FFFFFF000
0FFFFFF000
0FFFFFF000
0FFFFFF000
0000000000
0000000000
0000000000
0000000000
0000000000
0000000000
0000000000
0000000000
0000000000
0000000000
0000000000
0000000000
0000000000
0000000000
ENDCHAR
STARTCHAR U+0054
ENCODING 84
SWIDTH 1000 0
BBX 36 70 0 -14
DWIDTH 36 0
BITMAP
0000000000
0000000000
0000000000
0000000000
0000000000
0000000000
0000000000
FFFFFFFF00
FFFFFFFF00
FFFFFFFF00
FFFFFFFF00
FFFFFFFF00
FFFFFFFF00
FFFFFFFF00
000FF00000
000FF00000
000FF00000
000FF00000
000FF00000
000FF00000
000FF00000
000FF00000
000FF00000
000FF00000
000FF00000
000FF00000
000FF00000
000FF00000
000FF00000
000FF00000
000FF00000
000FF00000
000FF00000
000FF00000
000FF00000
000FF00000
000FF00000
000FF00000
000FF00000
000FF00000
000FF00000
000FF00000
000FF00000
000FF00000
000FF00000
000FF00000
000FF00000
000FF00000
000FF00000
000FF00000
000FF00000
000FF00000
000FF00000
000FF00000
000FF00000
000FF00000
0000000000
0000000000
0000000000
0000000000
0000000000
0000000000
0000000000
0000000000
0000000000
0000000000
0000000000
0000000000
0000000000
0000000000
ENDCHAR
STARTCHAR U+0053
ENCODING 83
SWIDTH 1000 0
BBX 36 70 0 -14
DWIDTH 36 0
BITMAP
0000000000
0000000000
0000000000
0000000000
0000000000
0000000000
0000000000
0FFFFFF000
0FFFFFF000
0FFFFFF000
0FFFFFF000
0FFFFFF000
0FFFFFF000
0FFFFFF000
FF0000FF00
FF0000FF00
FF0000FF00
FF0000FF00
FF0000FF00
FF0000FF00
FF0000FF00
FF00000000
FF00000000
FF00000000
FF00000000
FF00000000
FF00000000
FF00000000
0FFFFFF000
0FFFFFF000
0FFFFFF000
0FFFFFF000
0FFFFFF000
0FFFFFF000
0FFFFFF000
000000FF00
000000FF00
000000FF00
000000FF00
000000FF00
000000FF00
000000FF00
FF0000FF00
FF0000FF00
FF0000FF00
FF0000FF00
FF0000FF00
FF0000FF00
FF0000FF00
0FFFFFF000
0FFFFFF000
0FFFFFF000
0FFFFFF000
0FFFFFF000
0FFFFFF000
0FFFFFF000
0000000000
0000000000
0000000000
0000000000
0000000000
0000000000
0000000000
0000000000
0000000000
0000000000
0000000000
0000000000
0000000000
0000000000
ENDCHAR
STARTCHAR U+0052
ENCODING 82
SWIDTH 1000 0
BBX 36 70 0 -14
DWIDTH 36 0
BITMAP
0000000000
0000000000
0000000000
0000000000
0000000000
0000000000
0000000000
FFFFFFF000
FFFFFFF000
FFFFFFF000
FFFFFFF000
FFFFFFF000
FFFFFFF000
FFFFFFF000
FF0000FF00
FF0000FF00
FF0000FF00
FF0000FF00
FF0000FF00
FF0000FF00
FF0000FF00
FF0000FF00
FF0000FF00
FF0000FF00
FF0000FF00
FF0000FF00
FF0000FF00
FF0000FF00
FFFFFFF000
FFFFFFF000
FFFFFFF000
FFFFFFF000
FFFFFFF000
FFFFFFF000
FFFFFFF000
FF00FF0000
FF00FF0000
FF00FF0000
FF00FF0000
FF00FF0000
FF00FF0000
FF00FF0000
FF000FF000
FF000FF000
FF000FF000
FF000FF000
FF000FF000
FF000FF000
FF000FF000
FF0000FF00
FF0000FF00
FF0000FF00
FF0000FF00
FF0000FF00
FF0000FF00
FF0000FF00
0000000000
0000000000
0000000000
0000000000
0000000000
0000000000
0000000000
0000000000
0000000000
0000000000
0000000000
0000000000
0000000000
0000000000
ENDCHAR
STARTCHAR U+0051
ENCODING 81
SWIDTH 1000 0
BBX 36 70 0 -14
DWIDTH 36 0
BITMAP
0000000000
0000000000
0000000000
0000000000
0000000000
0000000000
0000000000
0FFFFFF000
0FFFFFF000
0FFFFFF000
0FFFFFF000
0FFFFFF000
0FFFFFF000
0FFFFFF000
FF0000FF00
FF0000FF00
FF0000FF00
FF0000FF00
FF0000FF00
FF0000FF00
FF0000FF00
FF0000FF00
FF0000FF00
FF0000FF00
FF0000FF00
FF0000FF00
FF0000FF00
FF0000FF00
FF0000FF00
FF0000FF00
FF0000FF00
FF0000FF00
FF0000FF00
FF0000FF00
FF0000FF00
FF00FFFF00
FF00FFFF00
FF00FFFF00
FF00FFFF00
FF00FFFF00
FF00FFFF00
FF00FFFF00
FF000FF000
FF000FF000
FF000FF000
FF000FF000
FF000FF000
FF000FF000
FF000FF000
0FFFFFFF00
0FFFFFFF00
0FFFFFFF00
0FFFFFFF00
0FFFFFFF00
0FFFFFFF00
0FFFFFFF00
0000000000
0000000000
0000000000
0000000000
0000000000
0000000000
0000000000
0000000000
0000000000
0000000000
0000000000
0000000000
0000000000
0000000000
ENDCHAR
STARTCHAR U+0050
ENCODING 80
SWIDTH 1000 0
BBX 36 70 0 -14
DWIDTH 36 0
BITMAP
0000000000
0000000000
0000000000
0000000000
0000000000
0000000000
0000000000
FFFFFFF000
FFFFFFF000
FFFFFFF000
FFFFFFF000
FFFFFFF000
FFFFFFF000
FFFFFFF000
FF0000FF00
FF0000FF00
FF0000FF00
FF0000FF00
FF0000FF00
FF0000FF00
FF0000FF00
FF0000FF00
FF0000FF00
FF0000FF00
FF0000FF00
FF0000FF00
FF0000FF00
FF0000FF00
FFFFFFF000
FFFFFFF000
FFFFFFF000
FFFFFFF000
FFFFFFF000
FFFFFFF000
FFFFFFF000
FF00000000
FF00000000
FF00000000
FF00000000
FF00000000
FF00000000
FF00000000
FF00000000
FF00000000
FF00000000
FF00000000
FF00000000
FF00000000
FF00000000
FF00000000
FF00000000
FF00000000
FF00000000
FF00000000
FF00000000
FF00000000
0000000000
0000000000
0000000000
0000000000
0000000000
0000000000
0000000000
0000000000
0000000000
0000000000
0000000000
0000000000
0000000000
0000000000
ENDCHAR
STARTCHAR U+004F
ENCODING 79
SWIDTH 1000 0
BBX 36 70 0 -14
DWIDTH 36 0
BITMAP
0000000000
0000000000
0000000000
0000000000
0000000000
0000000000
0000000000
0FFFFFF000
0FFFFFF000
0FFFFFF000
0FFFFFF000
0FFFFFF000
0FFFFFF000
0FFFFFF000
FF0000FF00
FF0000FF00
FF0000FF00
FF0000FF00
FF0000FF00
FF0000FF00
FF0000FF00
FF0000FF00
FF0000FF00
FF0000FF00
FF0000FF00
FF0000FF00
FF0000FF00
FF0000FF00
FF0000FF00
FF0000FF00
FF0000FF00
FF0000FF00
FF0000FF00
FF0000FF00
FF0000FF00
FF0000FF00
FF0000FF00
FF0000FF00
FF0000FF00
FF0000FF00
FF0000FF00
FF0000FF00
FF0000FF00
FF0000FF00
FF0000FF00
FF0000FF00
FF0000FF00
FF0000FF00
FF0000FF00
0FFFFFF000
0FFFFFF000
0FFFFFF000
0FFFFFF000
0FFFFFF000
0FFFFFF000
0FFFFFF000
0000000000
0000000000
0000000000
0000000000
0000000000
0000000000
0000000000
0000000000
0000000000
0000000000
0000000000
0000000000
0000000000
0000000000
ENDCHAR
STARTCHAR U+004E
ENCODING 78
SWIDTH 1000 0
BBX 36 70 0 -14
DWIDTH 36 0
BITMAP
0000000000
0000000000
0000000000
0000000000
0000000000
0000000000
0000000000
FF0000FF00
FF0000FF00
FF0000FF00
FF0000FF00
FF0000FF00
FF0000FF00
FF0000FF00
FFF000FF00
FFF000FF00
FFF000FF00
FFF000FF00
FFF000FF00
FFF000FF00
FFF000FF00
FFFF00FF00
FFFF00FF00
FFFF00FF00
FFFF00FF00
FFFF00FF00
FFFF00FF00
FFFF00FF00
FF0FF0FF00
FF0FF0FF00
FF0FF0FF00
FF0FF0FF00
FF0FF0FF00
FF0FF0FF00
FF0FF0FF00
FF00FFFF00
FF00FFFF00
FF00FFFF00
FF00FFFF00
FF00FFFF00
FF00FFFF00
FF00FFFF00
FF000FFF00
FF000FFF00
FF000FFF00
FF000FFF00
FF000FFF00
FF000FFF00
FF000FFF00
FF0000FF00
FF0000FF00
FF0000FF00
FF0000FF00
FF0000FF00
FF0000FF00
FF0000FF00
0000000000
0000000000
0000000000
0000000000
0000000000
0000000000
0000000000
0000000000
0000000000
0000000000
0000000000
0000000000
0000000000
0000000000
ENDCHAR
STARTCHAR U+004D
ENCODING 77
SWIDTH 1000 0
BBX 36 70 0 -14
DWIDTH 36 0
BITMAP
0000000000
0000000000
0000000000
0000000000
0000000000
0000000000
0000000000
FF0000FF00
FF0000FF00
FF0000FF00
FF0000FF00
FF0000FF00
FF0000FF00
FF0000FF00
FFF00FFF00
FFF00FFF00
FFF00FFF00
FFF00FFF00
FFF00FFF00
FFF00FFF00
FFF00FFF00
FFFFFFFF00
FFFFFFFF00
FFFFFFFF00
FFFFFFFF00
FFFFFFFF00
FFFFFFFF00
FFFFFFFF00
FF0FF0FF00
FF0FF0FF00
FF0FF0FF00
FF0FF0FF00
FF0FF0FF00
FF0FF0FF00
FF0FF0FF00
FF0000FF00
FF0000FF00
FF0000FF00
FF0000FF00
FF0000FF00
FF0000FF00
FF0000FF00
FF0000FF00
FF0000FF00
FF0000FF00
FF0000FF00
FF0000FF00
FF0000FF00
FF0000FF00
FF0000FF00
FF0000FF00
FF0000FF00
FF0000FF00
FF0000FF00
FF0000FF00
FF0000FF00
0000000000
0000000000
0000000000
0000000000
0000000000
0000000000
0000000000
0000000000
0000000000
0000000000
0000000000
0000000000
0000000000
0000000000
ENDCHAR
STARTCHAR U+004C
ENCODING 76
SWIDTH 1000 0
BBX 36 70 0 -14
DWIDTH 36 0
BITMAP
0000000000
0000000000
0000000000
0000000000
0000000000
0000000000
0000000000
FF00000000
FF00000000
FF00000000
FF00000000
FF00000000
FF00000000
FF00000000
FF00000000
FF00000000
FF00000000
FF00000000
FF00000000
FF00000000
FF00000000
FF00000000
FF00000000
FF00000000
FF00000000
FF00000000
FF00000000
FF00000000
FF00000000
FF00000000
FF00000000
FF00000000
FF00000000
FF00000000
FF00000000
FF00000000
FF00000000
FF00000000
FF00000000
FF00000000
FF00000000
FF00000000
FF00000000
FF00000000
FF00000000
FF00000000
FF00000000
FF00000000
FF00000000
FFFFFFFF00
FFFFFFFF00
FFFFFFFF00
FFFFFFFF00
FFFFFFFF00
FFFFFFFF00
FFFFFFFF00
0000000000
0000000000
0000000000
0000000000
0000000000
0000000000
0000000000
0000000000
0000000000
0000000000
0000000000
0000000000
0000000000
0000000000
ENDCHAR
STARTCHAR U+004B
ENCODING 75
SWIDTH 1000 0
BBX 36 70 0 -14
DWIDTH 36 0
BITMAP
0000000000
0000000000
0000000000
0000000000
0000000000
0000000000
0000000000
FF0000FF00
FF0000FF00
FF0000FF00
FF0000FF00
FF0000FF00
FF0000FF00
FF0000FF00
FF00FFF000
FF00FFF000
FF00FFF000
FF00FFF000
FF00FFF000
FF00FFF000
FF00FFF000
FFFFF00000
FFFFF00000
FFFFF00000
FFFFF00000
FFFFF00000
FFFFF00000
FFFFF00000
FFF0000000
FFF0000000
FFF0000000
FFF0000000
FFF0000000
FFF0000000
FFF0000000
FFFFF00000
FFFFF00000
FFFFF00000
FFFFF00000
FFFFF00000
FFFFF00000
FFFFF00000
FF00FFF000
FF00FFF000
FF00FFF000
FF00FFF000
FF00FFF000
FF00FFF000
FF00FFF000
FF0000FF00
FF0000FF00
FF0000FF00
FF0000FF00
FF0000FF00
FF0000FF00
FF0000FF00
0000000000
0000000000
0000000000
0000000000
0000000000
0000000000
0000000000
0000000000
0000000000
0000000000
0000000000
0000000000
0000000000
0000000000
ENDCHAR
STARTCHAR U+004A
ENCODING 74
SWIDTH 1000 0
BBX 36 70 0 -14
DWIDTH 36 0
BITMAP
0000000000
0000000000
0000000000
0000000000
0000000000
0000000000
0000000000
0000FFFF00
0000FFFF00
0000FFFF00
0000FFFF00
0000FFFF00
0000FFFF00
0000FFFF00
00000FF000
00000FF000
00000FF000
00000FF000
00000FF000
00000FF000
00000FF000
00000FF000
00000FF000
00000FF000
00000FF000
00000FF000
00000FF000
00000FF000
00000FF000
00000FF000
00000FF000
00000FF000
00000FF000
00000FF000
00000FF000
00000FF000
00000FF000
00000FF000
00000FF000
00000FF000
00000FF000
00000FF000
FF000FF000
FF000FF000
FF000FF000
FF000FF000
FF000FF000
FF000FF000
FF000FF000
0FFFFF0000
0FFFFF0000
0FFFFF0000
0FFFFF0000
0FFFFF0000
0FFFFF0000
0FFFFF0000
0000000000
0000000000
0000000000
0000000000
0000000000
0000000000
0000000000
0000000000
0000000000
0000000000
0000000000
0000000000
0000000000
0000000000
ENDCHAR
STARTCHAR U+0049
ENCODING 73
SWIDTH 1000 0
BBX 36 70 0 -14
DWIDTH 36 0
BITMAP
0000000000
0000000000
0000000000
0000000000
0000000000
0000000000
0000000000
0FFFFFF000
0FFFFFF000
0FFFFFF000
0FFFFFF000
0FFFFFF000
0FFFFFF000
0FFFFFF000
000FF00000
000FF00000
000FF00000
000FF00000
000FF00000
000FF00000
000FF00000
000FF00000
000FF00000
000FF00000
000FF00000
000FF00000
000FF00000
000FF00000
000FF00000
000FF00000
000FF00000
000FF00000
000FF00000
000FF00000
000FF00000
000FF00000
000FF00000
000FF00000
000FF00000
000FF00000
000FF00000
000FF00000
000FF00000
000FF00000
000FF00000
000FF00000
000FF00000
000FF00000
000FF00000
0FFFFFF000
0FFFFFF000
0FFFFFF000
0FFFFFF000
0FFFFFF000
0FFFFFF000
0FFFFFF000
0000000000
0000000000
0000000000
0000000000
0000000000
0000000000
0000000000
0000000000
0000000000
0000000000
0000000000
0000000000
0000000000
0000000000
ENDCHAR
STARTCHAR U+0048
ENCODING 72
SWIDTH 1000 0
BBX 36 70 0 -14
DWIDTH 36 0
BITMAP
0000000000
0000000000
0000000000
0000000000
0000000000
0000000000
0000000000
FF0000FF00
FF0000FF00
FF0000FF00
FF0000FF00
FF0000FF00
FF0000FF00
FF0000FF00
FF0000FF00
FF0000FF00
FF0000FF00
FF0000FF00
FF0000FF00
FF0000FF00
FF0000FF00
FF0000FF00
FF0000FF00
FF0000FF00
FF0000FF00
FF0000FF00
FF0000FF00
FF0000FF00
FFFFFFFF00
FFFFFFFF00
FFFFFFFF00
FFFFFFFF00
FFFFFFFF00
FFFFFFFF00
FFFFFFFF00
FF0000FF00
FF0000FF00
FF0000FF00
FF0000FF00
FF0000FF00
FF0000FF00
FF0000FF00
FF0000FF00
FF0000FF00
FF0000FF00
FF0000FF00
FF0000FF00
FF0000FF00
FF0000FF00
FF0000FF00
FF0000FF00
FF0000FF00
FF0000FF00
FF0000FF00
FF0000FF00
FF0000FF00
0000000000
0000000000
0000000000
0000000000
0000000000
0000000000
0000000000
0000000000
0000000000
0000000000
0000000000
0000000000
0000000000
0000000000
ENDCHAR
STARTCHAR U+0047
ENCODING 71
SWIDTH 1000 0
BBX 36 70 0 -14
DWIDTH 36 0
BITMAP
0000000000
0000000000
0000000000
0000000000
0000000000
0000000000
0000000000
00FFFFF000
00FFFFF000
00FFFFF000
00FFFFF000
00FFFFF000
00FFFFF000
00FFFFF000
0FF000FF00
0FF000FF00
0FF000FF00
0FF000FF00
0FF000FF00
0FF000FF00
0FF000FF00
FF00000000
FF00000000
FF00000000
FF00000000
FF00000000
FF00000000
FF00000000
FF00000000
FF00000000
FF00000000
FF00000000
FF00000000
FF00000000
FF00000000
FF00FFFF00
FF00FFFF00
FF00FFFF00
FF00FFFF00
FF00FFFF00
FF00FFFF00
FF00FFFF00
0FF000FF00
0FF000FF00
0FF000FF00
0FF000FF00
0FF000FF00
0FF000FF00
0FF000FF00
00FFFFF000
00FFFFF000
00FFFFF000
00FFFFF000
00FFFFF000
00FFFFF000
00FFFFF000
0000000000
0000000000
0000000000
0000000000
0000000000
0000000000
0000000000
0000000000
0000000000
0000000000
0000000000
0000000000
0000000000
0000000000
ENDCHAR
STARTCHAR U+0046
ENCODING 70
SWIDTH 1000 0
BBX 36 70 0 -14
DWIDTH 36 0
BITMAP
0000000000
0000000000
0000000000
0000000000
0000000000
0000000000
0000000000
FFFFFFFF00
FFFFFFFF00
FFFFFFFF00
FFFFFFFF00
FFFFFFFF00
FFFFFFFF00
FFFFFFFF00
FF00000000
FF00000000
FF00000000
FF00000000
FF00000000
FF00000000
FF00000000
FF00000000
FF00000000
FF00000000
FF00000000
FF00000000
FF00000000
FF00000000
FFFFFF0000
FFFFFF0000
FFFFFF0000
FFFFFF0000
FFFFFF0000
FFFFFF0000
FFFFFF0000
FF00000000
FF00000000
FF00000000
FF00000000
FF00000000
FF00000000
FF00000000
FF00000000
FF00000000
FF00000000
FF00000000
FF00000000
FF00000000
FF00000000
FF00000000
FF00000000
FF00000000
FF00000000
FF00000000
FF00000000
FF00000000
0000000000
0000000000
0000000000
0000000000
0000000000
0000000000
0000000000
0000000000
0000000000
0000000000
0000000000
0000000000
0000000000
0000000000
ENDCHAR
STARTCHAR U+0045
ENCODING 69
SWIDTH 1000 0
BBX 36 70 0 -14
DWIDTH 36 0
BITMAP
0000000000
0000000000
0000000000
0000000000
0000000000
0000000000
0000000000
FFFFFFFF00
FFFFFFFF00
FFFFFFFF00
FFFFFFFF00
FFFFFFFF00
FFFFFFFF00
FFFFFFFF00
FF00000000
FF00000000
FF00000000
FF00000000
FF00000000
FF00000000
FF00000000
FF00000000
FF00000000
FF00000000
FF00000000
FF00000000
FF00000000
FF00000000
FFFFFF0000
FFFFFF0000
FFFFFF0000
FFFFFF0000
FFFFFF0000
FFFFFF0000
FFFFFF0000
FF00000000
FF00000000
FF00000000
FF00000000
FF00000000
FF00000000
FF00000000
FF00000000
FF00000000
FF00000000
FF00000000
FF00000000
FF00000000
FF00000000
FFFFFFFF00
FFFFFFFF00
FFFFFFFF00
FFFFFFFF00
FFFFFFFF00
FFFFFFFF00
FFFFFFFF00
0000000000
0000000000
0000000000
0000000000
0000000000
0000000000
0000000000
0000000000
0000000000
0000000000
0000000000
0000000000
0000000000
0000000000
ENDCHAR
STARTCHAR U+0044
ENCODING 68
SWIDTH 1000 0
BBX 36 70 0 -14
DWIDTH 36 0
BITMAP
0000000000
0000000000
0000000000
0000000000
0000000000
0000000000
0000000000
FFFFFF0000
FFFFFF0000
FFFFFF0000
FFFFFF0000
FFFFFF0000
FFFFFF0000
FFFFFF0000
0FF00FF000
0FF00FF000
0FF00FF000
0FF00FF000
0FF00FF000
0FF00FF000
0FF00FF000
0FF000FF00
0FF000FF00
0FF000FF00
0FF000FF00
0FF000FF00
0FF000FF00
0FF000FF00
0FF000FF00
0FF000FF00
0FF000FF00
0FF000FF00
0FF000FF00
0FF000FF00
0FF000FF00
0FF000FF00
0FF000FF00
0FF000FF00
0FF000FF00
0FF000FF00
0FF000FF00
0FF000FF00
0FF00FF000
0FF00FF000
0FF00FF000
0FF00FF000
0FF00FF000
0FF00FF000
0FF00FF000
FFFFFF0000
FFFFFF0000
FFFFFF0000
FFFFFF0000
FFFFFF0000
FFFFFF0000
FFFFFF0000
0000000000
0000000000
0000000000
0000000000
0000000000
0000000000
0000000000
0000000000
0000000000
0000000000
0000000000
0000000000
0000000000
0000000000
ENDCHAR
STARTCHAR U+0043
ENCODING 67
SWIDTH 1000 0
BBX 36 70 0 -14
DWIDTH 36 0
BITMAP
0000000000
0000000000
0000000000
0000000000
0000000000
0000000000
0000000000
00FFFFF000
00FFFFF000
00FFFFF000
00FFFFF000
00FFFFF000
00FFFFF000
00FFFFF000
0FF000FF00
0FF000FF00
0FF000FF00
0FF000FF00
0FF000FF00
0FF000FF00
0FF000FF00
FF00000000
FF00000000
FF00000000
FF00000000
FF00000000
FF00000000
FF00000000
FF00000000
FF00000000
FF00000000
FF00000000
FF00000000
FF00000000
FF00000000
FF00000000
FF00000000
FF00000000
FF00000000
FF00000000
FF00000000
FF00000000
0FF000FF00
0FF000FF00
0FF000FF00
0FF000FF00
0FF000FF00
0FF000FF00
0FF000FF00
00FFFFF000
00FFFFF000
00FFFFF000
00FFFFF000
00FFFFF000
00FFFFF000
00FFFFF000
0000000000
0000000000
0000000000
0000000000
0000000000
0000000000
0000000000
0000000000
0000000000
0000000000
0000000000
0000000000
0000000000
0000000000
ENDCHAR
STARTCHAR U+0042
ENCODING 66
SWIDTH 1000 0
BBX 36 70 0 -14
DWIDTH 36 0
BITMAP
0000000000
0000000000
0000000000
0000000000
0000000000
0000000000
0000000000
FFFFFFF000
FFFFFFF000
FFFFFFF000
FFFFFFF000
FFFFFFF000
FFFFFFF000
FFFFFFF000
0FF000FF00
0FF000FF00
0FF000FF00
0FF000FF00
0FF000FF00
0FF000FF00
0FF000FF00
0FF000FF00
0FF000FF00
0FF000FF00
0FF000FF00
0FF000FF00
0FF000FF00
0FF000FF00
0FFFFFF000
0FFFFFF000
0FFFFFF000
0FFFFFF000
0FFFFFF000
0FFFFFF000
0FFFFFF000
0FF000FF00
0FF000FF00
0FF000FF00
0FF000FF00
0FF000FF00
0FF000FF00
0FF000FF00
0FF000FF00
0FF000FF00
0FF000FF00
0FF000FF00
0FF000FF00
0FF000FF00
0FF000FF00
FFFFFFF000
FFFFFFF000
FFFFFFF000
FFFFFFF000
FFFFFFF000
FFFFFFF000
FFFFFFF000
0000000000
0000000000
0000000000
0000000000
0000000000
0000000000
0000000000
0000000000
0000000000
0000000000
0000000000
0000000000
0000000000
0000000000
ENDCHAR
STARTCHAR U+0041
ENCODING 65
SWIDTH 1000 0
BBX 36 70 0 -14
DWIDTH 36 0
BITMAP
0000000000
0000000000
0000000000
0000000000
0000000000
0000000000
0000000000
000FF00000
000FF00000
000FF00000
000FF00000
000FF00000
000FF00000
000FF00000
00FFFF0000
00FFFF0000
00FFFF0000
00FFFF0000
00FFFF0000
00FFFF0000
00FFFF0000
0FF00FF000
0FF00FF000
0FF00FF000
0FF00FF000
0FF00FF000
0FF00FF000
0FF00FF000
FF0000FF00
FF0000FF00
FF0000FF00
FF0000FF00
FF0000FF00
FF0000FF00
FF0000FF00
FFFFFFFF00
FFFFFFFF00
FFFFFFFF00
FFFFFFFF00
FFFFFFFF00
FFFFFFFF00
FFFFFFFF00
FF0000FF00
FF0000FF00
FF0000FF00
FF0000FF00
FF0000FF00
FF0000FF00
FF0000FF00
FF0000FF00
FF0000FF00
FF0000FF00
FF0000FF00
FF0000FF00
FF0000FF00
FF0000FF00
0000000000
0000000000
0000000000
0000000000
0000000000
0000000000
0000000000
0000000000
0000000000
0000000000
0000000000
0000000000
0000000000
0000000000
ENDCHAR
STARTCHAR U+0040
ENCODING 64
SWIDTH 1000 0
BBX 36 70 0 -14
DWIDTH 36 0
BITMAP
0000000000
0000000000
0000000000
0000000000
0000000000
0000000000
0000000000
0FFFFFF000
0FFFFFF000
0FFFFFF000
0FFFFFF000
0FFFFFF000
0FFFFFF000
0FFFFFF000
FF0000FF00
FF0000FF00
FF0000FF00
FF0000FF00
FF0000FF00
FF0000FF00
FF0000FF00
FF0FFFFF00
FF0FFFFF00
FF0FFFFF00
FF0FFFFF00
FF0FFFFF00
FF0FFFFF00
FF0FFFFF00
FFFF0FFF00
FFFF0FFF00
FFFF0FFF00
FFFF0FFF00
FFFF0FFF00
FFFF0FFF00
FFFF0FFF00
FF0FFFFF00
FF0FFFFF00
FF0FFFFF00
FF0FFFFF00
FF0FFFFF00
FF0FFFFF00
FF0FFFFF00
FF00000000
FF00000000
FF00000000
FF00000000
FF00000000
FF00000000
FF00000000
0FFFFFF000
0FFFFFF000
0FFFFFF000
0FFFFFF000
0FFFFFF000
0FFFFFF000
0FFFFFF000
0000000000
0000000000
0000000000
0000000000
0000000000
0000000000
0000000000
0000000000
0000000000
0000000000
0000000000
0000000000
0000000000
0000000000
ENDCHAR
STARTCHAR U+003F
ENCODING 63
SWIDTH 1000 0
BBX 36 70 0 -14
DWIDTH 36 0
BITMAP
0000000000
0000000000
0000000000
0000000000
0000000000
0000000000
0000000000
0FFFFFF000
0FFFFFF000
0FFFFFF000
0FFFFFF000
0FFFFFF000
0FFFFFF000
0FFFFFF000
FF0000FF00
FF0000FF00
FF0000FF00
FF0000FF00
FF0000FF00
FF0000FF00
FF0000FF00
0000FFF000
0000FFF000
0000FFF000
0000FFF000
0000FFF000
0000FFF000
0000FFF000
000FF00000
000FF00000
000FF00000
000FF00000
000FF00000
000FF00000
000FF00000
000FF00000
000FF00000
000FF00000
000FF00000
000FF00000
000FF00000
000FF00000
0000000000
0000000000
0000000000
0000000000
0000000000
0000000000
0000000000
000FF00000
000FF00000
000FF00000
000FF00000
000FF00000
000FF00000
000FF00000
0000000000
0000000000
0000000000
0000000000
0000000000
0000000000
0000000000
0000000000
0000000000
0000000000
0000000000
0000000000
0000000000
0000000000
ENDCHAR
STARTCHAR U+003E
ENCODING 62
SWIDTH 1000 0
BBX 36 70 0 -14
DWIDTH 36 0
BITMAP
0000000000
0000000000
0000000000
0000000000
0000000000
0000000000
0000000000
FF00000000
FF00000000
FF00000000
FF00000000
FF00000000
FF00000000
FF00000000
00FF000000
00FF000000
00FF000000
00FF000000
00FF000000
00FF000000
00FF000000
0000FF0000
0000FF0000
0000FF0000
0000FF0000
0000FF0000
0000FF0000
0000FF0000
000000FF00
000000FF00
000000FF00
000000FF00
000000FF00
000000FF00
000000FF00
0000FF0000
0000FF0000
0000FF0000
0000FF0000
0000FF0000
0000FF0000
0000FF0000
00FF000000
00FF000000
00FF000000
00FF000000
00FF000000
00FF000000
00FF000000
FF00000000
FF00000000
FF00000000
FF00000000
FF00000000
FF00000000
FF00000000
0000000000
0000000000
0000000000
0000000000
0000000000
0000000000
0000000000
0000000000
0000000000
0000000000
0000000000
0000000000
0000000000
0000000000
ENDCHAR
STARTCHAR U+003D
ENCODING 61
SWIDTH 1000 0
BBX 36 70 0 -14
DWIDTH 36 0
BITMAP
0000000000
0000000000
0000000000
0000000000
0000000000
0000000000
0000000000
0000000000
0000000000
0000000000
0000000000
0000000000
0000000000
0000000000
0000000000
0000000000
0000000000
0000000000
0000000000
0000000000
0000000000
FFFFFFFF00
FFFFFFFF00
FFFFFFFF00
FFFFFFFF00
FFFFFFFF00
FFFFFFFF00
FFFFFFFF00
0000000000
0000000000
0000000000
0000000000
0000000000
0000000000
0000000000
FFFFFFFF00
FFFFFFFF00
FFFFFFFF00
FFFFFFFF00
FFFFFFFF00
FFFFFFFF00
FFFFFFFF00
0000000000
0000000000
0000000000
0000000000
0000000000
0000000000
0000000000
0000000000
0000000000
0000000000
0000000000
0000000000
0000000000
0000000000
0000000000
0000000000
0000000000
0000000000
0000000000
0000000000
0000000000
0000000000
0000000000
0000000000
0000000000
0000000000
0000000000
0000000000
ENDCHAR
STARTCHAR U+003C
ENCODING 60
SWIDTH 1000 0
BBX 36 70 0 -14
DWIDTH 36 0
BITMAP
0000000000
0000000000
0000000000
0000000000
0000000000
0000000000
0000000000
000000FF00
000000FF00
000000FF00
000000FF00
000000FF00
000000FF00
000000FF00
0000FF0000
0000FF0000
0000FF0000
0000FF0000
0000FF0000
0000FF0000
0000FF0000
00FF000000
00FF000000
00FF000000
00FF000000
00FF000000
00FF000000
00FF000000
FF00000000
FF00000000
FF00000000
FF00000000
FF00000000
FF00000000
FF00000000
00FF000000
00FF000000
00FF000000
00FF000000
00FF000000
00FF000000
00FF000000
0000FF0000
0000FF0000
0000FF0000
0000FF0000
0000FF0000
0000FF0000
0000FF0000
000000FF00
000000FF00
000000FF00
000000FF00
000000FF00
000000FF00
000000FF00
0000000000
0000000000
0000000000
0000000000
0000000000
0000000000
0000000000
0000000000
0000000000
0000000000
0000000000
0000000000
0000000000
0000000000
ENDCHAR
STARTCHAR U+003B
ENCODING 59
SWIDTH 1000 0
BBX 36 70 0 -14
DWIDTH 36 0
BITMAP
0000000000
0000000000
0000000000
0000000000
0000000000
0000000000
0000000000
0000000000
0000000000
0000000000
0000000000
0000000000
0000000000
0000000000
00FFF00000
00FFF00000
00FFF00000
00FFF00000
00FFF00000
00FFF00000
00FFF00000
00FFF00000
00FFF00000
00FFF00000
00FFF00000
00FFF00000
00FFF00000
00FFF00000
0000000000
0000000000
0000000000
0000000000
0000000000
0000000000
0000000000
0000000000
0000000000
0000000000
0000000000
0000000000
0000000000
0000000000
00FFF00000
00FFF00000
00FFF00000
00FFF00000
00FFF00000
00FFF00000
00FFF00000
00FF000000
00FF000000
00FF000000
00FF000000
00FF000000
00FF000000
00FF000000
0FF0000000
0FF0000000
0FF0000000
0FF0000000
0FF0000000
0FF0000000
0FF0000000
0000000000
0000000000
0000000000
0000000000
0000000000
0000000000
0000000000
ENDCHAR
STARTCHAR U+003A
ENCODING 58
SWIDTH 1000 0
BBX 36 70 0 -14
DWIDTH 36 0
BITMAP
0000000000
0000000000
0000000000
0000000000
0000000000
0000000000
0000000000
0000000000
0000000000
0000000000
0000000000
0000000000
0000000000
0000000000
00FFF00000
00FFF00000
00FFF00000
00FFF00000
00FFF00000
00FFF00000
00FFF00000
00FFF00000
00FFF00000
00FFF00000
00FFF00000
00FFF00000
00FFF00000
00FFF00000
0000000000
0000000000
0000000000
0000000000
0000000000
0000000000
0000000000
0000000000
0000000000
0000000000
0000000000
0000000000
0000000000
0000000000
00FFF00000
00FFF00000
00FFF00000
00FFF00000
00FFF00000
00FFF00000
00FFF00000
00FFF00000
00FFF00000
00FFF00000
00FFF00000
00FFF00000
00FFF00000
00FFF00000
0000000000
0000000000
0000000000
0000000000
0000000000
0000000000
0000000000
0000000000
0000000000
0000000000
0000000000
0000000000
0000000000
0000000000
ENDCHAR
STARTCHAR U+0039
ENCODING 57
SWIDTH 1000 0
BBX 36 70 0 -14
DWIDTH 36 0
BITMAP
0000000000
0000000000
0000000000
0000000000
0000000000
0000000000
0000000000
0FFFFFF000
0FFFFFF000
0FFFFFF000
0FFFFFF000
0FFFFFF000
0FFFFFF000
0FFFFFF000
FF0000FF00
FF0000FF00
FF0000FF00
FF0000FF00
FF0000FF00
FF0000FF00
FF0000FF00
FF000FFF00
FF000FFF00
FF000FFF00
FF000FFF00
FF000FFF00
FF000FFF00
FF000FFF00
0FFFFFFF00
0FFFFFFF00
0FFFFFFF00
0FFFFFFF00
0FFFFFFF00
0FFFFFFF00
0FFFFFFF00
000000FF00
000000FF00
000000FF00
000000FF00
000000FF00
000000FF00
000000FF00
00000FF000
00000FF000
00000FF000
00000FF000
00000FF000
00000FF000
00000FF000
0FFFFF0000
0FFFFF0000
0FFFFF0000
0FFFFF0000
0FFFFF0000
0FFFFF0000
0FFFFF0000
0000000000
0000000000
0000000000
0000000000
0000000000
0000000000
0000000000
0000000000
0000000000
0000000000
0000000000
0000000000
0000000000
0000000000
ENDCHAR
STARTCHAR U+0038
ENCODING 56
SWIDTH 1000 0
BBX 36 70 0 -14
DWIDTH 36 0
BITMAP
0000000000
0000000000
0000000000
0000000000
0000000000
0000000000
0000000000
0FFFFFF000
0FFFFFF000
0FFFFFF000
0FFFFFF000
0FFFFFF000
0FFFFFF000
0FFFFFF000
FF0000FF00
FF0000FF00
FF0000FF00
FF0000FF00
FF0000FF00
FF0000FF00
FF0000FF00
FF0000FF00
FF0000FF00
FF0000FF00
FF0000FF00
FF0000FF00
FF0000FF00
FF0000FF00
0FFFFFF000
0FFFFFF000
0FFFFFF000
0FFFFFF000
0FFFFFF000
0FFFFFF000
0FFFFFF000
FF0000FF00
FF0000FF00
FF0000FF00
FF0000FF00
FF0000FF00
FF0000FF00
FF0000FF00
FF0000FF00
FF0000FF00
FF0000FF00
FF0000FF00
FF0000FF00
FF0000FF00
FF0000FF00
0FFFFFF000
0FFFFFF000
0FFFFFF000
0FFFFFF000
0FFFFFF000
0FFFFFF000
0FFFFFF000
0000000000
0000000000
0000000000
0000000000
0000000000
0000000000
0000000000
0000000000
0000000000
0000000000
0000000000
0000000000
0000000000
0000000000
ENDCHAR
STARTCHAR U+0037
ENCODING 55
SWIDTH 1000 0
BBX 36 70 0 -14
DWIDTH 36 0
BITMAP
0000000000
0000000000
0000000000
0000000000
0000000000
0000000000
0000000000
FFFFFFFF00
FFFFFFFF00
FFFFFFFF00
FFFFFFFF00
FFFFFFFF00
FFFFFFFF00
FFFFFFFF00
000000FF00
000000FF00
000000FF00
000000FF00
000000FF00
000000FF00
000000FF00
00000FF000
00000FF000
00000FF000
00000FF000
00000FF000
00000FF000
00000FF000
0000FF0000
0000FF0000
0000FF0000
0000FF0000
0000FF0000
0000FF0000
0000FF0000
000FF00000
000FF00000
000FF00000
000FF00000
000FF00000
000FF00000
000FF00000
00FF000000
00FF000000
00FF000000
00FF000000
00FF000000
00FF000000
00FF000000
00FF000000
00FF000000
00FF000000
00FF000000
00FF000000
00FF000000
00FF000000
0000000000
0000000000
0000000000
0000000000
0000000000
0000000000
0000000000
0000000000
0000000000
0000000000
0000000000
0000000000
0000000000
0000000000
ENDCHAR
STARTCHAR U+0036
ENCODING 54
SWIDTH 1000 0
BBX 36 70 0 -14
DWIDTH 36 0
BITMAP
0000000000
0000000000
0000000000
0000000000
0000000000
0000000000
0000000000
00FFFFF000
00FFFFF000
00FFFFF000
00FFFFF000
00FFFFF000
00FFFFF000
00FFFFF000
0FF0000000
0FF0000000
0FF0000000
0FF0000000
0FF0000000
0FF0000000
0FF0000000
FF00000000
FF00000000
FF00000000
FF00000000
FF00000000
FF00000000
FF00000000
FFFFFFF000
FFFFFFF000
FFFFFFF000
FFFFFFF000
FFFFFFF000
FFFFFFF000
FFFFFFF000
FFF000FF00
FFF000FF00
FFF000FF00
FFF000FF00
FFF000FF00
FFF000FF00
FFF000FF00
FF0000FF00
FF0000FF00
FF0000FF00
FF0000FF00
FF0000FF00
FF0000FF00
FF0000FF00
0FFFFFF000
0FFFFFF000
0FFFFFF000
0FFFFFF000
0FFFFFF000
0FFFFFF000
0FFFFFF000
0000000000
0000000000
0000000000
0000000000
0000000000
0000000000
0000000000
0000000000
0000000000
0000000000
0000000000
0000000000
0000000000
0000000000
ENDCHAR
STARTCHAR U+0035
ENCODING 53
SWIDTH 1000 0
BBX 36 70 0 -14
DWIDTH 36 0
BITMAP
0000000000
0000000000
0000000000
0000000000
0000000000
0000000000
0000000000
FFFFFFFF00
FFFFFFFF00
FFFFFFFF00
FFFFFFFF00
FFFFFFFF00
FFFFFFFF00
FFFFFFFF00
FF00000000
FF00000000
FF00000000
FF00000000
FF00000000
FF00000000
FF00000000
FFFFFFF000
FFFFFFF000
FFFFFFF000
FFFFFFF000
FFFFFFF000
FFFFFFF000
FFFFFFF000
FFF000FF00
FFF000FF00
FFF000FF00
FFF000FF00
FFF000FF00
FFF000FF00
FFF000FF00
000000FF00
000000FF00
000000FF00
000000FF00
000000FF00
000000FF00
000000FF00
FF0000FF00
FF0000FF00
FF0000FF00
FF0000FF00
FF0000FF00
FF0000FF00
FF0000FF00
0FFFFFF000
0FFFFFF000
0FFFFFF000
0FFFFFF000
0FFFFFF000
0FFFFFF000
0FFFFFF000
0000000000
0000000000
0000000000
0000000000
0000000000
0000000000
0000000000
0000000000
0000000000
0000000000
0000000000
0000000000
0000000000
0000000000
ENDCHAR
STARTCHAR U+0034
ENCODING 52
SWIDTH 1000 0
BBX 36 70 0 -14
DWIDTH 36 0
BITMAP
0000000000
0000000000
0000000000
0000000000
0000000000
0000000000
0000000000
0000FF0000
0000FF0000
0000FF0000
0000FF0000
0000FF0000
0000FF0000
0000FF0000
000FFF0000
000FFF0000
000FFF0000
000FFF0000
000FFF0000
000FFF0000
000FFF0000
00FFFF0000
00FFFF0000
00FFFF0000
00FFFF0000
00FFFF0000
00FFFF0000
00FFFF0000
0FF0FF0000
0FF0FF0000
0FF0FF0000
0FF0FF0000
0FF0FF0000
0FF0FF0000
0FF0FF0000
FFFFFFFF00
FFFFFFFF00
FFFFFFFF00
FFFFFFFF00
FFFFFFFF00
FFFFFFFF00
FFFFFFFF00
0000FF0000
0000FF0000
0000FF0000
0000FF0000
0000FF0000
0000FF0000
0000FF0000
0000FF0000
0000FF0000
0000FF0000
0000FF0000
0000FF0000
0000FF0000
0000FF0000
0000000000
0000000000
0000000000
0000000000
0000000000
0000000000
0000000000
0000000000
0000000000
0000000000
0000000000
0000000000
0000000000
0000000000
ENDCHAR
STARTCHAR U+0033
ENCODING 51
SWIDTH 1000 0
BBX 36 70 0 -14
DWIDTH 36 0
BITMAP
0000000000
0000000000
0000000000
0000000000
0000000000
0000000000
0000000000
FFFFFFFF00
FFFFFFFF00
FFFFFFFF00
FFFFFFFF00
FFFFFFFF00
FFFFFFFF00
FFFFFFFF00
00000FF000
00000FF000
00000FF000
00000FF000
00000FF000
00000FF000
00000FF000
0000FF0000
0000FF0000
0000FF0000
0000FF0000
0000FF0000
0000FF0000
0000FF0000
000FFFF000
000FFFF000
000FFFF000
000FFFF000
000FFFF000
000FFFF000
000FFFF000
000000FF00
000000FF00
000000FF00
000000FF00
000000FF00
000000FF00
000000FF00
FF0000FF00
FF0000FF00
FF0000FF00
FF0000FF00
FF0000FF00
FF0000FF00
FF0000FF00
0FFFFFF000
0FFFFFF000
0FFFFFF000
0FFFFFF000
0FFFFFF000
0FFFFFF000
0FFFFFF000
0000000000
0000000000
0000000000
0000000000
0000000000
0000000000
0000000000
0000000000
0000000000
0000000000
0000000000
0000000000
0000000000
0000000000
ENDCHAR
STARTCHAR U+0032
ENCODING 50
SWIDTH 1000 0
BBX 36 70 0 -14
DWIDTH 36 0
BITMAP
0000000000
0000000000
0000000000
0000000000
0000000000
0000000000
0000000000
0FFFFFF000
0FFFFFF000
0FFFFFF000
0FFFFFF000
0FFFFFF000
0FFFFFF000
0FFFFFF000
FF0000FF00
FF0000FF00
FF0000FF00
FF0000FF00
FF0000FF00
FF0000FF00
FF0000FF00
000000FF00
000000FF00
000000FF00
000000FF00
000000FF00
000000FF00
000000FF00
000FFFF000
000FFFF000
000FFFF000
000FFFF000
000FFFF000
000FFFF000
000FFFF000
0FFF000000
0FFF000000
0FFF000000
0FFF000000
0FFF000000
0FFF000000
0FFF000000
FF00000000
FF00000000
FF00000000
FF00000000
FF00000000
FF00000000
FF00000000
FFFFFFFF00
FFFFFFFF00
FFFFFFFF00
FFFFFFFF00
FFFFFFFF00
FFFFFFFF00
FFFFFFFF00
0000000000
0000000000
0000000000
0000000000
0000000000
0000000000
0000000000
0000000000
0000000000
0000000000
0000000000
0000000000
0000000000
0000000000
ENDCHAR
STARTCHAR U+0031
ENCODING 49
SWIDTH 1000 0
BBX 36 70 0 -14
DWIDTH 36 0
BITMAP
0000000000
0000000000
0000000000
0000000000
0000000000
0000000000
0000000000
000FF00000
000FF00000
000FF00000
000FF00000
000FF00000
000FF00000
000FF00000
00FFF00000
00FFF00000
00FFF00000
00FFF00000
00FFF00000
00FFF00000
00FFF00000
0FFFF00000
0FFFF00000
0FFFF00000
0FFFF00000
0FFFF00000
0FFFF00000
0FFFF00000
000FF00000
000FF00000
000FF00000
000FF00000
000FF00000
000FF00000
000FF00000
000FF00000
000FF00000
000FF00000
000FF00000
000FF00000
000FF00000
000FF00000
000FF00000
000FF00000
000FF00000
000FF00000
000FF00000
000FF00000
000FF00000
0FFFFFF000
0FFFFFF000
0FFFFFF000
0FFFFFF000
0FFFFFF000
0FFFFFF000
0FFFFFF000
0000000000
0000000000
0000000000
0000000000
0000000000
0000000000
0000000000
0000000000
0000000000
0000000000
0000000000
0000000000
0000000000
0000000000
ENDCHAR
STARTCHAR U+0030
ENCODING 48
SWIDTH 1000 0
BBX 36 70 0 -14
DWIDTH 36 0
BITMAP
0000000000
0000000000
0000000000
0000000000
0000000000
0000000000
0000000000
00FFFF0000
00FFFF0000
00FFFF0000
00FFFF0000
00FFFF0000
00FFFF0000
00FFFF0000
0FF00FF000
0FF00FF000
0FF00FF000
0FF00FF000
0FF00FF000
0FF00FF000
0FF00FF000
FF0000FF00
FF0000FF00
FF0000FF00
FF0000FF00
FF0000FF00
FF0000FF00
FF0000FF00
FF0000FF00
FF0000FF00
FF0000FF00
FF0000FF00
FF0000FF00
FF0000FF00
FF0000FF00
FF0000FF00
FF0000FF00
FF0000FF00
FF0000FF00
FF0000FF00
FF0000FF00
FF0000FF00
0FF00FF000
0FF00FF000
0FF00FF000
0FF00FF000
0FF00FF000
0FF00FF000
0FF00FF000
00FFFF0000
00FFFF0000
00FFFF0000
00FFFF0000
00FFFF0000
00FFFF0000
00FFFF0000
0000000000
0000000000
0000000000
0000000000
0000000000
0000000000
0000000000
0000000000
0000000000
0000000000
0000000000
0000000000
0000000000
0000000000
ENDCHAR
STARTCHAR U+002F
ENCODING 47
SWIDTH 1000 0
BBX 36 70 0 -14
DWIDTH 36 0
BITMAP
0000000000
0000000000
0000000000
0000000000
0000000000
0000000000
0000000000
000000FF00
000000FF00
000000FF00
000000FF00
000000FF00
000000FF00
000000FF00
00000FF000
00000FF000
00000FF000
00000FF000
00000FF000
00000FF000
00000FF000
0000FF0000
0000FF0000
0000FF0000
0000FF0000
0000FF0000
0000FF0000
0000FF0000
000FF00000
000FF00000
000FF00000
000FF00000
000FF00000
000FF00000
000FF00000
00FF000000
00FF000000
00FF000000
00FF000000
00FF000000
00FF000000
00FF000000
0FF0000000
0FF0000000
0FF0000000
0FF0000000
0FF0000000
0FF0000000
0FF0000000
FF00000000
FF00000000
FF00000000
FF00000000
FF00000000
FF00000000
FF00000000
0000000000
0000000000
0000000000
0000000000
0000000000
0000000000
0000000000
0000000000
0000000000
0000000000
0000000000
0000000000
0000000000
0000000000
ENDCHAR
STARTCHAR U+002E
ENCODING 46
SWIDTH 1000 0
BBX 36 70 0 -14
DWIDTH 36 0
BITMAP
0000000000
0000000000
0000000000
0000000000
0000000000
0000000000
0000000000
0000000000
0000000000
0000000000
0000000000
0000000000
0000000000
0000000000
0000000000
0000000000
0000000000
0000000000
0000000000
0000000000
0000000000
0000000000
0000000000
0000000000
0000000000
0000000000
0000000000
0000000000
0000000000
0000000000
0000000000
0000000000
0000000000
0000000000
0000000000
0000000000
0000000000
0000000000
0000000000
0000000000
0000000000
0000000000
00FFF00000
00FFF00000
00FFF00000
00FFF00000
00FFF00000
00FFF00000
00FFF00000
00FFF00000
00FFF00000
00FFF00000
00FFF00000
00FFF00000
00FFF00000
00FFF00000
0000000000
0000000000
0000000000
0000000000
0000000000
0000000000
0000000000
0000000000
0000000000
0000000000
0000000000
0000000000
0000000000
0000000000
ENDCHAR
STARTCHAR U+002D
ENCODING 45
SWIDTH 1000 0
BBX 36 70 0 -14
DWIDTH 36 0
BITMAP
0000000000
0000000000
0000000000
0000000000
0000000000
0000000000
0000000000
0000000000
0000000000
0000000000
0000000000
0000000000
0000000000
0000000000
0000000000
0000000000
0000000000
0000000000
0000000000
0000000000
0000000000
0000000000
0000000000
0000000000
0000000000
0000000000
0000000000
0000000000
FFFFFFFF00
FFFFFFFF00
FFFFFFFF00
FFFFFFFF00
FFFFFFFF00
FFFFFFFF00
FFFFFFFF00
0000000000
0000000000
0000000000
0000000000
0000000000
0000000000
0000000000
0000000000
0000000000
0000000000
0000000000
0000000000
0000000000
0000000000
0000000000
0000000000
0000000000
0000000000
0000000000
0000000000
0000000000
0000000000
0000000000
0000000000
0000000000
0000000000
0000000000
0000000000
0000000000
0000000000
0000000000
0000000000
0000000000
0000000000
0000000000
ENDCHAR
STARTCHAR U+002C
ENCODING 44
SWIDTH 1000 0
BBX 36 70 0 -14
DWIDTH 36 0
BITMAP
0000000000
0000000000
0000000000
0000000000
0000000000
0000000000
0000000000
0000000000
0000000000
0000000000
0000000000
0000000000
0000000000
0000000000
0000000000
0000000000
0000000000
0000000000
0000000000
0000000000
0000000000
0000000000
0000000000
0000000000
0000000000
0000000000
0000000000
0000000000
0000000000
0000000000
0000000000
0000000000
0000000000
0000000000
0000000000
0000000000
0000000000
0000000000
0000000000
0000000000
0000000000
0000000000
00FFF00000
00FFF00000
00FFF00000
00FFF00000
00FFF00000
00FFF00000
00FFF00000
00FF000000
00FF000000
00FF000000
00FF000000
00FF000000
00FF000000
00FF000000
0FF0000000
0FF0000000
0FF0000000
0FF0000000
0FF0000000
0FF0000000
0FF0000000
0000000000
0000000000
0000000000
0000000000
0000000000
0000000000
0000000000
ENDCHAR
STARTCHAR U+002B
ENCODING 43
SWIDTH 1000 0
BBX 36 70 0 -14
DWIDTH 36 0
BITMAP
0000000000
0000000000
0000000000
0000000000
0000000000
0000000000
0000000000
0000000000
0000000000
0000000000
0000000000
0000000000
0000000000
0000000000
000FF00000
000FF00000
000FF00000
000FF00000
000FF00000
000FF00000
000FF00000
000FF00000
000FF00000
000FF00000
000FF00000
000FF00000
000FF00000
000FF00000
FFFFFFFF00
FFFFFFFF00
FFFFFFFF00
FFFFFFFF00
FFFFFFFF00
FFFFFFFF00
FFFFFFFF00
000FF00000
000FF00000
000FF00000
000FF00000
000FF00000
000FF00000
000FF00000
000FF00000
000FF00000
000FF00000
000FF00000
000FF00000
000FF00000
000FF00000
0000000000
0000000000
0000000000
0000000000
0000000000
0000000000
0000000000
0000000000
0000000000
0000000000
0000000000
0000000000
0000000000
0000000000
0000000000
0000000000
0000000000
0000000000
0000000000
0000000000
0000000000
ENDCHAR
STARTCHAR U+002A
ENCODING 42
SWIDTH 1000 0
BBX 36 70 0 -14
DWIDTH 36 0
BITMAP
0000000000
0000000000
0000000000
0000000000
0000000000
0000000000
0000000000
0000000000
0000000000
0000000000
0000000000
0000000000
0000000000
0000000000
0FF00FF000
0FF00FF000
0FF00FF000
0FF00FF000
0FF00FF000
0FF00FF000
0FF00FF000
00FFFF0000
00FFFF0000
00FFFF0000
00FFFF0000
00FFFF0000
00FFFF0000
00FFFF0000
FFFFFFFF00
FFFFFFFF00
FFFFFFFF00
FFFFFFFF00
FFFFFFFF00
FFFFFFFF00
FFFFFFFF00
00FFFF0000
00FFFF0000
00FFFF0000
00FFFF0000
00FFFF0000
00FFFF0000
00FFFF0000
0FF00FF000
0FF00FF000
0FF00FF000
0FF00FF000
0FF00FF000
0FF00FF000
0FF00FF000
0000000000
0000000000
0000000000
0000000000
0000000000
0000000000
0000000000
0000000000
0000000000
0000000000
0000000000
0000000000
0000000000
0000000000
0000000000
0000000000
0000000000
0000000000
0000000000
0000000000
0000000000
ENDCHAR
STARTCHAR U+0029
ENCODING 41
SWIDTH 1000 0
BBX 36 70 0 -14
DWIDTH 36 0
BITMAP
0000000000
0000000000
0000000000
0000000000
0000000000
0000000000
0000000000
00FF000000
00FF000000
00FF000000
00FF000000
00FF000000
00FF000000
00FF000000
000FF00000
000FF00000
000FF00000
000FF00000
000FF00000
000FF00000
000FF00000
0000FF0000
0000FF0000
0000FF0000
0000FF0000
0000FF0000
0000FF0000
0000FF0000
0000FF0000
0000FF0000
0000FF0000
0000FF0000
0000FF0000
0000FF0000
0000FF0000
0000FF0000
0000FF0000
0000FF0000
0000FF0000
0000FF0000
0000FF0000
0000FF0000
000FF00000
000FF00000
000FF00000
000FF00000
000FF00000
000FF00000
000FF00000
00FF000000
00FF000000
00FF000000
00FF000000
00FF000000
00FF000000
00FF000000
0000000000
0000000000
0000000000
0000000000
0000000000
0000000000
0000000000
0000000000
0000000000
0000000000
0000000000
0000000000
0000000000
0000000000
ENDCHAR
STARTCHAR U+0028
ENCODING 40
SWIDTH 1000 0
BBX 36 70 0 -14
DWIDTH 36 0
BITMAP
0000000000
0000000000
0000000000
0000000000
0000000000
0000000000
0000000000
0000FF0000
0000FF0000
0000FF0000
0000FF0000
0000FF0000
0000FF0000
0000FF0000
000FF00000
000FF00000
000FF00000
000FF00000
000FF00000
000FF00000
000FF00000
00FF000000
00FF000000
00FF000000
00FF000000
00FF000000
00FF000000
00FF000000
00FF000000
00FF000000
00FF000000
00FF000000
00FF000000
00FF000000
00FF000000
00FF000000
00FF000000
00FF000000
00FF000000
00FF000000
00FF000000
00FF000000
000FF00000
000FF00000
000FF00000
000FF00000
000FF00000
000FF00000
000FF00000
0000FF0000
0000FF0000
0000FF0000
0000FF0000
0000FF0000
0000FF0000
0000FF0000
0000000000
0000000000
0000000000
0000000000
0000000000
0000000000
0000000000
0000000000
0000000000
0000000000
0000000000
0000000000
0000000000
0000000000
ENDCHAR
STARTCHAR U+0027
ENCODING 39
SWIDTH 1000 0
BBX 36 70 0 -14
DWIDTH 36 0
BITMAP
0000000000
0000000000
0000000000
0000000000
0000000000
0000000000
0000000000
000FFF0000
000FFF0000
000FFF0000
000FFF0000
000FFF0000
000FFF0000
000FFF0000
000FF00000
000FF00000
000FF00000
000FF00000
000FF00000
000FF00000
000FF00000
00FF000000
00FF000000
00FF000000
00FF000000
00FF000000
00FF000000
00FF000000
0000000000
0000000000
0000000000
0000000000
0000000000
0000000000
0000000000
0000000000
0000000000
0000000000
0000000000
0000000000
0000000000
0000000000
0000000000
0000000000
0000000000
0000000000
0000000000
0000000000
0000000000
0000000000
0000000000
0000000000
0000000000
0000000000
0000000000
0000000000
0000000000
0000000000
0000000000
0000000000
0000000000
0000000000
0000000000
0000000000
0000000000
0000000000
0000000000
0000000000
0000000000
0000000000
ENDCHAR
STARTCHAR U+0026
ENCODING 38
SWIDTH 1000 0
BBX 36 70 0 -14
DWIDTH 36 0
BITMAP
0000000000
0000000000
0000000000
0000000000
0000000000
0000000000
0000000000
0FFFF00000
0FFFF00000
0FFFF00000
0FFFF00000
0FFFF00000
0FFFF00000
0FFFF00000
FF00FF0000
FF00FF0000
FF00FF0000
FF00FF0000
FF00FF0000
FF00FF0000
FF00FF0000
FF00FF0000
FF00FF0000
FF00FF0000
FF00FF0000
FF00FF0000
FF00FF0000
FF00FF0000
0FFFF00000
0FFFF00000
0FFFF00000
0FFFF00000
0FFFF00000
0FFFF00000
0FFFF00000
FF00FFFF00
FF00FFFF00
FF00FFFF00
FF00FFFF00
FF00FFFF00
FF00FFFF00
FF00FFFF00
FF000FF000
FF000FF000
FF000FF000
FF000FF000
FF000FF000
FF000FF000
FF000FF000
0FFFFFFF00
0FFFFFFF00
0FFFFFFF00
0FFFFFFF00
0FFFFFFF00
0FFFFFFF00
0FFFFFFF00
0000000000
0000000000
0000000000
0000000000
0000000000
0000000000
0000000000
0000000000
0000000000
0000000000
0000000000
0000000000
0000000000
0000000000
ENDCHAR
STARTCHAR U+0025
ENCODING 37
SWIDTH 1000 0
BBX 36 70 0 -14
DWIDTH 36 0
BITMAP
0000000000
0000000000
0000000000
0000000000
0000000000
0000000000
0000000000
0FF000FF00
0FF000FF00
0FF000FF00
0FF000FF00
0FF000FF00
0FF000FF00
0FF000FF00
FFFF0FF000
FFFF0FF000
FFFF0FF000
FFFF0FF000
FFFF0FF000
FFFF0FF000
FFFF0FF000
0FF0FF0000
0FF0FF0000
0FF0FF0000
0FF0FF0000
0FF0FF0000
0FF0FF0000
0FF0FF0000
000FF00000
000FF00000
000FF00000
000FF00000
000FF00000
000FF00000
000FF00000
00FF0FF000
00FF0FF000
00FF0FF000
00FF0FF000
00FF0FF000
00FF0FF000
00FF0FF000
0FF0FFFF00
0FF0FFFF00
0FF0FFFF00
0FF0FFFF00
0FF0FFFF00
0FF0FFFF00
0FF0FFFF00
FF000FF000
FF000FF000
FF000FF000
FF000FF000
FF000FF000
FF000FF000
FF000FF000
0000000000
0000000000
0000000000
0000000000
0000000000
0000000000
0000000000
0000000000
0000000000
0000000000
0000000000
0000000000
0000000000
0000000000
ENDCHAR
STARTCHAR U+0024
ENCODING 36
SWIDTH 1000 0
BBX 36 70 0 -14
DWIDTH 36 0
BITMAP
0000000000
0000000000
0000000000
0000000000
0000000000
0000000000
0000000000
000FF00000
000FF00000
000FF00000
000FF00000
000FF00000
000FF00000
000FF00000
0FFFFFF000
0FFFFFF000
0FFFFFF000
0FFFFFF000
0FFFFFF000
0FFFFFF000
0FFFFFF000
FF0FF00000
FF0FF00000
FF0FF00000
FF0FF00000
FF0FF00000
FF0FF00000
FF0FF00000
0FFFFFF000
0FFFFFF000
0FFFFFF000
0FFFFFF000
0FFFFFF000
0FFFFFF000
0FFFFFF000
000FF0FF00
000FF0FF00
000FF0FF00
000FF0FF00
000FF0FF00
000FF0FF00
000FF0FF00
0FFFFFF000
0FFFFFF000
0FFFFFF000
0FFFFFF000
0FFFFFF000
0FFFFFF000
0FFFFFF000
000FF00000
000FF00000
000FF00000
000FF00000
000FF00000
000FF00000
000FF00000
0000000000
0000000000
0000000000
0000000000
0000000000
0000000000
0000000000
0000000000
0000000000
0000000000
0000000000
0000000000
0000000000
0000000000
ENDCHAR
STARTCHAR U+0023
ENCODING 35
SWIDTH 1000 0
BBX 36 70 0 -14
DWIDTH 36 0
BITMAP
0000000000
0000000000
0000000000
0000000000
0000000000
0000000000
0000000000
0FF0FF0000
0FF0FF0000
0FF0FF0000
0FF0FF0000
0FF0FF0000
0FF0FF0000
0FF0FF0000
0FF0FF0000
0FF0FF0000
0FF0FF0000
0FF0FF0000
0FF0FF0000
0FF0FF0000
0FF0FF0000
FFFFFFF000
FFFFFFF000
FFFFFFF000
FFFFFFF000
FFFFFFF000
FFFFFFF000
FFFFFFF000
0FF0FF0000
0FF0FF0000
0FF0FF0000
0FF0FF0000
0FF0FF0000
0FF0FF0000
0FF0FF0000
FFFFFFF000
FFFFFFF000
FFFFFFF000
FFFFFFF000
FFFFFFF000
FFFFFFF000
FFFFFFF000
0FF0FF0000
0FF0FF0000
0FF0FF0000
0FF0FF0000
0FF0FF0000
0FF0FF0000
0FF0FF0000
0FF0FF0000
0FF0FF0000
0FF0FF0000
0FF0FF0000
0FF0FF0000
0FF0FF0000
0FF0FF0000
0000000000
0000000000
0000000000
0000000000
0000000000
0000000000
0000000000
0000000000
0000000000
0000000000
0000000000
0000000000
0000000000
0000000000
ENDCHAR
STARTCHAR U+0022
ENCODING 34
SWIDTH 1000 0
BBX 36 70 0 -14
DWIDTH 36 0
BITMAP
0000000000
0000000000
0000000000
0000000000
0000000000
0000000000
0000000000
0FF0FF0000
0FF0FF0000
0FF0FF0000
0FF0FF0000
0FF0FF0000
0FF0FF0000
0FF0FF0000
0FF0FF0000
0FF0FF0000
0FF0FF0000
0FF0FF0000
0FF0FF0000
0FF0FF0000
0FF0FF0000
0FF0FF0000
0FF0FF0000
0FF0FF0000
0FF0FF0000
0FF0FF0000
0FF0FF0000
0FF0FF0000
0000000000
0000000000
0000000000
0000000000
0000000000
0000000000
0000000000
0000000000
0000000000
0000000000
0000000000
0000000000
0000000000
0000000000
0000000000
0000000000
0000000000
0000000000
0000000000
0000000000
0000000000
0000000000
0000000000
0000000000
0000000000
0000000000
0000000000
0000000000
0000000000
0000000000
0000000000
0000000000
0000000000
0000000000
0000000000
0000000000
0000000000
0000000000
0000000000
0000000000
0000000000
0000000000
ENDCHAR
STARTCHAR U+0021
ENCODING 33
SWIDTH 1000 0
BBX 36 70 0 -14
DWIDTH 36 0
BITMAP
0000000000
0000000000
0000000000
0000000000
0000000000
0000000000
0000000000
000FF00000
000FF00000
000FF00000
000FF00000
000FF00000
000FF00000
000FF00000
000FF00000
000FF00000
000FF00000
000FF00000
000FF00000
000FF00000
000FF00000
000FF00000
000FF00000
000FF00000
000FF00000
000FF00000
000FF00000
000FF00000
000FF00000
000FF00000
000FF00000
000FF00000
000FF00000
000FF00000
000FF00000
000FF00000
000FF00000
000FF00000
000FF00000
000FF00000
000FF00000
000FF00000
0000000000
0000000000
0000000000
0000000000
0000000000
0000000000
0000000000
000FF00000
000FF00000
000FF00000
000FF00000
000FF00000
000FF00000
000FF00000
0000000000
0000000000
0000000000
0000000000
0000000000
0000000000
0000000000
0000000000
0000000000
0000000000
0000000000
0000000000
0000000000
0000000000
ENDCHAR
STARTCHAR U+2E2E
ENCODING 11822
SWIDTH 1000 0
BBX 36 70 0 -14
DWIDTH 36 0
BITMAP
0000000000
0000000000
0000000000
0000000000
0000000000
0000000000
0000000000
0FFFFFF000
0FFFFFF000
0FFFFFF000
0FFFFFF000
0FFFFFF000
0FFFFFF000
0FFFFFF000
FF0000FF00
FF0000FF00
FF0000FF00
FF0000FF00
FF0000FF00
FF0000FF00
FF0000FF00
0FFF000000
0FFF000000
0FFF000000
0FFF000000
0FFF000000
0FFF000000
0FFF000000
000FF00000
000FF00000
000FF00000
000FF00000
000FF00000
000FF00000
000FF00000
000FF00000
000FF00000
000FF00000
000FF00000
000FF00000
000FF00000
000FF00000
0000000000
0000000000
0000000000
0000000000
0000000000
0000000000
0000000000
000FF00000
000FF00000
000FF00000
000FF00000
000FF00000
000FF00000
000FF00000
0000000000
0000000000
0000000000
0000000000
0000000000
0000000000
0000000000
0000000000
0000000000
0000000000
0000000000
0000000000
0000000000
0000000000
ENDCHAR
STARTCHAR U+00b7
ENCODING 183
SWIDTH 1000 0
BBX 36 70 0 -14
DWIDTH 36 0
BITMAP
0000000000
0000000000
0000000000
0000000000
0000000000
0000000000
0000000000
0000000000
0000000000
0000000000
0000000000
0000000000
0000000000
0000000000
0000000000
0000000000
0000000000
0000000000
0000000000
0000000000
0000000000
0000000000
0000000000
0000000000
0000000000
0000000000
0000000000
0000000000
000FF00000
000FF00000
000FF00000
000FF00000
000FF00000
000FF00000
000FF00000
0000000000
0000000000
0000000000
0000000000
0000000000
0000000000
0000000000
0000000000
0000000000
0000000000
0000000000
0000000000
0000000000
0000000000
0000000000
0000000000
0000000000
0000000000
0000000000
0000000000
0000000000
0000000000
0000000000
0000000000
0000000000
0000000000
0000000000
0000000000
0000000000
0000000000
0000000000
0000000000
0000000000
0000000000
0000000000
ENDCHAR
STARTCHAR U+00A3
ENCODING 163
SWIDTH 1000 0
BBX 36 70 0 -14
DWIDTH 36 0
BITMAP
0000000000
0000000000
0000000000
0000000000
0000000000
0000000000
0000000000
000FFFF000
000FFFF000
000FFFF000
000FFFF000
000FFFF000
000FFFF000
000FFFF000
00FF00FF00
00FF00FF00
00FF00FF00
00FF00FF00
00FF00FF00
00FF00FF00
00FF00FF00
00FF000000
00FF000000
00FF000000
00FF000000
00FF000000
00FF000000
00FF000000
FFFFFF0000
FFFFFF0000
FFFFFF0000
FFFFFF0000
FFFFFF0000
FFFFFF0000
FFFFFF0000
00FF000000
00FF000000
00FF000000
00FF000000
00FF000000
00FF000000
00FF000000
0FFFFF0000
0FFFFF0000
0FFFFF0000
0FFFFF0000
0FFFFF0000
0FFFFF0000
0FFFFF0000
FFFF0FFF00
FFFF0FFF00
FFFF0FFF00
FFFF0FFF00
FFFF0FFF00
FFFF0FFF00
FFFF0FFF00
0FF0000000
0FF0000000
0FF0000000
0FF0000000
0FF0000000
0FF0000000
0FF0000000
0000000000
0000000000
0000000000
0000000000
0000000000
0000000000
0000000000
ENDCHAR
STARTCHAR U+2260
ENCODING 8800
SWIDTH 1000 0
BBX 36 70 0 -14
DWIDTH 36 0
BITMAP
0000000000
0000000000
0000000000
0000000000
0000000000
0000000000
0000000000
000000FF00
000000FF00
000000FF00
000000FF00
000000FF00
000000FF00
000000FF00
00000FF000
00000FF000
00000FF000
00000FF000
00000FF000
00000FF000
00000FF000
FFFFFFFF00
FFFFFFFF00
FFFFFFFF00
FFFFFFFF00
FFFFFFFF00
FFFFFFFF00
FFFFFFFF00
000FF00000
000FF00000
000FF00000
000FF00000
000FF00000
000FF00000
000FF00000
FFFFFFFF00
FFFFFFFF00
FFFFFFFF00
FFFFFFFF00
FFFFFFFF00
FFFFFFFF00
FFFFFFFF00
0FF0000000
0FF0000000
0FF0000000
0FF0000000
0FF0000000
0FF0000000
0FF0000000
FF00000000
FF00000000
FF00000000
FF00000000
FF00000000
FF00000000
FF00000000
0000000000
0000000000
0000000000
0000000000
0000000000
0000000000
0000000000
0000000000
0000000000
0000000000
0000000000
0000000000
0000000000
0000000000
ENDCHAR
STARTCHAR U+03C0
ENCODING 960
SWIDTH 1000 0
BBX 36 70 0 -14
DWIDTH 36 0
BITMAP
0000000000
0000000000
0000000000
0000000000
0000000000
0000000000
0000000000
0000000000
0000000000
0000000000
0000000000
0000000000
0000000000
0000000000
0000000000
0000000000
0000000000
0000000000
0000000000
0000000000
0000000000
FFFFFFFF00
FFFFFFFF00
FFFFFFFF00
FFFFFFFF00
FFFFFFFF00
FFFFFFFF00
FFFFFFFF00
00FF0FF000
00FF0FF000
00FF0FF000
00FF0FF000
00FF0FF000
00FF0FF000
00FF0FF000
00FF0FF000
00FF0FF000
00FF0FF000
00FF0FF000
00FF0FF000
00FF0FF000
00FF0FF000
00FF0FF000
00FF0FF000
00FF0FF000
00FF0FF000
00FF0FF000
00FF0FF000
00FF0FF000
0FF00FF000
0FF00FF000
0FF00FF000
0FF00FF000
0FF00FF000
0FF00FF000
0FF00FF000
0000000000
0000000000
0000000000
0000000000
0000000000
0000000000
0000000000
0000000000
0000000000
0000000000
0000000000
0000000000
0000000000
0000000000
ENDCHAR
STARTCHAR U+2265
ENCODING 8805
SWIDTH 1000 0
BBX 36 70 0 -14
DWIDTH 36 0
BITMAP
0000000000
0000000000
0000000000
0000000000
0000000000
0000000000
0000000000
FF00000000
FF00000000
FF00000000
FF00000000
FF00000000
FF00000000
FF00000000
00FF000000
00FF000000
00FF000000
00FF000000
00FF000000
00FF000000
00FF000000
0000FF0000
0000FF0000
0000FF0000
0000FF0000
0000FF0000
0000FF0000
0000FF0000
000000FF00
000000FF00
000000FF00
000000FF00
000000FF00
000000FF00
000000FF00
0000FF0000
0000FF0000
0000FF0000
0000FF0000
0000FF0000
0000FF0000
0000FF0000
00FF000000
00FF000000
00FF000000
00FF000000
00FF000000
00FF000000
00FF000000
FF00000000
FF00000000
FF00000000
FF00000000
FF00000000
FF00000000
FF00000000
FFFFFFFF00
FFFFFFFF00
FFFFFFFF00
FFFFFFFF00
FFFFFFFF00
FFFFFFFF00
FFFFFFFF00
0000000000
0000000000
0000000000
0000000000
0000000000
0000000000
0000000000
ENDCHAR
STARTCHAR U+2264
ENCODING 8804
SWIDTH 1000 0
BBX 36 70 0 -14
DWIDTH 36 0
BITMAP
0000000000
0000000000
0000000000
0000000000
0000000000
0000000000
0000000000
000000FF00
000000FF00
000000FF00
000000FF00
000000FF00
000000FF00
000000FF00
0000FF0000
0000FF0000
0000FF0000
0000FF0000
0000FF0000
0000FF0000
0000FF0000
00FF000000
00FF000000
00FF000000
00FF000000
00FF000000
00FF000000
00FF000000
FF00000000
FF00000000
FF00000000
FF00000000
FF00000000
FF00000000
FF00000000
00FF000000
00FF000000
00FF000000
00FF000000
00FF000000
00FF000000
00FF000000
0000FF0000
0000FF0000
0000FF0000
0000FF0000
0000FF0000
0000FF0000
0000FF0000
000000FF00
000000FF00
000000FF00
000000FF00
000000FF00
000000FF00
000000FF00
FFFFFFFF00
FFFFFFFF00
FFFFFFFF00
FFFFFFFF00
FFFFFFFF00
FFFFFFFF00
FFFFFFFF00
0000000000
0000000000
0000000000
0000000000
0000000000
0000000000
0000000000
ENDCHAR
STARTCHAR U+2502
ENCODING 9474
SWIDTH 1000 0
BBX 36 70 0 -14
DWIDTH 36 0
BITMAP
000FF00000
000FF00000
000FF00000
000FF00000
000FF00000
000FF00000
000FF00000
000FF00000
000FF00000
000FF00000
000FF00000
000FF00000
000FF00000
000FF00000
000FF00000
000FF00000
000FF00000
000FF00000
000FF00000
000FF00000
000FF00000
000FF00000
000FF00000
000FF00000
000FF00000
000FF00000
000FF00000
000FF00000
000FF00000
000FF00000
000FF00000
000FF00000
000FF00000
000FF00000
000FF00000
000FF00000
000FF00000
000FF00000
000FF00000
000FF00000
000FF00000
000FF00000
000FF00000
000FF00000
000FF00000
000FF00000
000FF00000
000FF00000
000FF00000
000FF00000
000FF00000
000FF00000
000FF00000
000FF00000
000FF00000
000FF00000
000FF00000
000FF00000
000FF00000
000FF00000
000FF00000
000FF00000
000FF00000
000FF00000
000FF00000
000FF00000
000FF00000
000FF00000
000FF00000
000FF00000
ENDCHAR
STARTCHAR U+253C
ENCODING 9532
SWIDTH 1000 0
BBX 36 70 0 -14
DWIDTH 36 0
BITMAP
0000000000
0000000000
0000000000
0000000000
0000000000
0000000000
0000000000
0000000000
0000000000
0000000000
0000000000
0000000000
0000000000
0000000000
0000000000
0000000000
0000000000
0000000000
0000000000
0000000000
0000000000
0000000000
0000000000
0000000000
0000000000
0000000000
0000000000
0000000000
FFFFFFFFF0
FFFFFFFFF0
FFFFFFFFF0
FFFFFFFFF0
FFFFFFFFF0
FFFFFFFFF0
FFFFFFFFF0
000FF00000
000FF00000
000FF00000
000FF00000
000FF00000
000FF00000
000FF00000
000FF00000
000FF00000
000FF00000
000FF00000
000FF00000
000FF00000
000FF00000
000FF00000
000FF00000
000FF00000
000FF00000
000FF00000
000FF00000
000FF00000
000FF00000
000FF00000
000FF00000
000FF00000
000FF00000
000FF00000
000FF00000
000FF00000
000FF00000
000FF00000
000FF00000
000FF00000
000FF00000
000FF00000
ENDCHAR
STARTCHAR U+2534
ENCODING 9524
SWIDTH 1000 0
BBX 36 70 0 -14
DWIDTH 36 0
BITMAP
000FF00000
000FF00000
000FF00000
000FF00000
000FF00000
000FF00000
000FF00000
000FF00000
000FF00000
000FF00000
000FF00000
000FF00000
000FF00000
000FF00000
000FF00000
000FF00000
000FF00000
000FF00000
000FF00000
000FF00000
000FF00000
000FF00000
000FF00000
000FF00000
000FF00000
000FF00000
000FF00000
000FF00000
FFFFFFFFF0
FFFFFFFFF0
FFFFFFFFF0
FFFFFFFFF0
FFFFFFFFF0
FFFFFFFFF0
FFFFFFFFF0
0000000000
0000000000
0000000000
0000000000
0000000000
0000000000
0000000000
0000000000
0000000000
0000000000
0000000000
0000000000
0000000000
0000000000
0000000000
0000000000
0000000000
0000000000
0000000000
0000000000
0000000000
0000000000
0000000000
0000000000
0000000000
0000000000
0000000000
0000000000
0000000000
0000000000
0000000000
0000000000
0000000000
0000000000
0000000000
ENDCHAR
STARTCHAR U+2524
ENCODING 9508
SWIDTH 1000 0
BBX 36 70 0 -14
DWIDTH 36 0
BITMAP
000FF00000
000FF00000
000FF00000
000FF00000
000FF00000
000FF00000
000FF00000
000FF00000
000FF00000
000FF00000
000FF00000
000FF00000
000FF00000
000FF00000
000FF00000
000FF00000
000FF00000
000FF00000
000FF00000
000FF00000
000FF00000
000FF00000
000FF00000
000FF00000
000FF00000
000FF00000
000FF00000
000FF00000
FFFFF00000
FFFFF00000
FFFFF00000
FFFFF00000
FFFFF00000
FFFFF00000
FFFFF00000
000FF00000
000FF00000
000FF00000
000FF00000
000FF00000
000FF00000
000FF00000
000FF00000
000FF00000
000FF00000
000FF00000
000FF00000
000FF00000
000FF00000
000FF00000
000FF00000
000FF00000
000FF00000
000FF00000
000FF00000
000FF00000
000FF00000
000FF00000
000FF00000
000FF00000
000FF00000
000FF00000
000FF00000
000FF00000
000FF00000
000FF00000
000FF00000
000FF00000
000FF00000
000FF00000
ENDCHAR
STARTCHAR U+251C
ENCODING 9500
SWIDTH 1000 0
BBX 36 70 0 -14
DWIDTH 36 0
BITMAP
000FF00000
000FF00000
000FF00000
000FF00000
000FF00000
000FF00000
000FF00000
000FF00000
000FF00000
000FF00000
000FF00000
000FF00000
000FF00000
000FF00000
000FF00000
000FF00000
000FF00000
000FF00000
000FF00000
000FF00000
000FF00000
000FF00000
000FF00000
000FF00000
000FF00000
000FF00000
000FF00000
000FF00000
000FFFFFF0
000FFFFFF0
000FFFFFF0
000FFFFFF0
000FFFFFF0
000FFFFFF0
000FFFFFF0
000FF00000
000FF00000
000FF00000
000FF00000
000FF00000
000FF00000
000FF00000
000FF00000
000FF00000
000FF00000
000FF00000
000FF00000
000FF00000
000FF00000
000FF00000
000FF00000
000FF00000
000FF00000
000FF00000
000FF00000
000FF00000
000FF00000
000FF00000
000FF00000
000FF00000
000FF00000
000FF00000
000FF00000
000FF00000
000FF00000
000FF00000
000FF00000
000FF00000
000FF00000
000FF00000
ENDCHAR
STARTCHAR U+23BD
ENCODING 9149
SWIDTH 1000 0
BBX 36 70 0 -14
DWIDTH 36 0
BITMAP
0000000000
0000000000
0000000000
0000000000
0000000000
0000000000
0000000000
0000000000
0000000000
0000000000
0000000000
0000000000
0000000000
0000000000
0000000000
0000000000
0000000000
0000000000
0000000000
0000000000
0000000000
0000000000
0000000000
0000000000
0000000000
0000000000
0000000000
0000000000
0000000000
0000000000
0000000000
0000000000
0000000000
0000000000
0000000000
0000000000
0000000000
0000000000
0000000000
0000000000
0000000000
0000000000
0000000000
0000000000
0000000000
0000000000
0000000000
0000000000
0000000000
0000000000
0000000000
0000000000
0000000000
0000000000
0000000000
0000000000
FFFFFFFFF0
FFFFFFFFF0
FFFFFFFFF0
FFFFFFFFF0
FFFFFFFFF0
FFFFFFFFF0
FFFFFFFFF0
0000000000
0000000000
0000000000
0000000000
0000000000
0000000000
0000000000
ENDCHAR
STARTCHAR U+23BC
ENCODING 9148
SWIDTH 1000 0
BBX 36 70 0 -14
DWIDTH 36 0
BITMAP
0000000000
0000000000
0000000000
0000000000
0000000000
0000000000
0000000000
0000000000
0000000000
0000000000
0000000000
0000000000
0000000000
0000000000
0000000000
0000000000
0000000000
0000000000
0000000000
0000000000
0000000000
0000000000
0000000000
0000000000
0000000000
0000000000
0000000000
0000000000
0000000000
0000000000
0000000000
0000000000
0000000000
0000000000
0000000000
0000000000
0000000000
0000000000
0000000000
0000000000
0000000000
0000000000
FFFFFFFFF0
FFFFFFFFF0
FFFFFFFFF0
FFFFFFFFF0
FFFFFFFFF0
FFFFFFFFF0
FFFFFFFFF0
0000000000
0000000000
0000000000
0000000000
0000000000
0000000000
0000000000
0000000000
0000000000
0000000000
0000000000
0000000000
0000000000
0000000000
0000000000
0000000000
0000000000
0000000000
0000000000
0000000000
0000000000
ENDCHAR
STARTCHAR U+2500
ENCODING 9472
SWIDTH 1000 0
BBX 36 70 0 -14
DWIDTH 36 0
BITMAP
0000000000
0000000000
0000000000
0000000000
0000000000
0000000000
0000000000
0000000000
0000000000
0000000000
0000000000
0000000000
0000000000
0000000000
0000000000
0000000000
0000000000
0000000000
0000000000
0000000000
0000000000
0000000000
0000000000
0000000000
0000000000
0000000000
0000000000
0000000000
FFFFFFFFF0
FFFFFFFFF0
FFFFFFFFF0
FFFFFFFFF0
FFFFFFFFF0
FFFFFFFFF0
FFFFFFFFF0
0000000000
0000000000
0000000000
0000000000
0000000000
0000000000
0000000000
0000000000
0000000000
0000000000
0000000000
0000000000
0000000000
0000000000
0000000000
0000000000
0000000000
0000000000
0000000000
0000000000
0000000000
0000000000
0000000000
0000000000
0000000000
0000000000
0000000000
0000000000
0000000000
0000000000
0000000000
0000000000
0000000000
0000000000
0000000000
ENDCHAR
STARTCHAR U+23BB
ENCODING 9147
SWIDTH 1000 0
BBX 36 70 0 -14
DWIDTH 36 0
BITMAP
0000000000
0000000000
0000000000
0000000000
0000000000
0000000000
0000000000
0000000000
0000000000
0000000000
0000000000
0000000000
0000000000
0000000000
FFFFFFFFF0
FFFFFFFFF0
FFFFFFFFF0
FFFFFFFFF0
FFFFFFFFF0
FFFFFFFFF0
FFFFFFFFF0
0000000000
0000000000
0000000000
0000000000
0000000000
0000000000
0000000000
0000000000
0000000000
0000000000
0000000000
0000000000
0000000000
0000000000
0000000000
0000000000
0000000000
0000000000
0000000000
0000000000
0000000000
0000000000
0000000000
0000000000
0000000000
0000000000
0000000000
0000000000
0000000000
0000000000
0000000000
0000000000
0000000000
0000000000
0000000000
0000000000
0000000000
0000000000
0000000000
0000000000
0000000000
0000000000
0000000000
0000000000
0000000000
0000000000
0000000000
0000000000
0000000000
ENDCHAR
STARTCHAR U+23BA
ENCODING 9146
SWIDTH 1000 0
BBX 36 70 0 -14
DWIDTH 36 0
BITMAP
FFFFFFFFF0
FFFFFFFFF0
FFFFFFFFF0
FFFFFFFFF0
FFFFFFFFF0
FFFFFFFFF0
FFFFFFFFF0
0000000000
0000000000
0000000000
0000000000
0000000000
0000000000
0000000000
0000000000
0000000000
0000000000
0000000000
0000000000
0000000000
0000000000
0000000000
0000000000
0000000000
0000000000
0000000000
0000000000
0000000000
0000000000
0000000000
0000000000
0000000000
0000000000
0000000000
0000000000
0000000000
0000000000
0000000000
0000000000
0000000000
0000000000
0000000000
0000000000
0000000000
0000000000
0000000000
0000000000
0000000000
0000000000
0000000000
0000000000
0000000000
0000000000
0000000000
0000000000
0000000000
0000000000
0000000000
0000000000
0000000000
0000000000
0000000000
0000000000
0000000000
0000000000
0000000000
0000000000
0000000000
0000000000
0000000000
ENDCHAR
STARTCHAR U+253C
ENCODING 9532
SWIDTH 1000 0
BBX 36 70 0 -14
DWIDTH 36 0
BITMAP
000FF00000
000FF00000
000FF00000
000FF00000
000FF00000
000FF00000
000FF00000
000FF00000
000FF00000
000FF00000
000FF00000
000FF00000
000FF00000
000FF00000
000FF00000
000FF00000
000FF00000
000FF00000
000FF00000
000FF00000
000FF00000
000FF00000
000FF00000
000FF00000
000FF00000
000FF00000
000FF00000
000FF00000
FFFFFFFFF0
FFFFFFFFF0
FFFFFFFFF0
FFFFFFFFF0
FFFFFFFFF0
FFFFFFFFF0
FFFFFFFFF0
000FF00000
000FF00000
000FF00000
000FF00000
000FF00000
000FF00000
000FF00000
000FF00000
000FF00000
000FF00000
000FF00000
000FF00000
000FF00000
000FF00000
000FF00000
000FF00000
000FF00000
000FF00000
000FF00000
000FF00000
000FF00000
000FF00000
000FF00000
000FF00000
000FF00000
000FF00000
000FF00000
000FF00000
000FF00000
000FF00000
000FF00000
000FF00000
000FF00000
000FF00000
000FF00000
ENDCHAR
STARTCHAR U+2514
ENCODING 9492
SWIDTH 1000 0
BBX 36 70 0 -14
DWIDTH 36 0
BITMAP
000FF00000
000FF00000
000FF00000
000FF00000
000FF00000
000FF00000
000FF00000
000FF00000
000FF00000
000FF00000
000FF00000
000FF00000
000FF00000
000FF00000
000FF00000
000FF00000
000FF00000
000FF00000
000FF00000
000FF00000
000FF00000
000FF00000
000FF00000
000FF00000
000FF00000
000FF00000
000FF00000
000FF00000
000FFFFFF0
000FFFFFF0
000FFFFFF0
000FFFFFF0
000FFFFFF0
000FFFFFF0
000FFFFFF0
0000000000
0000000000
0000000000
0000000000
0000000000
0000000000
0000000000
0000000000
0000000000
0000000000
0000000000
0000000000
0000000000
0000000000
0000000000
0000000000
0000000000
0000000000
0000000000
0000000000
0000000000
0000000000
0000000000
0000000000
0000000000
0000000000
0000000000
0000000000
0000000000
0000000000
0000000000
0000000000
0000000000
0000000000
0000000000
ENDCHAR
STARTCHAR U+250C
ENCODING 9484
SWIDTH 1000 0
BBX 36 70 0 -14
DWIDTH 36 0
BITMAP
0000000000
0000000000
0000000000
0000000000
0000000000
0000000000
0000000000
0000000000
0000000000
0000000000
0000000000
0000000000
0000000000
0000000000
0000000000
0000000000
0000000000
0000000000
0000000000
0000000000
0000000000
0000000000
0000000000
0000000000
0000000000
0000000000
0000000000
0000000000
000FFFFFF0
000FFFFFF0
000FFFFFF0
000FFFFFF0
000FFFFFF0
000FFFFFF0
000FFFFFF0
000FF00000
000FF00000
000FF00000
000FF00000
000FF00000
000FF00000
000FF00000
000FF00000
000FF00000
000FF00000
000FF00000
000FF00000
000FF00000
000FF00000
000FF00000
000FF00000
000FF00000
000FF00000
000FF00000
000FF00000
000FF00000
000FF00000
000FF00000
000FF00000
000FF00000
000FF00000
000FF00000
000FF00000
000FF00000
000FF00000
000FF00000
000FF00000
000FF00000
000FF00000
000FF00000
ENDCHAR
STARTCHAR U+2510
ENCODING 9488
SWIDTH 1000 0
BBX 36 70 0 -14
DWIDTH 36 0
BITMAP
0000000000
0000000000
0000000000
0000000000
0000000000
0000000000
0000000000
0000000000
0000000000
0000000000
0000000000
0000000000
0000000000
0000000000
0000000000
0000000000
0000000000
0000000000
0000000000
0000000000
0000000000
0000000000
0000000000
0000000000
0000000000
0000000000
0000000000
0000000000
FFFFF00000
FFFFF00000
FFFFF00000
FFFFF00000
FFFFF00000
FFFFF00000
FFFFF00000
000FF00000
000FF00000
000FF00000
000FF00000
000FF00000
000FF00000
000FF00000
000FF00000
000FF00000
000FF00000
000FF00000
000FF00000
000FF00000
000FF00000
000FF00000
000FF00000
000FF00000
000FF00000
000FF00000
000FF00000
000FF00000
000FF00000
000FF00000
000FF00000
000FF00000
000FF00000
000FF00000
000FF00000
000FF00000
000FF00000
000FF00000
000FF00000
000FF00000
000FF00000
000FF00000
ENDCHAR
STARTCHAR U+2518
ENCODING 9496
SWIDTH 1000 0
BBX 36 70 0 -14
DWIDTH 36 0
BITMAP
000FF00000
000FF00000
000FF00000
000FF00000
000FF00000
000FF00000
000FF00000
000FF00000
000FF00000
000FF00000
000FF00000
000FF00000
000FF00000
000FF00000
000FF00000
000FF00000
000FF00000
000FF00000
000FF00000
000FF00000
000FF00000
000FF00000
000FF00000
000FF00000
000FF00000
000FF00000
000FF00000
000FF00000
FFFFF00000
FFFFF00000
FFFFF00000
FFFFF00000
FFFFF00000
FFFFF00000
FFFFF00000
0000000000
0000000000
0000000000
0000000000
0000000000
0000000000
0000000000
0000000000
0000000000
0000000000
0000000000
0000000000
0000000000
0000000000
0000000000
0000000000
0000000000
0000000000
0000000000
0000000000
0000000000
0000000000
0000000000
0000000000
0000000000
0000000000
0000000000
0000000000
0000000000
0000000000
0000000000
0000000000
0000000000
0000000000
0000000000
ENDCHAR
STARTCHAR U+240B
ENCODING 9227
SWIDTH 1000 0
BBX 36 70 0 -14
DWIDTH 36 0
BITMAP
0000000000
0000000000
0000000000
0000000000
0000000000
0000000000
0000000000
FF00FF0000
FF00FF0000
FF00FF0000
FF00FF0000
FF00FF0000
FF00FF0000
FF00FF0000
FF00FF0000
FF00FF0000
FF00FF0000
FF00FF0000
FF00FF0000
FF00FF0000
FF00FF0000
0FFFF00000
0FFFF00000
0FFFF00000
0FFFF00000
0FFFF00000
0FFFF00000
0FFFF00000
0FFFF00000
0FFFF00000
0FFFF00000
0FFFF00000
0FFFF00000
0FFFF00000
0FFFF00000
00FFFFFF00
00FFFFFF00
00FFFFFF00
00FFFFFF00
00FFFFFF00
00FFFFFF00
00FFFFFF00
0000FF0000
0000FF0000
0000FF0000
0000FF0000
0000FF0000
0000FF0000
0000FF0000
0000FF0000
0000FF0000
0000FF0000
0000FF0000
0000FF0000
0000FF0000
0000FF0000
0000FF0000
0000FF0000
0000FF0000
0000FF0000
0000FF0000
0000FF0000
0000FF0000
0000FF0000
0000FF0000
0000FF0000
0000FF0000
0000FF0000
0000FF0000
0000FF0000
ENDCHAR
STARTCHAR U+2424
ENCODING 9252
SWIDTH 1000 0
BBX 36 70 0 -14
DWIDTH 36 0
BITMAP
0000000000
0000000000
0000000000
0000000000
0000000000
0000000000
0000000000
FF00FF0000
FF00FF0000
FF00FF0000
FF00FF0000
FF00FF0000
FF00FF0000
FF00FF0000
FFF0FF0000
FFF0FF0000
FFF0FF0000
FFF0FF0000
FFF0FF0000
FFF0FF0000
FFF0FF0000
FFFFFF0000
FFFFFF0000
FFFFFF0000
FFFFFF0000
FFFFFF0000
FFFFFF0000
FFFFFF0000
FF0FFF0000
FF0FFF0000
FF0FFF0000
FF0FFF0000
FF0FFF0000
FF0FFF0000
FF0FFF0000
FF0FFF0000
FF0FFF0000
FF0FFF0000
FF0FFF0000
FF0FFF0000
FF0FFF0000
FF0FFF0000
000FF00000
000FF00000
000FF00000
000FF00000
000FF00000
000FF00000
000FF00000
000FF00000
000FF00000
000FF00000
000FF00000
000FF00000
000FF00000
000FF00000
000FF00000
000FF00000
000FF00000
000FF00000
000FF00000
000FF00000
000FF00000
000FFFFF00
000FFFFF00
000FFFFF00
000FFFFF00
000FFFFF00
000FFFFF00
000FFFFF00
ENDCHAR
STARTCHAR U+00B1
ENCODING 177
SWIDTH 1000 0
BBX 36 70 0 -14
DWIDTH 36 0
BITMAP
0000000000
0000000000
0000000000
0000000000
0000000000
0000000000
0000000000
0000000000
0000000000
0000000000
0000000000
0000000000
0000000000
0000000000
000FF00000
000FF00000
000FF00000
000FF00000
000FF00000
000FF00000
000FF00000
000FF00000
000FF00000
000FF00000
000FF00000
000FF00000
000FF00000
000FF00000
FFFFFFFF00
FFFFFFFF00
FFFFFFFF00
FFFFFFFF00
FFFFFFFF00
FFFFFFFF00
FFFFFFFF00
000FF00000
000FF00000
000FF00000
000FF00000
000FF00000
000FF00000
000FF00000
000FF00000
000FF00000
000FF00000
000FF00000
000FF00000
000FF00000
000FF00000
FFFFFFFF00
FFFFFFFF00
FFFFFFFF00
FFFFFFFF00
FFFFFFFF00
FFFFFFFF00
FFFFFFFF00
0000000000
0000000000
0000000000
0000000000
0000000000
0000000000
0000000000
0000000000
0000000000
0000000000
0000000000
0000000000
0000000000
0000000000
ENDCHAR
STARTCHAR U+00B0
ENCODING 176
SWIDTH 1000 0
BBX 36 70 0 -14
DWIDTH 36 0
BITMAP
0000000000
0000000000
0000000000
0000000000
0000000000
0000000000
0000000000
00FFFF0000
00FFFF0000
00FFFF0000
00FFFF0000
00FFFF0000
00FFFF0000
00FFFF0000
0FF00FF000
0FF00FF000
0FF00FF000
0FF00FF000
0FF00FF000
0FF00FF000
0FF00FF000
00FFFF0000
00FFFF0000
00FFFF0000
00FFFF0000
00FFFF0000
00FFFF0000
00FFFF0000
0000000000
0000000000
0000000000
0000000000
0000000000
0000000000
0000000000
0000000000
0000000000
0000000000
0000000000
0000000000
0000000000
0000000000
0000000000
0000000000
0000000000
0000000000
0000000000
0000000000
0000000000
0000000000
0000000000
0000000000
0000000000
0000000000
0000000000
0000000000
0000000000
0000000000
0000000000
0000000000
0000000000
0000000000
0000000000
0000000000
0000000000
0000000000
0000000000
0000000000
0000000000
0000000000
ENDCHAR
STARTCHAR U+240A
ENCODING 9226
SWIDTH 1000 0
BBX 36 70 0 -14
DWIDTH 36 0
BITMAP
0000000000
0000000000
0000000000
0000000000
0000000000
0000000000
0000000000
FF00000000
FF00000000
FF00000000
FF00000000
FF00000000
FF00000000
FF00000000
FF00000000
FF00000000
FF00000000
FF00000000
FF00000000
FF00000000
FF00000000
FF00000000
FF00000000
FF00000000
FF00000000
FF00000000
FF00000000
FF00000000
FF00000000
FF00000000
FF00000000
FF00000000
FF00000000
FF00000000
FF00000000
FFFFFFFF00
FFFFFFFF00
FFFFFFFF00
FFFFFFFF00
FFFFFFFF00
FFFFFFFF00
FFFFFFFF00
000FF00000
000FF00000
000FF00000
000FF00000
000FF00000
000FF00000
000FF00000
000FFFF000
000FFFF000
000FFFF000
000FFFF000
000FFFF000
000FFFF000
000FFFF000
000FF00000
000FF00000
000FF00000
000FF00000
000FF00000
000FF00000
000FF00000
000FF00000
000FF00000
000FF00000
000FF00000
000FF00000
000FF00000
000FF00000
ENDCHAR
STARTCHAR U+240D
ENCODING 9229
SWIDTH 1000 0
BBX 36 70 0 -14
DWIDTH 36 0
BITMAP
0000000000
0000000000
0000000000
0000000000
0000000000
0000000000
0000000000
0FFFF00000
0FFFF00000
0FFFF00000
0FFFF00000
0FFFF00000
0FFFF00000
0FFFF00000
FF00000000
FF00000000
FF00000000
FF00000000
FF00000000
FF00000000
FF00000000
FF00000000
FF00000000
FF00000000
FF00000000
FF00000000
FF00000000
FF00000000
FF00000000
FF00000000
FF00000000
FF00000000
FF00000000
FF00000000
FF00000000
0FFFFFF000
0FFFFFF000
0FFFFFF000
0FFFFFF000
0FFFFFF000
0FFFFFF000
0FFFFFF000
000FF0FF00
000FF0FF00
000FF0FF00
000FF0FF00
000FF0FF00
000FF0FF00
000FF0FF00
000FFFF000
000FFFF000
000FFFF000
000FFFF000
000FFFF000
000FFFF000
000FFFF000
000FF0FF00
000FF0FF00
000FF0FF00
000FF0FF00
000FF0FF00
000FF0FF00
000FF0FF00
000FF0FF00
000FF0FF00
000FF0FF00
000FF0FF00
000FF0FF00
000FF0FF00
000FF0FF00
ENDCHAR
STARTCHAR U+240C
ENCODING 9228
SWIDTH 1000 0
BBX 36 70 0 -14
DWIDTH 36 0
BITMAP
0000000000
0000000000
0000000000
0000000000
0000000000
0000000000
0000000000
FFFFF00000
FFFFF00000
FFFFF00000
FFFFF00000
FFFFF00000
FFFFF00000
FFFFF00000
FF00000000
FF00000000
FF00000000
FF00000000
FF00000000
FF00000000
FF00000000
FFFF000000
FFFF000000
FFFF000000
FFFF000000
FFFF000000
FFFF000000
FFFF000000
FF00000000
FF00000000
FF00000000
FF00000000
FF00000000
FF00000000
FF00000000
FF0FFFFF00
FF0FFFFF00
FF0FFFFF00
FF0FFFFF00
FF0FFFFF00
FF0FFFFF00
FF0FFFFF00
000FF00000
000FF00000
000FF00000
000FF00000
000FF00000
000FF00000
000FF00000
000FFFF000
000FFFF000
000FFFF000
000FFFF000
000FFFF000
000FFFF000
000FFFF000
000FF00000
000FF00000
000FF00000
000FF00000
000FF00000
000FF00000
000FF00000
000FF00000
000FF00000
000FF00000
000FF00000
000FF00000
000FF00000
000FF00000
ENDCHAR
STARTCHAR U+2409
ENCODING 9225
SWIDTH 1000 0
BBX 36 70 0 -14
DWIDTH 36 0
BITMAP
0000000000
0000000000
0000000000
0000000000
0000000000
0000000000
0000000000
FF0FF00000
FF0FF00000
FF0FF00000
FF0FF00000
FF0FF00000
FF0FF00000
FF0FF00000
FF0FF00000
FF0FF00000
FF0FF00000
FF0FF00000
FF0FF00000
FF0FF00000
FF0FF00000
FFFFF00000
FFFFF00000
FFFFF00000
FFFFF00000
FFFFF00000
FFFFF00000
FFFFF00000
FF0FF00000
FF0FF00000
FF0FF00000
FF0FF00000
FF0FF00000
FF0FF00000
FF0FF00000
FFFFFFFF00
FFFFFFFF00
FFFFFFFF00
FFFFFFFF00
FFFFFFFF00
FFFFFFFF00
FFFFFFFF00
0000FF0000
0000FF0000
0000FF0000
0000FF0000
0000FF0000
0000FF0000
0000FF0000
0000FF0000
0000FF0000
0000FF0000
0000FF0000
0000FF0000
0000FF0000
0000FF0000
0000FF0000
0000FF0000
0000FF0000
0000FF0000
0000FF0000
0000FF0000
0000FF0000
0000FF0000
0000FF0000
0000FF0000
0000FF0000
0000FF0000
0000FF0000
0000FF0000
ENDCHAR
STARTCHAR U+2592
ENCODING 9618
SWIDTH 1000 0
BBX 36 70 0 -14
DWIDTH 36 0
BITMAP
0000000000
0000000000
0000000000
0000000000
0000000000
0000000000
0000000000
FF0FF0FF00
FF0FF0FF00
FF0FF0FF00
FF0FF0FF00
FF0FF0FF00
FF0FF0FF00
FF0FF0FF00
0FF00FF000
0FF00FF000
0FF00FF000
0FF00FF000
0FF00FF000
0FF00FF000
0FF00FF000
FF0FF0FF00
FF0FF0FF00
FF0FF0FF00
FF0FF0FF00
FF0FF0FF00
FF0FF0FF00
FF0FF0FF00
0FF00FF000
0FF00FF000
0FF00FF000
0FF00FF000
0FF00FF000
0FF00FF000
0FF00FF000
FF0FF0FF00
FF0FF0FF00
FF0FF0FF00
FF0FF0FF00
FF0FF0FF00
FF0FF0FF00
FF0FF0FF00
0FF00FF000
0FF00FF000
0FF00FF000
0FF00FF000
0FF00FF000
0FF00FF000
0FF00FF000
FF0FF0FF00
FF0FF0FF00
FF0FF0FF00
FF0FF0FF00
FF0FF0FF00
FF0FF0FF00
FF0FF0FF00
0000000000
0000000000
0000000000
0000000000
0000000000
0000000000
0000000000
0000000000
0000000000
0000000000
0000000000
0000000000
0000000000
0000000000
ENDCHAR
STARTCHAR U+25C6
ENCODING 9670
SWIDTH 1000 0
BBX 36 70 0 -14
DWIDTH 36 0
BITMAP
0000000000
0000000000
0000000000
0000000000
0000000000
0000000000
0000000000
000FF00000
000FF00000
000FF00000
000FF00000
000FF00000
000FF00000
000FF00000
00FFFF0000
00FFFF0000
00FFFF0000
00FFFF0000
00FFFF0000
00FFFF0000
00FFFF0000
0FFFFFF000
0FFFFFF000
0FFFFFF000
0FFFFFF000
0FFFFFF000
0FFFFFF000
0FFFFFF000
FFFFFFFF00
FFFFFFFF00
FFFFFFFF00
FFFFFFFF00
FFFFFFFF00
FFFFFFFF00
FFFFFFFF00
0FFFFFF000
0FFFFFF000
0FFFFFF000
0FFFFFF000
0FFFFFF000
0FFFFFF000
0FFFFFF000
00FFFF0000
00FFFF0000
00FFFF0000
00FFFF0000
00FFFF0000
00FFFF0000
00FFFF0000
000FF00000
000FF00000
000FF00000
000FF00000
000FF00000
000FF00000
000FF00000
0000000000
0000000000
0000000000
0000000000
0000000000
0000000000
0000000000
0000000000
0000000000
0000000000
0000000000
0000000000
0000000000
0000000000
ENDCHAR
STARTCHAR U+0020
ENCODING 32
SWIDTH 1000 0
BBX 36 70 0 -14
DWIDTH 36 0
BITMAP
0000000000
0000000000
0000000000
0000000000
0000000000
0000000000
0000000000
0000000000
0000000000
0000000000
0000000000
0000000000
0000000000
0000000000
0000000000
0000000000
0000000000
0000000000
0000000000
0000000000
0000000000
0000000000
0000000000
0000000000
0000000000
0000000000
0000000000
0000000000
0000000000
0000000000
0000000000
0000000000
0000000000
0000000000
0000000000
0000000000
0000000000
0000000000
0000000000
0000000000
0000000000
0000000000
0000000000
0000000000
0000000000
0000000000
0000000000
0000000000
0000000000
0000000000
0000000000
0000000000
0000000000
0000000000
0000000000
0000000000
0000000000
0000000000
0000000000
0000000000
0000000000
0000000000
0000000000
0000000000
0000000000
0000000000
0000000000
0000000000
0000000000
0000000000
ENDCHAR
ENDFONT
